{"glyphs":{"0":{"ha":791,"x_min":65,"x_max":726,"o":"m 396 -18 q 155 115 245 -18 q 65 515 65 249 q 155 911 65 781 q 396 1042 245 1042 q 636 911 546 1042 q 726 515 726 780 q 636 115 726 249 q 396 -18 546 -18 m 396 109 q 488 149 448 109 q 551 278 528 189 q 574 515 574 368 q 551 750 574 662 q 488 877 528 838 q 396 916 448 916 q 304 877 344 916 q 241 750 264 838 q 218 515 218 662 q 241 278 218 368 q 304 149 264 189 q 396 109 344 109 z "},"1":{"ha":791,"x_min":119,"x_max":703,"o":"m 119 0 l 119 132 l 343 132 l 343 843 l 160 843 l 160 945 q 285 977 232 958 q 382 1023 338 996 l 503 1023 l 503 132 l 703 132 l 703 0 l 119 0 z "},"2":{"ha":791,"x_min":53,"x_max":721,"o":"m 61 0 l 61 93 q 402 447 287 293 q 518 726 518 600 q 474 862 518 810 q 345 914 431 914 q 234 881 284 914 q 143 800 184 847 l 53 889 q 191 1001 119 961 q 364 1042 264 1042 q 527 1003 458 1042 q 634 896 596 965 q 672 734 672 827 q 624 535 672 636 q 491 332 576 435 q 298 126 407 230 q 383 134 338 131 q 465 136 428 136 l 721 136 l 721 0 l 61 0 z "},"3":{"ha":791,"x_min":39,"x_max":714,"o":"m 372 -18 q 171 23 252 -18 q 39 122 90 65 l 117 225 q 220 146 161 179 q 358 113 279 113 q 499 158 445 113 q 553 283 553 203 q 525 381 553 340 q 432 446 498 423 q 250 469 366 469 l 250 587 q 409 611 351 587 q 493 675 468 634 q 518 766 518 715 q 476 873 518 834 q 361 914 434 913 q 251 887 302 913 q 157 818 201 861 l 74 918 q 206 1007 134 972 q 367 1042 278 1042 q 529 1011 458 1042 q 639 921 600 980 q 679 778 679 862 q 631 628 679 689 q 503 538 584 568 l 503 530 q 653 444 591 509 q 714 275 714 378 q 668 117 714 182 q 544 17 621 52 q 372 -18 466 -18 z "},"4":{"ha":791,"x_min":28,"x_max":750,"o":"m 189 399 l 471 399 l 471 667 q 473 765 471 708 q 478 865 475 823 l 472 865 q 433 786 454 826 q 390 707 412 747 l 189 399 m 471 0 l 471 275 l 28 275 l 28 382 l 435 1023 l 621 1023 l 621 399 l 750 399 l 750 275 l 621 275 l 621 0 l 471 0 z "},"5":{"ha":791,"x_min":37,"x_max":717,"o":"m 372 -18 q 172 23 252 -18 q 37 118 92 65 l 114 222 q 215 145 157 178 q 353 113 273 113 q 497 171 439 113 q 555 330 555 229 q 502 489 555 433 q 361 545 449 545 q 277 530 312 545 q 197 486 242 515 l 119 538 l 150 1023 l 668 1023 l 668 888 l 289 888 l 265 625 q 331 651 298 642 q 406 661 364 661 q 562 627 491 661 q 674 520 632 592 q 717 336 717 448 q 668 144 717 223 q 541 23 619 64 q 372 -18 462 -18 z "},"6":{"ha":791,"x_min":74,"x_max":732,"o":"m 415 522 q 321 495 372 522 q 225 403 271 469 q 290 178 237 251 q 425 104 342 104 q 538 161 492 104 q 585 318 585 218 q 541 469 585 416 q 415 522 498 522 m 427 -18 q 249 37 329 -18 q 121 205 169 92 q 74 492 74 318 q 105 744 74 639 q 191 914 137 848 q 315 1011 245 980 q 460 1042 385 1042 q 608 1010 545 1042 q 715 932 671 978 l 628 835 q 556 889 600 868 q 468 911 513 911 q 348 874 403 911 q 260 752 294 838 q 222 521 226 667 q 328 607 267 576 q 444 639 389 639 q 653 559 574 639 q 732 318 732 479 q 690 141 732 216 q 579 24 648 66 q 427 -18 510 -18 z "},"7":{"ha":791,"x_min":68,"x_max":726,"o":"m 268 0 q 292 258 275 140 q 341 480 309 376 q 424 685 373 585 q 549 888 475 785 l 68 888 l 68 1023 l 726 1023 l 726 925 q 581 710 636 813 q 495 500 526 607 q 452 272 465 394 q 432 0 438 150 l 268 0 z "},"8":{"ha":791,"x_min":64,"x_max":728,"o":"m 397 -18 q 226 17 301 -18 q 107 114 151 52 q 64 254 64 175 q 90 374 64 321 q 158 466 116 427 q 248 529 200 504 l 248 536 q 150 635 190 576 q 110 775 110 694 q 148 914 110 855 q 252 1006 186 973 q 401 1039 318 1039 q 555 1004 490 1039 q 655 909 620 970 q 690 768 690 848 q 670 670 690 716 q 618 588 650 624 q 555 528 587 551 l 555 521 q 641 458 602 495 q 704 371 680 422 q 728 250 728 319 q 686 114 728 174 q 570 17 645 53 q 397 -18 496 -18 m 464 568 q 555 758 555 654 q 514 877 555 829 q 399 924 473 924 q 295 884 336 924 q 253 775 253 844 q 282 682 253 720 q 359 617 311 644 q 464 568 407 590 m 400 97 q 528 140 479 97 q 576 254 576 182 q 543 357 576 317 q 452 426 509 397 q 325 484 395 455 q 239 392 272 447 q 205 269 205 336 q 261 145 205 193 q 400 97 317 97 z "},"9":{"ha":791,"x_min":60,"x_max":718,"o":"m 208 705 q 251 554 208 608 q 374 500 294 500 q 473 530 422 500 q 568 625 524 559 q 503 847 557 776 q 366 918 449 918 q 254 862 300 918 q 208 705 208 806 m 338 -18 q 185 13 249 -18 q 77 90 121 45 l 164 189 q 238 134 194 155 q 330 113 283 113 q 446 150 393 113 q 532 272 498 186 q 571 504 566 358 q 465 417 526 449 q 346 385 404 385 q 139 465 218 385 q 60 705 60 545 q 101 883 60 807 q 212 1000 143 958 q 364 1042 281 1042 q 542 988 462 1042 q 670 825 623 935 q 718 546 718 715 q 687 288 718 395 q 602 113 656 180 q 480 14 548 45 q 338 -18 412 -18 z "},"\"":{"ha":720,"x_min":123,"x_max":595,"o":"m 160 636 l 127 913 l 123 1076 l 289 1076 l 285 913 l 253 636 l 160 636 m 465 636 l 433 913 l 428 1076 l 595 1076 l 590 913 l 558 636 l 465 636 z "},"#":{"ha":791,"x_min":56,"x_max":745,"o":"m 139 0 l 176 311 l 56 311 l 56 418 l 189 418 l 216 631 l 86 631 l 86 737 l 228 737 l 264 1015 l 361 1015 l 328 737 l 519 737 l 555 1015 l 654 1015 l 619 737 l 745 737 l 745 631 l 607 631 l 581 418 l 714 418 l 714 311 l 568 311 l 530 0 l 431 0 l 468 311 l 277 311 l 237 0 l 139 0 m 288 418 l 481 418 l 507 631 l 314 631 l 288 418 z "},"%":{"ha":1304,"x_min":50,"x_max":1254,"o":"m 289 395 q 116 480 182 395 q 50 720 50 566 q 116 958 50 873 q 289 1042 182 1042 q 463 958 396 1042 q 529 720 529 873 q 463 480 529 566 q 289 395 396 395 m 289 489 q 378 545 343 489 q 412 720 412 602 q 378 893 412 838 q 289 947 343 947 q 201 893 236 947 q 167 720 167 838 q 201 545 167 602 q 289 489 236 489 m 321 -18 l 880 1042 l 982 1042 l 422 -18 l 321 -18 m 1015 -18 q 842 66 908 -18 q 775 306 775 151 q 842 544 775 460 q 1015 628 908 628 q 1188 544 1122 628 q 1254 306 1254 460 q 1188 66 1254 151 q 1015 -18 1122 -18 m 1015 75 q 1103 132 1068 75 q 1137 306 1137 188 q 1103 479 1137 425 q 1015 533 1068 533 q 927 479 961 533 q 893 306 893 425 q 927 132 893 188 q 1015 75 961 75 z "},"&":{"ha":981,"x_min":47,"x_max":956,"o":"m 313 793 q 325 715 313 755 q 357 632 336 675 q 470 721 422 675 q 517 829 517 766 q 496 901 517 871 q 429 932 475 932 q 345 892 377 932 q 313 793 313 853 m 367 -18 q 197 19 269 -18 q 86 121 125 57 q 47 267 47 186 q 75 390 47 337 q 148 485 102 444 q 244 561 193 526 q 195 680 213 621 q 178 791 178 739 q 209 918 178 861 q 295 1008 239 975 q 427 1042 351 1042 q 586 983 528 1042 q 643 831 643 924 q 610 710 643 763 q 525 614 576 658 q 416 530 473 571 q 530 396 466 462 q 661 277 593 330 q 798 559 751 393 l 945 559 q 872 370 916 460 q 768 199 829 279 q 866 145 818 168 q 956 113 914 123 l 914 -18 q 671 94 798 10 q 535 12 610 42 q 367 -18 459 -18 m 200 277 q 254 154 200 200 q 386 107 307 107 q 477 125 433 107 q 562 176 522 144 q 427 307 492 237 q 310 453 362 378 q 232 371 263 413 q 200 277 200 328 z "},"'":{"ha":414,"x_min":123,"x_max":289,"o":"m 160 636 l 127 913 l 123 1076 l 289 1076 l 285 913 l 253 636 l 160 636 z "},"(":{"ha":493,"x_min":123,"x_max":429,"o":"m 329 -277 q 178 55 233 -118 q 123 435 123 227 q 178 814 123 640 q 329 1145 233 987 l 429 1101 q 297 780 340 951 q 254 435 254 609 q 297 89 254 260 q 429 -232 340 -83 l 329 -277 z "},")":{"ha":493,"x_min":64,"x_max":371,"o":"m 164 -277 l 64 -232 q 196 89 153 -83 q 239 435 239 260 q 196 780 239 609 q 64 1101 153 951 l 164 1145 q 316 814 262 987 q 371 435 371 640 q 316 55 371 227 q 164 -277 262 -118 z "},"*":{"ha":672,"x_min":81,"x_max":590,"o":"m 221 623 l 149 675 l 237 827 l 81 893 l 109 978 l 275 939 l 290 1112 l 380 1112 l 396 939 l 562 978 l 590 893 l 433 827 l 524 675 l 452 623 l 336 757 l 221 623 z "},"+":{"ha":791,"x_min":53,"x_max":739,"o":"m 335 158 l 335 458 l 53 458 l 53 574 l 335 574 l 335 873 l 457 873 l 457 574 l 739 574 l 739 458 l 457 458 l 457 158 l 335 158 z "},",":{"ha":414,"x_min":74,"x_max":338,"o":"m 110 -278 l 74 -187 q 185 -108 146 -158 q 225 3 225 -58 q 210 1 220 1 q 135 28 167 1 q 103 104 103 54 q 136 179 103 151 q 214 207 168 207 q 305 161 272 207 q 338 35 338 115 q 277 -156 338 -75 q 110 -278 217 -237 z "},"-":{"ha":496,"x_min":65,"x_max":432,"o":"m 65 334 l 65 452 l 432 452 l 432 334 l 65 334 z "},".":{"ha":414,"x_min":100,"x_max":314,"o":"m 207 -18 q 131 13 162 -18 q 100 93 100 44 q 131 175 100 143 q 207 207 162 207 q 283 175 252 207 q 314 93 314 143 q 283 13 314 44 q 207 -18 252 -18 z "},"/":{"ha":542,"x_min":17,"x_max":514,"o":"m 17 -250 l 403 1109 l 514 1109 l 127 -250 l 17 -250 z "},":":{"ha":414,"x_min":100,"x_max":314,"o":"m 207 528 q 131 559 162 528 q 100 639 100 591 q 131 720 100 688 q 207 753 162 753 q 283 720 252 753 q 314 639 314 688 q 283 559 314 591 q 207 528 252 528 m 207 -18 q 131 13 162 -18 q 100 93 100 44 q 131 175 100 143 q 207 207 162 207 q 283 175 252 207 q 314 93 314 143 q 283 13 314 44 q 207 -18 252 -18 z "},";":{"ha":414,"x_min":74,"x_max":338,"o":"m 207 528 q 131 559 162 528 q 100 639 100 591 q 131 720 100 688 q 207 753 162 753 q 283 720 252 753 q 314 639 314 688 q 283 559 314 591 q 207 528 252 528 m 110 -278 l 74 -187 q 185 -108 146 -158 q 225 3 225 -58 q 210 1 220 1 q 135 28 167 1 q 103 104 103 54 q 136 179 103 151 q 214 207 168 207 q 305 161 272 207 q 338 35 338 115 q 277 -156 338 -75 q 110 -278 217 -237 z "},"<":{"ha":791,"x_min":53,"x_max":739,"o":"m 739 192 l 53 458 l 53 579 l 739 846 l 739 711 l 427 599 l 216 521 l 216 515 l 427 439 l 739 326 l 739 192 z "},"=":{"ha":791,"x_min":53,"x_max":739,"o":"m 53 631 l 53 746 l 739 746 l 739 631 l 53 631 m 53 286 l 53 401 l 739 401 l 739 286 l 53 286 z "},">":{"ha":791,"x_min":53,"x_max":739,"o":"m 53 192 l 53 326 l 366 439 l 576 515 l 576 521 l 366 599 l 53 711 l 53 846 l 739 579 l 739 458 l 53 192 z "},"?":{"ha":682,"x_min":61,"x_max":611,"o":"m 248 326 q 255 451 237 396 q 306 551 273 506 q 373 635 338 595 q 432 715 408 675 q 456 800 456 755 q 420 897 456 859 q 319 935 385 935 q 228 911 271 935 q 151 850 186 888 l 61 932 q 181 1028 112 990 q 338 1065 251 1065 q 535 999 459 1065 q 611 811 611 933 q 586 702 611 750 q 526 612 562 654 q 456 528 490 570 q 401 437 421 486 q 387 326 380 389 l 248 326 m 319 -18 q 243 13 273 -18 q 212 93 212 44 q 243 175 212 143 q 319 207 273 207 q 395 175 364 207 q 427 93 427 143 q 395 13 427 44 q 319 -18 364 -18 z "},"@":{"ha":1350,"x_min":78,"x_max":1272,"o":"m 642 -250 q 424 -214 526 -250 q 244 -106 322 -178 q 122 71 166 -35 q 78 318 78 178 q 131 607 78 477 q 277 829 184 736 q 490 971 370 922 q 746 1021 611 1021 q 1025 954 907 1021 q 1208 767 1143 886 q 1272 490 1272 647 q 1243 308 1272 387 q 1165 177 1213 230 q 1059 98 1116 125 q 946 72 1002 72 q 835 102 881 72 q 779 191 789 132 l 775 191 q 688 115 740 146 q 586 85 636 85 q 447 143 503 85 q 392 310 392 202 q 414 440 392 375 q 477 559 436 505 q 573 645 517 612 q 697 677 629 677 q 768 659 736 677 q 821 602 800 641 l 823 602 l 843 665 l 946 665 l 880 345 q 880 217 860 258 q 961 176 901 176 q 1057 214 1010 176 q 1134 320 1103 251 q 1165 485 1165 389 q 1118 705 1165 607 q 975 861 1071 803 q 733 918 879 918 q 534 876 631 918 q 360 756 437 834 q 237 568 283 677 q 192 323 192 458 q 253 65 192 170 q 419 -94 315 -40 q 654 -147 524 -147 q 786 -129 722 -147 q 901 -81 850 -110 l 942 -172 q 642 -250 804 -250 m 618 191 q 681 210 648 191 q 750 275 713 229 l 791 513 q 700 571 757 571 q 603 531 644 571 q 539 432 562 491 q 517 318 517 374 q 546 220 517 250 q 618 191 574 191 z "},"A":{"ha":864,"x_min":0,"x_max":864,"o":"m 330 555 l 289 418 l 568 418 l 528 555 q 478 724 502 639 q 432 896 455 809 l 425 896 q 379 724 403 808 q 330 555 355 639 m 0 0 l 339 1023 l 525 1023 l 864 0 l 693 0 l 607 292 l 252 292 l 164 0 l 0 0 z "},"B":{"ha":926,"x_min":135,"x_max":868,"o":"m 135 0 l 135 1023 l 452 1023 q 638 999 556 1023 q 766 919 720 975 q 812 771 812 863 q 774 635 812 698 q 667 550 735 573 l 667 543 q 811 464 754 524 q 868 300 868 404 q 817 132 868 199 q 678 33 766 66 q 476 0 589 0 l 135 0 m 296 596 l 433 596 q 602 637 550 596 q 654 750 654 678 q 600 864 654 830 q 437 897 546 897 l 296 897 l 296 596 m 296 126 l 458 126 q 644 170 578 126 q 710 309 710 214 q 645 435 710 395 q 458 475 581 475 l 296 475 l 296 126 z "},"C":{"ha":897,"x_min":79,"x_max":851,"o":"m 533 -18 q 302 44 405 -18 q 139 223 199 106 q 79 509 79 341 q 141 794 79 675 q 307 978 202 914 q 541 1042 411 1042 q 710 1003 636 1042 q 831 913 784 964 l 743 810 q 654 876 703 850 q 543 901 606 901 q 388 854 455 901 q 282 721 320 808 q 244 514 244 634 q 324 227 244 332 q 539 122 404 122 q 665 151 610 122 q 765 231 720 180 l 851 129 q 711 20 790 58 q 533 -18 632 -18 z "},"D":{"ha":971,"x_min":135,"x_max":893,"o":"m 135 0 l 135 1023 l 400 1023 q 764 894 635 1023 q 893 515 893 765 q 765 133 893 267 q 408 0 637 0 l 135 0 m 296 132 l 389 132 q 640 229 553 132 q 726 515 726 325 q 640 799 726 707 q 389 892 553 892 l 296 892 l 296 132 z "},"E":{"ha":833,"x_min":135,"x_max":754,"o":"m 135 0 l 135 1023 l 739 1023 l 739 888 l 296 888 l 296 603 l 671 603 l 671 467 l 296 467 l 296 136 l 754 136 l 754 0 l 135 0 z "},"F":{"ha":786,"x_min":135,"x_max":741,"o":"m 135 0 l 135 1023 l 741 1023 l 741 888 l 296 888 l 296 575 l 673 575 l 673 440 l 296 440 l 296 0 l 135 0 z "},"G":{"ha":974,"x_min":79,"x_max":875,"o":"m 551 -18 q 309 44 415 -18 q 141 223 202 106 q 79 509 79 341 q 142 794 79 675 q 313 978 205 914 q 555 1042 420 1042 q 739 1002 664 1042 q 860 913 813 962 l 774 810 q 685 875 735 848 q 561 901 635 901 q 395 854 466 901 q 284 721 323 808 q 244 514 244 634 q 327 227 244 332 q 568 122 410 122 q 659 135 615 122 q 729 172 702 149 l 729 412 l 526 412 l 526 545 l 875 545 l 875 102 q 740 16 824 50 q 551 -18 656 -18 z "},"H":{"ha":1028,"x_min":135,"x_max":895,"o":"m 135 0 l 135 1023 l 296 1023 l 296 606 l 733 606 l 733 1023 l 895 1023 l 895 0 l 733 0 l 733 465 l 296 465 l 296 0 l 135 0 z "},"I":{"ha":429,"x_min":135,"x_max":296,"o":"m 135 0 l 135 1023 l 296 1023 l 296 0 l 135 0 z "},"J":{"ha":764,"x_min":41,"x_max":635,"o":"m 338 -18 q 162 24 235 -18 q 41 151 90 67 l 154 233 q 228 148 186 174 q 319 122 269 122 q 435 169 397 122 q 473 328 473 215 l 473 1023 l 635 1023 l 635 313 q 604 146 635 221 q 507 26 573 71 q 338 -18 441 -18 z "},"K":{"ha":921,"x_min":135,"x_max":921,"o":"m 135 0 l 135 1023 l 296 1023 l 296 539 l 300 539 l 689 1023 l 868 1023 l 551 628 l 921 0 l 742 0 l 453 501 l 296 309 l 296 0 l 135 0 z "},"L":{"ha":775,"x_min":135,"x_max":729,"o":"m 135 0 l 135 1023 l 296 1023 l 296 136 l 729 136 l 729 0 l 135 0 z "},"M":{"ha":1153,"x_min":135,"x_max":1019,"o":"m 135 0 l 135 1023 l 319 1023 l 507 505 q 541 403 525 454 q 575 300 557 351 l 582 300 q 615 403 600 351 q 648 505 631 454 l 833 1023 l 1019 1023 l 1019 0 l 869 0 l 869 505 q 873 607 869 551 q 881 720 876 663 q 890 822 886 776 l 885 822 l 803 586 l 625 98 l 525 98 l 346 586 l 265 822 l 260 822 q 268 720 263 776 q 276 607 273 663 q 279 505 279 551 l 279 0 l 135 0 z "},"N":{"ha":1019,"x_min":135,"x_max":885,"o":"m 135 0 l 135 1023 l 300 1023 l 639 422 l 746 205 l 753 205 q 739 374 747 285 q 732 546 732 463 l 732 1023 l 885 1023 l 885 0 l 720 0 l 380 603 l 273 817 l 267 817 q 280 651 273 737 q 288 482 288 566 l 288 0 l 135 0 z "},"O":{"ha":1047,"x_min":79,"x_max":970,"o":"m 524 -18 q 292 46 393 -18 q 136 231 192 111 q 79 515 79 351 q 136 798 79 680 q 292 979 192 916 q 524 1042 393 1042 q 755 979 655 1042 q 913 798 856 916 q 970 515 970 680 q 913 231 970 351 q 755 46 856 111 q 524 -18 655 -18 m 524 122 q 671 171 608 122 q 769 308 734 219 q 804 515 804 396 q 727 799 804 696 q 524 901 650 901 q 320 799 397 901 q 244 515 244 696 q 279 308 244 396 q 376 171 313 219 q 524 122 439 122 z "},"P":{"ha":899,"x_min":135,"x_max":835,"o":"m 135 0 l 135 1023 l 444 1023 q 646 994 558 1023 q 785 897 734 965 q 835 714 835 829 q 785 530 835 602 q 648 422 735 458 q 450 387 561 387 l 296 387 l 296 0 l 135 0 m 296 517 l 435 517 q 617 565 557 517 q 676 714 676 613 q 614 854 676 815 q 429 893 551 893 l 296 893 l 296 517 z "},"Q":{"ha":1047,"x_min":79,"x_max":1002,"o":"m 524 114 q 671 163 608 114 q 769 302 734 212 q 804 515 804 392 q 727 799 804 696 q 524 901 650 901 q 320 799 397 901 q 244 515 244 696 q 279 302 244 392 q 376 163 313 212 q 524 114 439 114 m 844 -265 q 595 -194 696 -265 q 447 -12 494 -122 q 254 75 337 6 q 125 256 171 144 q 79 515 79 368 q 136 798 79 680 q 292 979 192 916 q 524 1042 393 1042 q 755 979 655 1042 q 913 798 856 916 q 970 515 970 680 q 926 262 970 372 q 803 83 882 152 q 619 -8 724 14 q 720 -103 654 -73 q 863 -134 785 -134 q 923 -129 896 -134 q 971 -118 950 -124 l 1002 -239 q 936 -258 977 -250 q 844 -265 895 -265 z "},"R":{"ha":911,"x_min":135,"x_max":875,"o":"m 135 0 l 135 1023 l 469 1023 q 659 995 575 1023 q 790 902 742 967 q 839 726 839 837 q 780 536 839 608 q 625 433 722 464 l 875 0 l 693 0 l 461 412 l 296 412 l 296 0 l 135 0 m 296 542 l 450 542 q 620 588 562 542 q 679 726 679 633 q 620 856 679 819 q 450 893 562 893 l 296 893 l 296 542 z "},"S":{"ha":844,"x_min":62,"x_max":786,"o":"m 427 -18 q 227 21 321 -18 q 62 132 132 61 l 157 243 q 284 155 212 188 q 429 122 355 122 q 572 162 522 122 q 623 267 623 202 q 601 342 623 313 q 543 390 580 370 q 458 431 505 410 l 317 492 q 219 547 267 513 q 140 633 172 581 q 109 760 109 686 q 152 904 109 840 q 271 1005 195 968 q 444 1042 347 1042 q 615 1007 534 1042 q 754 913 696 972 l 669 810 q 567 877 621 852 q 444 901 512 901 q 319 866 366 901 q 272 771 272 831 q 296 698 272 726 q 358 651 320 670 q 437 615 396 632 l 578 555 q 727 454 669 517 q 786 279 786 392 q 743 130 786 197 q 619 22 699 62 q 427 -18 538 -18 z "},"T":{"ha":847,"x_min":43,"x_max":806,"o":"m 343 0 l 343 888 l 43 888 l 43 1023 l 806 1023 l 806 888 l 504 888 l 504 0 l 343 0 z "},"U":{"ha":1018,"x_min":129,"x_max":889,"o":"m 510 -18 q 311 26 397 -18 q 177 172 225 71 q 129 439 129 272 l 129 1023 l 290 1023 l 290 428 q 318 246 290 313 q 396 151 347 179 q 510 122 446 122 q 625 151 574 122 q 704 246 675 179 q 733 428 733 313 l 733 1023 l 889 1023 l 889 439 q 841 172 889 272 q 708 26 793 71 q 510 -18 623 -18 z "},"V":{"ha":825,"x_min":-3,"x_max":828,"o":"m 318 0 l -3 1023 l 168 1023 l 319 493 q 366 326 345 406 q 412 158 387 247 l 419 158 q 467 326 446 247 q 513 493 488 406 l 664 1023 l 828 1023 l 509 0 l 318 0 z "},"W":{"ha":1242,"x_min":32,"x_max":1208,"o":"m 240 0 l 32 1023 l 197 1023 l 293 490 q 320 327 307 409 q 347 163 334 245 l 353 163 q 387 327 370 245 q 422 490 404 409 l 554 1023 l 697 1023 l 829 490 q 864 328 847 410 q 899 163 881 245 l 905 163 q 931 328 918 245 q 957 490 945 410 l 1054 1023 l 1208 1023 l 1007 0 l 808 0 l 671 568 q 646 687 657 629 q 624 803 634 745 l 618 803 q 594 687 606 745 q 570 568 582 629 l 435 0 l 240 0 z "},"X":{"ha":828,"x_min":22,"x_max":807,"o":"m 22 0 l 315 528 l 40 1023 l 220 1023 l 343 783 q 380 711 362 748 q 421 629 398 675 l 428 629 q 464 711 448 675 q 497 783 479 748 l 618 1023 l 787 1023 l 513 519 l 807 0 l 628 0 l 493 254 q 453 334 473 294 q 408 421 432 374 l 403 421 q 362 334 382 374 q 323 254 342 294 l 193 0 l 22 0 z "},"Y":{"ha":768,"x_min":-4,"x_max":772,"o":"m 302 0 l 302 387 l -4 1023 l 168 1023 l 286 751 q 333 639 310 694 q 382 526 356 585 l 387 526 q 437 639 412 585 q 485 751 462 694 l 604 1023 l 772 1023 l 464 387 l 464 0 l 302 0 z "},"Z":{"ha":843,"x_min":65,"x_max":782,"o":"m 65 0 l 65 97 l 578 888 l 113 888 l 113 1023 l 777 1023 l 777 926 l 265 136 l 782 136 l 782 0 l 65 0 z "},"[":{"ha":493,"x_min":144,"x_max":437,"o":"m 144 -237 l 144 1105 l 437 1105 l 437 1018 l 264 1018 l 264 -149 l 437 -149 l 437 -237 l 144 -237 z "},"\\":{"ha":542,"x_min":28,"x_max":525,"o":"m 414 -250 l 28 1109 l 139 1109 l 525 -250 l 414 -250 z "},"]":{"ha":493,"x_min":56,"x_max":350,"o":"m 56 -237 l 56 -149 l 229 -149 l 229 1018 l 56 1018 l 56 1105 l 350 1105 l 350 -237 l 56 -237 z "},"a":{"ha":799,"x_min":77,"x_max":693,"o":"m 301 -18 q 139 42 202 -18 q 77 203 77 102 q 186 393 77 326 q 533 486 295 460 q 519 568 532 530 q 475 630 507 606 q 387 653 444 653 q 271 630 327 653 q 167 575 216 606 l 107 684 q 245 752 166 721 q 415 783 323 783 q 626 697 558 783 q 693 460 693 612 l 693 0 l 562 0 l 550 87 l 545 87 q 431 12 492 43 q 301 -18 370 -18 m 350 109 q 443 132 400 109 q 533 197 486 155 l 533 385 q 297 322 363 365 q 231 214 231 279 q 265 133 231 157 q 350 109 299 109 z "},"b":{"ha":873,"x_min":121,"x_max":806,"o":"m 476 -18 q 369 7 425 -18 q 265 79 314 33 l 261 79 l 245 0 l 121 0 l 121 1107 l 281 1107 l 281 814 l 275 684 q 383 755 324 726 q 503 783 442 783 q 667 735 600 783 q 770 600 734 687 q 806 395 806 512 q 759 171 806 263 q 637 30 713 79 q 476 -18 562 -18 m 446 114 q 585 185 529 114 q 640 392 640 257 q 598 581 640 511 q 461 650 557 650 q 281 557 374 650 l 281 183 q 367 130 324 145 q 446 114 410 114 z "},"c":{"ha":718,"x_min":66,"x_max":681,"o":"m 432 -18 q 245 29 328 -18 q 115 165 163 76 q 66 382 66 255 q 119 599 66 509 q 258 736 172 688 q 444 783 344 783 q 572 758 517 783 q 668 696 627 732 l 589 591 q 524 636 557 620 q 453 652 491 652 q 338 618 388 652 q 260 523 288 584 q 232 382 232 463 q 292 186 232 260 q 447 113 353 113 q 537 133 495 113 q 614 182 580 153 l 681 77 q 563 6 627 30 q 432 -18 498 -18 z "},"d":{"ha":875,"x_min":69,"x_max":755,"o":"m 385 -18 q 155 86 241 -18 q 69 382 69 191 q 116 595 69 505 q 237 734 162 686 q 397 783 312 783 q 509 760 463 783 q 603 697 556 736 l 596 823 l 596 1107 l 755 1107 l 755 0 l 625 0 l 612 86 l 607 86 q 507 12 564 42 q 385 -18 450 -18 m 422 114 q 596 207 515 114 l 596 581 q 512 634 553 619 q 428 650 471 650 q 331 617 374 650 q 261 526 287 585 q 235 383 235 466 q 283 183 235 253 q 422 114 332 114 z "},"e":{"ha":785,"x_min":66,"x_max":728,"o":"m 439 -18 q 251 29 336 -18 q 117 166 167 77 q 66 382 66 256 q 117 595 66 505 q 247 734 167 686 q 415 783 326 783 q 586 738 517 783 q 692 611 656 692 q 728 422 728 530 q 725 376 728 398 q 720 340 722 355 l 224 340 q 297 169 233 231 q 460 107 361 107 q 555 122 511 107 q 642 164 600 137 l 697 62 q 579 4 644 27 q 439 -18 514 -18 m 222 452 l 589 452 q 545 604 589 549 q 418 659 501 659 q 290 605 346 659 q 222 452 234 551 z "},"f":{"ha":479,"x_min":43,"x_max":524,"o":"m 147 0 l 147 636 l 43 636 l 43 755 l 147 764 l 147 860 q 204 1051 147 977 q 389 1125 261 1125 q 463 1118 427 1125 q 524 1100 498 1110 l 492 979 q 408 999 448 999 q 307 861 307 999 l 307 764 l 461 764 l 461 636 l 307 636 l 307 0 l 147 0 z "},"g":{"ha":803,"x_min":65,"x_max":782,"o":"m 382 -343 q 219 -320 290 -343 q 106 -253 147 -298 q 65 -142 65 -208 q 94 -51 65 -94 q 176 25 123 -7 l 176 32 q 127 80 147 50 q 107 158 107 111 q 134 240 107 203 q 193 300 161 277 l 193 306 q 122 388 153 336 q 92 510 92 441 q 133 657 92 596 q 241 751 174 718 q 387 783 309 783 q 448 778 420 783 q 498 764 477 772 l 770 764 l 770 644 l 624 644 q 660 585 646 621 q 673 504 673 548 q 635 362 673 421 q 532 272 597 303 q 387 241 467 241 q 281 265 332 241 q 250 231 262 249 q 239 184 239 213 q 266 130 239 151 q 367 110 294 110 l 507 110 q 712 66 642 110 q 782 -77 782 22 q 733 -211 782 -150 q 594 -307 684 -271 q 382 -343 504 -343 m 387 345 q 489 389 447 345 q 532 510 532 433 q 490 628 532 586 q 387 671 448 671 q 285 629 327 671 q 243 510 243 587 q 286 389 243 433 q 387 345 328 345 m 406 -237 q 567 -196 505 -237 q 628 -102 628 -155 q 591 -36 628 -54 q 485 -18 555 -18 l 370 -18 q 317 -15 342 -18 q 267 -7 291 -12 q 217 -60 233 -32 q 201 -118 201 -89 q 256 -206 201 -174 q 406 -237 311 -237 z "},"h":{"ha":863,"x_min":121,"x_max":755,"o":"m 121 0 l 121 1107 l 281 1107 l 281 814 l 273 663 q 383 747 323 711 q 521 783 443 783 q 699 705 643 783 q 755 481 755 627 l 755 0 l 596 0 l 596 461 q 565 603 596 560 q 467 646 534 646 q 372 619 414 646 q 281 542 330 593 l 281 0 l 121 0 z "},"i":{"ha":399,"x_min":102,"x_max":300,"o":"m 121 0 l 121 764 l 281 764 l 281 0 l 121 0 m 200 907 q 129 933 156 907 q 102 1003 102 959 q 129 1072 102 1046 q 200 1097 156 1097 q 272 1072 243 1097 q 300 1003 300 1046 q 272 933 300 959 q 200 907 243 907 z "},"j":{"ha":401,"x_min":-66,"x_max":300,"o":"m 52 -329 q -17 -323 13 -329 q -66 -309 -46 -317 l -37 -189 q -4 -197 -22 -193 q 32 -201 13 -201 q 103 -164 85 -201 q 122 -60 122 -127 l 122 764 l 282 764 l 282 -57 q 260 -198 282 -137 q 187 -294 237 -260 q 52 -329 136 -329 m 200 907 q 129 933 156 907 q 102 1003 102 959 q 129 1072 102 1046 q 200 1097 156 1097 q 272 1072 243 1097 q 300 1003 300 1046 q 272 933 300 959 q 200 907 243 907 z "},"k":{"ha":799,"x_min":121,"x_max":786,"o":"m 121 0 l 121 1107 l 277 1107 l 277 393 l 282 393 l 581 764 l 757 764 l 497 454 l 786 0 l 612 0 l 406 346 l 277 197 l 277 0 l 121 0 z "},"l":{"ha":414,"x_min":121,"x_max":366,"o":"m 279 -18 q 157 34 193 -18 q 121 179 121 86 l 121 1107 l 281 1107 l 281 171 q 292 125 281 138 q 318 113 303 113 q 329 113 323 113 q 345 115 334 113 l 366 -5 q 330 -15 351 -11 q 279 -18 309 -18 z "},"m":{"ha":1308,"x_min":121,"x_max":1198,"o":"m 121 0 l 121 764 l 252 764 l 264 657 l 268 657 q 375 746 317 709 q 504 783 433 783 q 640 746 589 783 q 715 643 690 709 q 832 743 772 703 q 964 783 892 783 q 1141 705 1084 783 q 1198 481 1198 627 l 1198 0 l 1039 0 l 1039 461 q 1007 603 1039 560 q 911 646 976 646 q 739 542 835 646 l 739 0 l 579 0 l 579 461 q 548 603 579 560 q 452 646 517 646 q 281 542 374 646 l 281 0 l 121 0 z "},"n":{"ha":867,"x_min":121,"x_max":755,"o":"m 121 0 l 121 764 l 252 764 l 264 659 l 268 659 q 382 746 321 709 q 521 783 443 783 q 699 705 643 783 q 755 481 755 627 l 755 0 l 596 0 l 596 461 q 565 603 596 560 q 467 646 534 646 q 372 619 414 646 q 281 542 330 593 l 281 0 l 121 0 z "},"o":{"ha":852,"x_min":66,"x_max":786,"o":"m 427 -18 q 250 29 332 -18 q 117 165 168 76 q 66 382 66 255 q 117 599 66 509 q 250 736 168 688 q 427 783 332 783 q 603 736 521 783 q 735 599 685 688 q 786 382 786 509 q 735 165 786 255 q 603 29 685 76 q 427 -18 521 -18 m 427 113 q 570 186 517 113 q 623 382 623 260 q 570 577 623 503 q 427 652 517 652 q 284 577 337 652 q 232 382 232 503 q 284 186 232 260 q 427 113 337 113 z "},"p":{"ha":875,"x_min":121,"x_max":806,"o":"m 121 -310 l 121 764 l 252 764 l 264 681 l 268 681 q 379 753 318 722 q 504 783 439 783 q 668 735 601 783 q 770 600 735 687 q 806 395 806 512 q 759 171 806 263 q 637 30 713 79 q 476 -18 562 -18 q 375 4 425 -18 q 275 68 324 26 l 281 -62 l 281 -310 l 121 -310 m 446 114 q 585 185 529 114 q 640 392 640 257 q 598 581 640 511 q 461 650 557 650 q 281 557 376 650 l 281 183 q 368 130 326 145 q 446 114 410 114 z "},"q":{"ha":875,"x_min":69,"x_max":755,"o":"m 596 -310 l 596 -50 l 603 82 q 503 11 559 39 q 385 -18 446 -18 q 155 86 241 -18 q 69 382 69 191 q 116 595 69 505 q 237 734 162 686 q 397 783 312 783 q 512 760 462 783 q 611 690 562 736 l 615 690 l 629 764 l 755 764 l 755 -310 l 596 -310 m 422 114 q 596 207 515 114 l 596 581 q 512 634 553 619 q 428 650 471 650 q 331 617 374 650 q 261 526 287 585 q 235 383 235 466 q 283 183 235 253 q 422 114 332 114 z "},"r":{"ha":568,"x_min":121,"x_max":571,"o":"m 121 0 l 121 764 l 252 764 l 264 627 l 268 627 q 366 742 309 701 q 485 783 423 783 q 533 779 513 783 q 571 766 553 775 l 542 628 q 505 637 522 634 q 465 640 488 640 q 367 604 418 640 q 281 476 316 567 l 281 0 l 121 0 z "},"s":{"ha":667,"x_min":40,"x_max":618,"o":"m 328 -18 q 173 12 249 -18 q 40 87 96 41 l 115 191 q 218 127 166 151 q 332 103 271 103 q 434 133 401 103 q 467 205 467 162 q 442 263 467 240 q 378 304 417 287 q 298 338 340 321 q 198 384 248 357 q 116 453 148 411 q 83 559 83 495 q 156 720 83 656 q 355 783 229 783 q 494 756 431 783 q 603 693 557 730 l 528 595 q 447 643 488 624 q 358 661 406 661 q 265 634 295 661 q 235 567 235 606 q 257 513 235 534 q 315 476 279 492 q 393 446 351 461 q 498 399 446 426 q 584 330 550 373 q 618 214 618 286 q 585 97 618 150 q 487 13 551 45 q 328 -18 422 -18 z "},"t":{"ha":550,"x_min":35,"x_max":528,"o":"m 378 -18 q 197 55 249 -18 q 146 250 146 129 l 146 636 l 35 636 l 35 755 l 154 764 l 172 975 l 306 975 l 306 764 l 504 764 l 504 636 l 306 636 l 306 249 q 332 145 306 180 q 416 110 357 110 q 459 115 437 110 q 498 127 482 121 l 528 9 q 457 -9 496 -1 q 378 -18 419 -18 z "},"u":{"ha":861,"x_min":111,"x_max":742,"o":"m 346 -18 q 167 60 223 -18 q 111 283 111 138 l 111 764 l 271 764 l 271 302 q 301 162 271 205 q 399 119 331 119 q 493 146 452 119 q 582 233 534 173 l 582 764 l 742 764 l 742 0 l 611 0 l 599 115 l 595 115 q 483 18 543 55 q 346 -18 424 -18 z "},"v":{"ha":757,"x_min":18,"x_max":737,"o":"m 289 0 l 18 764 l 182 764 l 313 353 q 346 239 329 296 q 379 125 363 181 l 385 125 q 419 239 401 181 q 452 353 436 296 l 582 764 l 737 764 l 473 0 l 289 0 z "},"w":{"ha":1150,"x_min":37,"x_max":1112,"o":"m 244 0 l 37 764 l 199 764 l 300 351 q 321 242 311 295 q 342 134 331 189 l 347 134 q 372 242 359 189 q 397 351 384 296 l 505 764 l 653 764 l 762 351 q 788 242 776 295 q 814 134 800 189 l 819 134 q 841 242 831 189 q 864 351 851 295 l 962 764 l 1112 764 l 916 0 l 724 0 l 627 378 q 602 486 613 432 q 578 599 590 539 l 571 599 q 548 485 559 539 q 522 376 537 431 l 429 0 l 244 0 z "},"x":{"ha":730,"x_min":21,"x_max":708,"o":"m 21 0 l 268 399 l 39 764 l 211 764 l 302 611 q 338 547 319 579 q 375 482 356 514 l 380 482 q 412 547 396 514 q 444 611 429 579 l 525 764 l 692 764 l 463 380 l 708 0 l 534 0 l 435 163 q 396 231 416 196 q 355 297 376 265 l 349 297 q 313 231 331 265 q 278 163 296 197 l 189 0 l 21 0 z "},"y":{"ha":755,"x_min":18,"x_max":737,"o":"m 155 -319 q 103 -315 126 -319 q 60 -304 79 -311 l 90 -179 q 116 -186 100 -182 q 146 -191 132 -191 q 247 -150 208 -191 q 306 -47 285 -109 l 321 5 l 18 764 l 182 764 l 323 371 q 358 264 340 320 q 393 155 375 209 l 400 155 q 430 263 414 208 q 460 371 445 319 l 582 764 l 737 764 l 457 -46 q 388 -189 427 -127 q 292 -285 349 -251 q 155 -319 236 -319 z "},"z":{"ha":681,"x_min":52,"x_max":642,"o":"m 52 0 l 52 86 l 429 636 l 93 636 l 93 764 l 629 764 l 629 679 l 253 127 l 642 127 l 642 0 l 52 0 z "},"{":{"ha":493,"x_min":53,"x_max":437,"o":"m 359 -237 q 218 -193 263 -237 q 172 -25 172 -148 q 179 124 172 60 q 186 265 186 189 q 158 348 186 310 q 53 386 131 385 l 53 484 q 134 502 105 484 q 174 546 163 519 q 186 602 186 573 q 179 744 186 680 q 172 893 172 808 q 218 1061 172 1016 q 359 1105 263 1105 l 437 1105 l 437 1018 l 401 1018 q 321 988 342 1018 q 301 885 301 958 q 306 753 301 817 q 310 611 310 688 q 286 491 310 531 q 208 437 262 451 l 208 431 q 286 377 262 417 q 310 257 310 336 q 306 115 310 180 q 301 -17 301 51 q 321 -119 301 -90 q 401 -149 342 -149 l 437 -149 l 437 -237 l 359 -237 z "},"|":{"ha":390,"x_min":142,"x_max":249,"o":"m 142 -390 l 142 1173 l 249 1173 l 249 -390 l 142 -390 z "},"}":{"ha":493,"x_min":56,"x_max":441,"o":"m 56 -237 l 56 -149 l 92 -149 q 172 -119 151 -149 q 192 -17 192 -90 q 188 115 192 51 q 184 257 184 180 q 208 377 184 336 q 285 431 231 417 l 285 437 q 208 491 231 451 q 184 611 184 531 q 188 753 184 688 q 192 885 192 817 q 172 988 192 958 q 92 1018 151 1018 l 56 1018 l 56 1105 l 134 1105 q 276 1061 230 1105 q 322 893 322 1016 q 315 744 322 808 q 309 602 309 680 q 320 546 309 573 q 360 502 332 519 q 441 484 389 484 l 441 386 q 336 348 363 385 q 309 265 309 310 q 315 124 309 189 q 322 -25 322 60 q 276 -193 322 -148 q 134 -237 230 -237 l 56 -237 z "},"~":{"ha":791,"x_min":53,"x_max":739,"o":"m 532 393 q 448 413 485 393 q 380 457 412 432 q 319 502 349 482 q 257 521 290 521 q 139 428 189 521 l 53 490 q 153 604 100 570 q 260 637 207 637 q 343 618 307 637 q 411 574 380 599 q 472 529 442 549 q 534 510 502 510 q 652 604 601 510 l 739 539 q 637 428 691 462 q 532 393 584 393 z "},"…":{"ha":1389,"x_min":132,"x_max":1257,"o":"m 232 628 q 302 599 273 628 q 332 528 332 570 q 302 457 332 486 q 232 428 273 428 q 161 457 191 428 q 132 528 132 486 q 161 599 132 570 q 232 628 191 628 m 694 628 q 765 599 736 628 q 794 528 794 570 q 765 457 794 486 q 694 428 736 428 q 624 457 653 428 q 595 528 595 486 q 624 599 595 570 q 694 628 653 628 m 1157 628 q 1227 599 1198 628 q 1257 528 1257 570 q 1227 457 1257 486 q 1157 428 1198 428 q 1086 457 1116 428 q 1057 528 1057 486 q 1086 599 1057 570 q 1157 628 1116 628 z "},"一":{"ha":1389,"x_min":65,"x_max":1329,"o":"m 65 612 l 1329 612 l 1329 471 l 65 471 l 65 612 z "},"丁":{"ha":1389,"x_min":86,"x_max":1303,"o":"m 1303 1047 l 1303 914 l 811 914 l 811 86 q 790 -20 811 16 q 720 -72 770 -56 q 588 -95 669 -91 q 392 -98 507 -98 q 366 -23 385 -67 q 329 52 348 21 q 447 47 389 49 q 550 46 505 46 q 612 47 594 47 q 649 56 637 48 q 660 87 660 64 l 660 914 l 86 914 l 86 1047 l 1303 1047 z "},"七":{"ha":1389,"x_min":71,"x_max":1325,"o":"m 715 65 l 1036 65 q 1105 86 1082 65 q 1139 165 1128 108 q 1157 332 1149 223 q 1221 296 1182 313 q 1287 271 1261 278 q 1256 75 1278 148 q 1185 -31 1234 1 q 1043 -64 1135 -64 l 708 -64 q 561 -43 614 -64 q 486 28 507 -23 q 464 172 464 80 l 464 555 l 90 498 l 71 628 l 464 689 l 464 1139 l 604 1139 l 604 711 l 1304 821 l 1325 689 l 604 576 l 604 171 q 612 104 604 127 q 644 73 620 81 q 715 65 667 65 z "},"万":{"ha":1389,"x_min":46,"x_max":1299,"o":"m 1299 939 l 576 939 q 572 811 574 876 q 562 682 569 747 l 1179 682 q 1179 659 1179 682 q 1178 623 1179 635 q 1153 269 1166 404 q 1122 62 1140 134 q 1076 -40 1103 -10 q 1020 -82 1050 -71 q 946 -97 989 -93 q 841 -101 906 -102 q 704 -96 775 -100 q 690 -32 702 -68 q 660 31 677 3 q 800 23 734 24 q 895 22 866 22 q 933 24 918 21 q 960 39 947 27 q 994 114 980 56 q 1019 280 1008 172 q 1039 557 1030 388 l 546 557 q 481 300 526 424 q 354 71 437 176 q 139 -111 272 -35 q 98 -56 125 -85 q 46 -7 71 -26 q 229 135 157 53 q 343 313 301 216 q 405 514 385 409 q 432 727 425 619 q 443 939 439 835 l 92 939 l 92 1065 l 1299 1065 l 1299 939 z "},"丈":{"ha":1389,"x_min":92,"x_max":1318,"o":"m 1300 779 l 907 779 q 862 455 898 601 q 734 199 825 310 q 988 80 843 125 q 1318 14 1133 35 q 1275 -45 1297 -8 q 1240 -110 1253 -81 q 637 102 859 -58 q 441 -14 557 36 q 165 -98 325 -64 q 134 -40 156 -74 q 92 14 113 -7 q 351 90 243 46 q 533 192 459 134 q 376 410 441 286 q 265 693 311 534 l 389 724 q 484 477 425 586 q 628 283 543 368 q 732 502 703 378 q 768 779 761 625 l 92 779 l 92 905 l 772 905 q 773 1021 773 962 q 774 1145 774 1081 l 914 1145 q 914 1022 914 1082 q 911 905 913 963 l 1300 905 l 1300 779 z "},"三":{"ha":1389,"x_min":96,"x_max":1291,"o":"m 175 1034 l 1217 1034 l 1217 901 l 175 901 l 175 1034 m 265 587 l 1108 587 l 1108 456 l 265 456 l 265 587 m 96 114 l 1291 114 l 1291 -17 l 96 -17 l 96 114 z "},"上":{"ha":1389,"x_min":74,"x_max":1317,"o":"m 720 87 l 1317 87 l 1317 -43 l 74 -43 l 74 87 l 581 87 l 581 1146 l 720 1146 l 720 733 l 1221 733 l 1221 604 l 720 604 l 720 87 z "},"下":{"ha":1389,"x_min":82,"x_max":1308,"o":"m 1308 933 l 734 933 l 734 699 l 758 726 q 885 662 818 698 q 1019 587 953 626 q 1144 511 1086 549 q 1242 443 1202 474 l 1147 325 q 1035 409 1103 363 q 888 503 966 455 q 734 591 810 550 l 734 -107 l 597 -107 l 597 933 l 82 933 l 82 1065 l 1308 1065 l 1308 933 z "},"不":{"ha":1389,"x_min":61,"x_max":1335,"o":"m 1289 939 l 856 939 q 811 867 833 903 q 764 796 789 831 l 764 -109 l 624 -109 l 624 621 q 404 413 524 509 q 150 245 284 317 q 108 306 134 272 q 61 361 82 340 q 311 518 193 426 q 524 718 428 610 q 686 939 619 826 l 100 939 l 100 1071 l 1289 1071 l 1289 939 m 770 644 l 867 728 q 991 642 925 689 q 1121 545 1057 595 q 1241 448 1185 495 q 1335 359 1297 400 l 1226 260 q 1138 349 1192 300 q 1022 450 1085 398 q 894 552 960 502 q 770 644 829 602 z "},"与":{"ha":1389,"x_min":82,"x_max":1244,"o":"m 939 346 l 939 222 l 82 222 l 82 346 l 939 346 m 393 639 l 1244 639 q 1243 616 1244 639 q 1239 579 1242 594 q 1201 259 1221 384 q 1158 65 1182 135 q 1101 -36 1133 -5 q 1038 -78 1072 -66 q 957 -92 1005 -89 q 848 -94 916 -95 q 705 -89 779 -93 q 690 -24 703 -61 q 657 40 677 12 q 810 31 737 33 q 917 29 884 29 q 959 32 942 29 q 990 46 976 35 q 1053 188 1025 75 q 1101 519 1080 300 l 228 519 q 262 654 244 578 q 297 814 279 730 q 331 981 315 898 q 358 1137 347 1064 l 490 1125 q 478 1057 484 1092 q 464 985 471 1021 l 1217 985 l 1217 861 l 440 861 q 416 746 429 803 q 393 639 404 690 z "},"丐":{"ha":1389,"x_min":100,"x_max":1295,"o":"m 1295 947 l 755 947 l 755 762 l 1214 762 l 1214 642 l 755 642 l 755 452 l 1278 452 q 1276 430 1278 452 q 1271 395 1274 408 q 1239 164 1256 256 q 1201 20 1223 73 q 1150 -60 1179 -34 q 1084 -98 1120 -88 q 994 -110 1048 -108 q 880 -111 953 -112 q 725 -106 806 -110 q 709 -42 723 -77 q 673 21 694 -6 q 790 13 732 16 q 895 9 848 10 q 965 8 942 8 q 1010 11 992 8 q 1043 22 1029 13 q 1093 117 1072 43 q 1131 328 1114 191 l 180 328 q 204 473 193 389 q 225 644 215 556 q 241 810 235 732 l 376 802 q 357 625 368 718 q 336 452 347 532 l 618 452 l 618 947 l 100 947 l 100 1071 l 1295 1071 l 1295 947 z "},"丑":{"ha":1389,"x_min":69,"x_max":1322,"o":"m 985 469 l 582 469 q 561 249 572 355 q 539 57 549 143 l 953 57 q 985 469 972 239 m 1004 961 l 623 961 q 609 785 616 877 q 593 600 602 692 l 990 600 q 999 783 996 692 q 1004 961 1002 875 m 1092 57 l 1322 57 l 1322 -69 l 69 -69 l 69 57 l 403 57 q 427 250 414 144 q 450 469 439 356 l 192 469 l 192 600 l 461 600 q 476 785 469 692 q 488 961 484 878 l 161 961 l 161 1090 l 1145 1090 q 1135 829 1141 966 q 1123 553 1130 692 q 1108 288 1116 415 q 1092 57 1100 161 z "},"专":{"ha":1389,"x_min":82,"x_max":1292,"o":"m 1292 633 l 558 633 q 536 562 547 597 q 515 494 525 528 l 1086 494 l 1108 501 l 1206 443 q 1041 274 1134 366 q 856 93 948 182 q 971 45 917 69 q 1067 -3 1026 20 l 990 -115 q 864 -49 939 -84 q 701 21 789 -14 q 524 86 614 56 q 354 139 435 117 l 425 236 q 570 195 494 218 q 724 143 646 171 q 846 260 784 200 q 961 374 908 321 l 330 374 q 374 494 351 429 q 421 633 397 560 l 82 633 l 82 757 l 460 757 q 481 828 470 792 q 503 900 492 865 l 193 900 l 193 1023 l 536 1023 q 554 1095 545 1060 q 572 1164 564 1131 l 710 1164 q 691 1095 701 1131 q 671 1023 682 1059 l 1192 1023 l 1192 900 l 637 900 q 615 828 626 865 q 595 757 605 792 l 1292 757 l 1292 633 z "},"且":{"ha":1389,"x_min":79,"x_max":1312,"o":"m 419 292 l 419 75 l 985 75 l 985 292 l 419 292 m 985 964 l 419 964 l 419 753 l 985 753 l 985 964 m 985 416 l 985 633 l 419 633 l 419 416 l 985 416 m 1118 75 l 1312 75 l 1312 -50 l 79 -50 l 79 75 l 292 75 l 292 1088 l 1118 1088 l 1118 75 z "},"世":{"ha":1389,"x_min":74,"x_max":1317,"o":"m 986 703 l 754 703 l 754 396 l 986 396 l 986 703 m 1121 277 l 625 277 l 625 703 l 403 703 l 403 98 l 1279 98 l 1279 -26 l 268 -26 l 268 703 l 74 703 l 74 827 l 268 827 l 268 1128 l 403 1128 l 403 827 l 625 827 l 625 1157 l 754 1157 l 754 827 l 986 827 l 986 1141 l 1121 1141 l 1121 827 l 1317 827 l 1317 703 l 1121 703 l 1121 277 z "},"丘":{"ha":1389,"x_min":69,"x_max":1320,"o":"m 418 546 l 418 87 l 897 87 l 897 546 l 418 546 m 1029 87 l 1320 87 l 1320 -39 l 69 -39 l 69 87 l 285 87 l 285 1017 q 496 1033 388 1023 q 710 1057 605 1042 q 906 1091 814 1072 q 1068 1135 998 1110 l 1147 1021 q 930 966 1052 989 q 677 929 809 943 q 418 907 545 915 l 418 672 l 1247 672 l 1247 546 l 1029 546 l 1029 87 z "},"丙":{"ha":1389,"x_min":97,"x_max":1289,"o":"m 1289 950 l 758 950 l 758 761 l 1249 761 l 1249 52 q 1234 -36 1249 -4 q 1178 -82 1219 -67 q 1075 -101 1139 -98 q 918 -104 1010 -104 q 901 -39 914 -76 q 873 25 887 -1 q 1003 22 941 22 q 1084 22 1065 22 q 1112 30 1105 23 q 1120 53 1120 36 l 1120 640 l 753 640 q 745 592 749 616 q 733 543 741 568 q 863 447 796 499 q 990 344 930 395 q 1088 253 1049 293 l 999 151 q 916 236 966 190 q 807 332 866 283 q 690 427 748 381 q 576 268 650 345 q 380 125 503 190 q 337 177 366 147 q 285 224 309 206 q 474 352 406 282 q 573 497 543 422 q 612 640 604 571 l 273 640 l 273 -109 l 144 -109 l 144 761 l 619 761 l 619 950 l 97 950 l 97 1078 l 1289 1078 l 1289 950 z "},"业":{"ha":1389,"x_min":85,"x_max":1305,"o":"m 1168 857 l 1286 800 q 1214 630 1253 718 q 1134 460 1175 542 q 1055 313 1093 378 l 949 368 q 1026 515 985 431 q 1105 688 1067 599 q 1168 857 1142 777 m 418 370 l 289 322 q 244 473 273 386 q 180 652 215 559 q 111 823 145 744 l 229 861 q 301 692 264 782 q 369 517 338 602 q 418 370 400 432 m 932 86 l 1305 86 l 1305 -41 l 85 -41 l 85 86 l 458 86 l 458 1147 l 590 1147 l 590 86 l 800 86 l 800 1146 l 932 1146 l 932 86 z "},"丛":{"ha":1389,"x_min":79,"x_max":1318,"o":"m 886 1152 l 1026 1143 q 1013 986 1021 1062 q 994 839 1005 909 q 1040 675 1013 760 q 1107 509 1068 590 q 1198 357 1146 427 q 1318 239 1251 288 q 1266 186 1295 221 q 1219 122 1237 151 q 1053 330 1120 205 q 943 583 986 454 q 836 313 903 433 q 665 102 768 193 q 636 134 656 115 q 595 173 616 154 q 557 204 573 193 q 743 436 675 297 q 842 754 810 574 q 886 1152 874 934 m 715 450 l 615 354 q 542 483 588 410 q 443 631 495 557 q 351 339 410 470 q 196 110 292 209 q 167 142 186 123 q 125 181 147 162 q 87 212 104 201 q 248 449 191 309 q 330 767 304 589 q 364 1153 355 945 l 503 1146 q 490 969 498 1054 q 472 804 483 884 q 566 683 519 747 q 651 558 612 619 q 715 450 690 498 m 79 -72 l 79 62 l 1314 62 l 1314 -72 l 79 -72 z "},"东":{"ha":1389,"x_min":98,"x_max":1311,"o":"m 346 364 l 475 329 q 354 115 426 219 q 207 -60 282 11 q 155 -17 189 -42 q 98 24 121 9 q 239 177 172 86 q 346 364 307 267 m 1214 463 l 825 463 l 825 56 q 811 -28 825 3 q 761 -74 798 -58 q 671 -94 726 -90 q 542 -98 616 -98 q 522 -32 536 -71 q 493 33 508 7 q 600 32 551 33 q 665 32 648 31 q 688 39 682 33 q 694 58 694 44 l 694 463 l 399 463 q 297 457 340 463 q 245 440 254 451 q 224 504 239 462 q 197 574 210 545 q 248 607 224 580 q 306 679 272 634 q 353 748 322 700 q 422 861 385 795 l 111 861 l 111 985 l 489 985 q 535 1078 513 1031 q 576 1174 557 1126 l 717 1121 q 684 1052 701 1086 q 650 985 667 1018 l 1275 985 l 1275 861 l 581 861 q 492 718 538 786 q 400 587 446 649 l 694 587 l 694 777 l 825 777 l 825 587 l 1214 587 l 1214 463 m 921 311 l 1029 364 q 1135 252 1080 313 q 1236 130 1190 191 q 1311 22 1283 70 l 1194 -40 q 1123 69 1168 7 q 1025 194 1078 131 q 921 311 972 258 z "},"丝":{"ha":1389,"x_min":75,"x_max":1312,"o":"m 899 343 l 1278 359 q 1271 300 1274 334 q 1268 245 1268 266 q 1008 230 1107 237 q 856 219 909 224 q 777 210 802 214 q 737 200 752 205 q 720 255 732 218 q 696 318 707 293 q 752 349 722 323 q 823 418 783 375 q 882 483 844 438 q 966 587 920 527 q 828 577 876 582 q 758 569 780 573 q 724 559 735 565 q 706 615 718 578 q 682 675 693 652 q 724 704 703 682 q 770 762 745 727 q 806 820 782 780 q 861 915 831 860 q 921 1034 891 970 q 975 1161 951 1097 l 1095 1114 q 982 892 1044 1002 q 854 693 919 783 l 1050 700 q 1119 804 1086 750 q 1183 911 1153 857 l 1297 850 q 1107 580 1210 711 q 899 343 1004 450 m 326 336 l 664 353 q 657 293 660 327 q 656 239 654 258 q 419 223 509 229 q 281 212 330 216 q 209 202 232 207 q 172 193 186 198 q 154 249 167 211 q 129 311 140 286 q 185 345 156 317 q 252 415 214 372 q 305 478 270 435 q 383 579 340 521 q 252 570 298 574 q 186 562 207 566 q 153 553 165 557 q 135 608 148 572 q 111 668 123 644 q 153 697 132 674 q 197 757 173 720 q 233 815 210 774 q 286 911 257 855 q 343 1032 315 968 q 395 1161 372 1097 l 518 1116 q 407 890 469 1002 q 281 686 345 778 l 461 693 q 532 804 498 746 q 595 921 566 863 l 711 860 q 528 582 627 717 q 326 336 429 446 m 75 83 l 1312 83 l 1312 -36 l 75 -36 l 75 83 z "},"丢":{"ha":1389,"x_min":85,"x_max":1303,"o":"m 1303 539 l 1303 418 l 603 418 l 661 395 q 533 238 601 314 q 395 100 465 163 l 1003 140 q 868 311 936 233 l 987 359 q 1100 226 1042 298 q 1205 82 1157 153 q 1280 -47 1253 10 l 1153 -103 q 1120 -40 1139 -74 q 1076 33 1101 -5 q 706 3 855 16 q 465 -17 557 -9 q 320 -31 372 -25 q 241 -43 268 -37 q 197 -56 215 -48 l 197 -54 q 179 6 192 -33 q 155 72 167 46 q 203 95 178 77 q 258 139 228 113 q 321 197 280 155 q 412 297 362 239 q 507 418 461 354 l 85 418 l 85 539 l 628 539 l 628 697 l 196 697 l 196 819 l 628 819 l 628 966 q 401 954 514 958 q 183 949 288 949 q 171 1009 181 974 q 150 1067 161 1044 q 412 1077 277 1069 q 677 1096 547 1084 q 921 1123 807 1107 q 1122 1160 1036 1139 l 1219 1047 q 760 979 1020 1002 l 760 819 l 1193 819 l 1193 697 l 760 697 l 760 539 l 1303 539 z "},"两":{"ha":1389,"x_min":89,"x_max":1304,"o":"m 802 779 l 802 949 l 582 949 l 582 779 l 802 779 m 1120 273 l 1120 657 l 928 657 q 924 593 927 626 q 917 526 921 559 q 1030 395 973 464 q 1120 273 1086 326 m 269 657 l 269 163 q 383 318 345 233 q 437 491 422 404 q 454 657 452 579 l 269 657 m 1304 949 l 929 949 l 929 779 l 1250 779 l 1250 43 q 1235 -43 1250 -12 q 1181 -89 1220 -75 q 1076 -109 1141 -104 q 920 -113 1012 -113 q 903 -46 916 -84 q 876 18 890 -9 q 1006 14 944 14 q 1086 14 1067 14 q 1112 21 1105 15 q 1120 46 1120 28 l 1120 254 l 1051 161 q 981 267 1025 207 q 888 386 937 327 q 820 221 863 302 q 707 71 777 140 q 665 119 691 92 q 615 161 638 146 q 729 317 690 231 q 783 490 768 402 q 800 657 798 578 l 581 657 q 577 592 580 626 q 570 524 574 558 q 647 430 609 478 q 705 346 686 382 l 629 243 q 591 306 614 270 q 539 379 567 342 q 471 217 514 296 q 359 71 429 138 q 318 118 344 92 q 269 160 292 144 l 269 -111 l 140 -111 l 140 779 l 456 779 l 456 949 l 89 949 l 89 1072 l 1304 1072 l 1304 949 z "},"严":{"ha":1389,"x_min":41,"x_max":1296,"o":"m 614 981 l 614 643 l 771 643 l 771 981 l 614 981 m 1296 643 l 1296 529 l 281 529 l 281 427 q 270 251 281 347 q 229 59 259 154 q 142 -113 199 -37 q 113 -80 132 -98 q 74 -45 94 -62 q 41 -21 54 -28 q 115 124 92 46 q 146 281 139 203 q 153 428 153 360 l 153 643 l 488 643 l 488 981 l 146 981 l 146 1093 l 1254 1093 l 1254 981 l 899 981 l 899 643 l 1296 643 m 425 705 l 309 664 q 267 786 297 715 q 201 916 237 857 l 313 953 q 381 826 350 895 q 425 705 412 758 m 1050 661 l 946 696 q 990 777 967 731 q 1033 869 1013 822 q 1067 954 1053 916 l 1200 917 q 1123 779 1164 849 q 1050 661 1083 709 z "},"丧":{"ha":1389,"x_min":78,"x_max":1332,"o":"m 1132 432 l 1232 357 q 1095 258 1169 307 q 954 171 1021 208 q 1332 9 1108 55 q 1289 -42 1312 -9 q 1253 -103 1265 -76 q 853 92 1007 -45 q 614 447 699 229 l 428 447 l 428 62 l 741 127 q 733 62 735 100 q 732 4 731 25 q 509 -46 594 -26 q 378 -77 425 -65 q 310 -96 332 -89 q 275 -111 288 -104 q 255 -52 270 -87 q 224 5 239 -16 q 269 37 245 14 q 293 102 293 60 l 293 447 l 78 447 l 78 564 l 625 564 l 625 901 l 123 901 l 123 1019 l 625 1019 l 625 1166 l 753 1166 l 753 1019 l 1267 1019 l 1267 901 l 753 901 l 753 564 l 1315 564 l 1315 447 l 741 447 q 873 243 790 330 q 1011 335 940 283 q 1132 432 1083 387 m 228 832 l 340 879 q 399 801 369 843 q 454 717 429 758 q 494 644 480 676 l 375 591 q 338 666 362 624 q 285 751 314 708 q 228 832 256 795 m 961 586 l 861 629 q 919 707 889 663 q 976 797 949 751 q 1021 880 1003 842 l 1152 832 q 1055 699 1105 766 q 961 586 1005 632 z "},"个":{"ha":1389,"x_min":49,"x_max":1346,"o":"m 627 -109 l 627 742 l 760 742 l 760 -109 l 627 -109 m 699 1166 l 814 1112 q 795 1079 804 1096 q 774 1047 785 1063 q 1061 796 918 891 q 1346 637 1205 701 q 1293 582 1320 616 q 1251 517 1266 548 q 981 684 1116 585 q 697 945 846 783 q 441 700 585 808 q 144 519 298 591 q 102 582 127 547 q 49 642 76 616 q 302 773 179 694 q 527 950 425 851 q 699 1166 629 1050 z "},"丫":{"ha":1389,"x_min":187,"x_max":1211,"o":"m 187 1064 l 286 1143 q 417 1047 348 1101 q 546 940 486 994 q 644 842 607 886 l 538 751 q 445 850 503 795 q 319 962 387 906 q 187 1064 251 1018 m 1078 1137 l 1211 1082 q 1064 935 1143 1012 q 906 786 985 859 q 762 656 828 713 l 762 -110 l 627 -110 l 627 711 l 629 711 l 627 713 q 772 841 692 768 q 932 992 852 915 q 1078 1137 1013 1070 z "},"中":{"ha":1389,"x_min":135,"x_max":1254,"o":"m 758 460 l 1120 460 l 1120 796 l 758 796 l 758 460 m 264 460 l 624 460 l 624 796 l 264 796 l 264 460 m 758 922 l 1254 922 l 1254 258 l 1120 258 l 1120 334 l 758 334 l 758 -109 l 624 -109 l 624 334 l 264 334 l 264 252 l 135 252 l 135 922 l 624 922 l 624 1164 l 758 1164 l 758 922 z "},"丰":{"ha":1389,"x_min":78,"x_max":1314,"o":"m 1314 343 l 1314 214 l 762 214 l 762 -107 l 625 -107 l 625 214 l 78 214 l 78 343 l 625 343 l 625 538 l 196 538 l 196 661 l 625 661 l 625 838 l 126 838 l 126 965 l 625 965 l 625 1165 l 762 1165 l 762 965 l 1260 965 l 1260 838 l 762 838 l 762 661 l 1197 661 l 1197 538 l 762 538 l 762 343 l 1314 343 z "},"串":{"ha":1389,"x_min":143,"x_max":1253,"o":"m 760 227 l 1114 227 l 1114 399 l 760 399 l 760 227 m 278 227 l 621 227 l 621 399 l 278 399 l 278 227 m 330 732 l 621 732 l 621 896 l 330 896 l 330 732 m 1053 896 l 760 896 l 760 732 l 1053 732 l 1053 896 m 760 518 l 1253 518 l 1253 57 l 1114 57 l 1114 111 l 760 111 l 760 -110 l 621 -110 l 621 111 l 278 111 l 278 56 l 143 56 l 143 518 l 621 518 l 621 619 l 199 619 l 199 1008 l 621 1008 l 621 1165 l 760 1165 l 760 1008 l 1193 1008 l 1193 619 l 760 619 l 760 518 z "},"临":{"ha":1389,"x_min":113,"x_max":1318,"o":"m 113 60 l 113 1004 l 233 1004 l 233 60 l 113 60 m 343 -97 l 343 1149 l 471 1149 l 471 -97 l 343 -97 m 879 403 l 718 403 l 718 81 l 879 81 l 879 403 m 1156 81 l 1156 403 l 997 403 l 997 81 l 1156 81 m 593 -110 l 593 526 l 1284 526 l 1284 -103 l 1156 -103 l 1156 -39 l 718 -39 l 718 -110 l 593 -110 m 1129 656 l 1042 562 q 977 627 1017 589 q 893 704 938 664 q 807 777 848 743 l 892 851 q 978 785 933 821 q 1063 715 1023 749 q 1129 656 1103 682 m 811 1010 l 1318 1010 l 1318 885 l 762 885 q 596 614 690 721 q 542 651 577 629 q 482 686 507 673 q 630 901 568 772 q 726 1173 692 1029 l 852 1147 q 834 1078 844 1113 q 811 1010 823 1043 z "},"丸":{"ha":1389,"x_min":45,"x_max":1361,"o":"m 1093 39 l 1193 39 q 1221 58 1211 39 q 1234 131 1230 77 q 1240 288 1238 184 q 1299 253 1263 269 q 1361 229 1335 237 q 1341 40 1356 109 q 1295 -59 1326 -30 q 1206 -89 1263 -89 l 1069 -89 q 981 -72 1013 -89 q 935 -14 948 -56 q 921 103 921 28 l 921 746 l 635 746 q 614 582 627 663 q 578 424 601 500 q 704 330 646 377 q 803 243 762 283 l 705 138 q 628 211 673 172 q 529 292 583 251 q 380 67 474 170 q 139 -111 287 -36 q 97 -57 124 -87 q 45 -9 71 -26 q 279 159 191 60 q 416 375 368 257 q 174 530 294 462 l 262 623 q 359 566 309 596 q 460 504 409 536 q 484 623 474 562 q 498 746 494 684 l 121 746 l 121 872 l 505 872 q 509 1017 509 944 q 510 1161 510 1089 l 647 1161 q 646 1017 647 1089 q 642 872 645 944 l 1054 872 l 1054 102 q 1061 49 1054 60 q 1093 39 1068 39 z "},"丹":{"ha":1389,"x_min":50,"x_max":1314,"o":"m 518 851 l 608 924 q 703 849 654 890 q 797 768 753 808 q 868 694 840 727 l 771 611 q 702 686 745 644 q 610 772 659 729 q 518 851 562 816 m 399 570 l 1003 570 l 1003 979 l 400 979 l 400 628 q 400 598 400 613 q 399 570 399 584 m 1314 570 l 1314 446 l 1133 446 l 1133 50 q 1116 -42 1133 -10 q 1059 -89 1099 -73 q 947 -108 1017 -104 q 772 -111 878 -111 q 753 -48 767 -85 q 725 16 740 -11 q 825 12 776 12 q 910 11 873 11 q 962 12 947 12 q 994 21 985 14 q 1003 50 1003 29 l 1003 446 l 392 446 q 357 247 382 348 q 280 54 331 146 q 146 -111 230 -38 q 101 -63 132 -92 q 50 -21 71 -33 q 166 121 123 44 q 232 281 210 198 q 262 446 254 364 l 78 446 l 78 570 l 271 570 q 271 598 271 584 q 271 628 271 613 l 271 1100 l 1133 1100 l 1133 570 l 1314 570 z "},"为":{"ha":1389,"x_min":79,"x_max":1253,"o":"m 471 924 l 351 871 q 293 972 332 913 q 215 1080 254 1031 l 326 1128 q 409 1024 367 1082 q 471 924 450 966 m 684 838 l 1253 838 q 1253 812 1253 838 q 1251 774 1253 787 q 1236 428 1244 570 q 1218 194 1228 286 q 1194 48 1208 101 q 1158 -29 1179 -5 q 1103 -76 1133 -62 q 1035 -93 1074 -89 q 937 -97 997 -98 q 815 -93 878 -96 q 801 -27 813 -65 q 770 40 788 11 q 894 34 837 35 q 978 33 951 33 q 1012 37 1000 33 q 1038 54 1025 41 q 1072 145 1058 75 q 1096 353 1086 216 q 1114 708 1105 490 l 671 708 q 627 503 658 608 q 541 294 597 398 q 397 94 485 191 q 182 -87 309 -3 q 135 -38 166 -66 q 79 7 104 -9 q 329 224 235 106 q 471 466 423 342 q 538 708 519 590 l 115 708 l 115 838 l 553 838 q 557 989 557 917 l 557 1161 l 688 1161 l 688 989 q 684 838 688 917 m 972 297 l 859 237 q 813 320 842 273 q 750 415 784 367 q 682 504 715 463 l 791 555 q 861 470 826 516 q 925 378 896 423 q 972 297 955 332 z "},"主":{"ha":1389,"x_min":82,"x_max":1312,"o":"m 765 62 l 1312 62 l 1312 -64 l 82 -64 l 82 62 l 624 62 l 624 370 l 211 370 l 211 494 l 624 494 l 624 771 l 144 771 l 144 897 l 728 897 q 623 997 685 943 q 504 1090 562 1050 l 610 1164 q 704 1096 654 1134 q 797 1018 753 1057 q 869 946 841 979 l 802 897 l 1243 897 l 1243 771 l 765 771 l 765 494 l 1182 494 l 1182 370 l 765 370 l 765 62 z "},"丽":{"ha":1389,"x_min":77,"x_max":1314,"o":"m 273 546 l 374 585 q 425 492 399 541 q 474 395 451 442 q 511 313 496 349 l 406 265 q 371 351 393 302 q 323 451 349 399 q 273 546 297 502 m 639 840 l 639 40 q 628 -35 639 -7 q 587 -79 618 -64 q 514 -99 557 -95 q 407 -103 471 -103 q 394 -40 404 -77 q 371 22 385 -4 q 444 20 410 20 q 489 21 477 20 q 511 43 511 21 l 511 722 l 268 722 l 268 -110 l 147 -110 l 147 840 l 639 840 m 1251 840 l 1251 39 q 1241 -37 1251 -9 q 1200 -81 1230 -66 q 1122 -100 1168 -96 q 1008 -103 1076 -103 q 996 -42 1005 -78 q 975 18 987 -6 q 1051 17 1015 17 q 1100 17 1088 17 q 1122 40 1122 18 l 1122 722 l 865 722 l 865 -110 l 745 -110 l 745 840 l 1251 840 m 1111 306 l 1011 260 q 975 344 998 296 q 926 442 952 392 q 875 534 899 492 l 972 572 q 1024 481 998 530 q 1074 387 1051 433 q 1111 306 1097 341 m 77 1088 l 1314 1088 l 1314 964 l 77 964 l 77 1088 z "},"举":{"ha":1389,"x_min":41,"x_max":1350,"o":"m 779 962 l 663 909 q 613 1014 648 952 q 542 1125 579 1075 l 650 1173 q 725 1065 688 1124 q 779 962 762 1006 m 761 415 l 761 267 l 1271 267 l 1271 146 l 761 146 l 761 -110 l 631 -110 l 631 146 l 132 146 l 132 267 l 631 267 l 631 415 l 335 415 l 335 534 l 631 534 l 631 694 l 761 694 l 761 534 l 1061 534 l 1061 415 l 761 415 m 1311 783 l 1000 783 q 1157 625 1063 698 q 1350 511 1250 552 q 1303 463 1329 494 q 1264 407 1278 432 q 1040 565 1146 465 q 867 783 935 666 l 533 783 q 357 555 466 659 q 123 393 249 452 q 85 446 110 416 q 41 494 60 475 q 243 614 148 537 q 400 783 338 690 l 81 783 l 81 900 l 340 900 q 283 992 319 941 q 211 1083 247 1043 l 321 1139 q 405 1037 363 1093 q 467 937 447 981 l 395 900 l 875 900 q 933 977 903 934 q 990 1065 963 1021 q 1036 1149 1017 1110 l 1174 1105 q 1097 999 1138 1053 q 1018 900 1055 945 l 1311 900 l 1311 783 z "},"乃":{"ha":1389,"x_min":40,"x_max":1249,"o":"m 920 593 l 1249 593 q 1248 570 1249 593 q 1246 533 1247 547 q 1226 242 1237 354 q 1200 68 1216 130 q 1160 -20 1185 7 q 1100 -61 1133 -50 q 1022 -75 1067 -72 q 916 -79 983 -79 q 777 -75 848 -78 q 758 -6 773 -45 q 722 61 743 32 q 870 53 800 55 q 971 52 939 52 q 1008 54 994 52 q 1036 68 1023 56 q 1076 183 1061 89 q 1101 468 1091 277 l 729 468 q 777 611 752 531 q 824 779 801 692 q 868 951 848 867 l 478 951 l 478 905 q 472 726 478 825 q 449 519 467 627 q 394 300 431 411 q 297 84 358 190 q 144 -114 237 -22 q 96 -57 127 -90 q 40 -7 65 -24 q 209 219 147 98 q 299 464 270 340 q 336 702 328 587 q 345 907 345 816 l 345 951 l 132 951 l 132 1078 l 1042 1078 q 982 833 1014 962 q 920 593 949 703 z "},"久":{"ha":1389,"x_min":47,"x_max":1343,"o":"m 873 956 l 966 913 q 909 723 942 814 q 836 553 877 633 q 959 327 884 433 q 1131 139 1034 221 q 1343 8 1227 56 q 1292 -46 1319 -12 q 1249 -107 1264 -80 q 966 105 1089 -30 q 760 414 843 240 q 490 97 643 229 q 163 -113 336 -35 q 118 -52 149 -87 q 62 3 86 -16 q 373 185 229 71 q 625 456 517 298 q 794 818 733 614 l 465 818 q 325 596 401 699 q 163 418 249 494 q 130 450 151 431 q 86 486 109 469 q 47 514 64 503 q 291 795 186 623 q 457 1165 397 966 l 597 1132 q 565 1039 582 1085 q 528 949 547 994 l 848 949 l 873 956 z "},"么":{"ha":1389,"x_min":82,"x_max":1318,"o":"m 603 1153 l 736 1104 q 578 884 668 996 q 388 671 489 772 q 183 492 287 570 q 135 540 165 511 q 82 585 105 568 q 282 753 183 656 q 465 954 382 849 q 603 1153 549 1058 m 1318 -24 l 1194 -92 q 1122 49 1166 -30 q 734 17 890 29 q 480 -4 578 4 q 327 -17 382 -12 q 244 -27 272 -22 q 199 -39 216 -33 q 175 23 191 -18 q 144 92 159 64 q 224 134 179 100 q 334 224 269 168 q 434 318 369 253 q 582 473 500 382 q 751 672 665 564 q 916 893 838 779 l 1050 828 q 733 438 897 616 q 408 121 569 260 l 1050 168 q 879 414 968 302 l 997 471 q 1121 305 1059 394 q 1235 131 1183 216 q 1318 -24 1286 45 z "},"义":{"ha":1389,"x_min":53,"x_max":1337,"o":"m 817 839 l 697 790 q 662 894 685 836 q 612 1014 639 953 q 559 1129 585 1076 l 671 1169 q 726 1057 698 1117 q 778 941 753 998 q 817 839 802 884 m 1088 1063 l 1221 1022 q 1046 629 1149 812 q 798 296 944 446 q 1047 126 912 200 q 1337 8 1181 53 q 1290 -47 1316 -12 q 1249 -109 1263 -82 q 949 21 1087 -57 q 694 201 811 99 q 439 26 581 104 q 122 -111 297 -53 q 91 -53 111 -86 q 53 1 71 -20 q 355 127 220 54 q 602 292 491 200 q 370 596 470 428 q 199 958 271 764 l 319 996 q 478 666 383 821 q 700 385 574 512 q 933 695 840 524 q 1088 1063 1027 867 z "},"之":{"ha":1389,"x_min":71,"x_max":1335,"o":"m 471 126 l 489 115 q 642 62 553 74 q 843 50 730 50 q 1008 54 919 50 q 1182 63 1097 57 q 1335 78 1268 69 q 1311 9 1323 52 q 1297 -61 1299 -34 q 1202 -66 1259 -64 q 1080 -71 1145 -68 q 951 -74 1015 -73 q 838 -75 888 -75 q 624 -60 711 -75 q 465 -1 536 -44 q 389 53 422 26 q 334 81 356 81 q 284 55 312 81 q 227 -11 257 30 q 165 -96 196 -51 l 71 25 q 212 153 142 102 q 338 203 281 203 q 353 201 347 203 q 592 367 472 271 q 817 568 711 463 q 999 772 922 673 l 140 772 l 140 899 l 703 899 q 639 1005 677 945 q 566 1114 601 1065 l 681 1175 q 736 1099 707 1140 q 791 1020 766 1059 q 833 951 817 981 l 742 899 l 1097 899 l 1122 905 l 1221 842 q 1072 647 1157 745 q 887 454 986 549 q 682 277 788 360 q 471 126 576 193 z "},"乌":{"ha":1389,"x_min":83,"x_max":1283,"o":"m 1040 281 l 1040 167 l 83 167 l 83 281 l 1040 281 m 387 534 l 1283 534 q 1283 514 1283 534 q 1282 481 1283 494 q 1265 198 1274 307 q 1243 32 1257 90 q 1208 -50 1230 -26 q 1158 -86 1185 -76 q 1095 -100 1131 -96 q 1004 -104 1060 -104 q 886 -100 949 -103 q 872 -39 884 -73 q 843 21 861 -4 q 962 15 907 16 q 1043 14 1018 14 q 1075 16 1062 13 q 1099 29 1088 19 q 1132 139 1120 50 q 1154 419 1145 229 l 262 419 l 262 1025 l 534 1025 q 565 1099 551 1059 q 587 1171 579 1139 l 726 1156 q 694 1087 711 1121 q 661 1025 677 1054 l 1161 1025 q 1159 1004 1161 1025 q 1156 968 1158 983 q 1128 755 1144 824 q 1088 660 1112 687 q 1041 630 1067 639 q 983 619 1015 621 q 902 619 953 618 q 794 624 850 619 q 785 679 793 648 q 766 732 777 709 q 864 726 819 727 q 929 725 910 725 q 960 727 948 725 q 979 739 971 730 q 1001 791 991 751 q 1019 908 1011 830 l 387 908 l 387 534 z "},"乍":{"ha":1389,"x_min":57,"x_max":1307,"o":"m 1307 810 l 676 810 l 676 628 l 1225 628 l 1225 504 l 676 504 l 676 318 l 1251 318 l 1251 192 l 676 192 l 676 -110 l 542 -110 l 542 810 l 393 810 q 288 648 343 723 q 176 514 233 573 q 120 556 157 530 q 57 597 83 583 q 197 755 130 664 q 320 953 264 847 q 415 1168 376 1059 l 550 1132 q 509 1033 530 1082 q 463 936 488 984 l 1307 936 l 1307 810 z "},"乎":{"ha":1389,"x_min":78,"x_max":1315,"o":"m 1315 519 l 1315 387 l 778 387 l 778 57 q 759 -40 778 -7 q 696 -87 740 -73 q 580 -107 652 -103 q 400 -111 507 -111 q 377 -44 394 -83 q 345 22 361 -5 q 451 19 399 20 q 541 18 503 18 q 596 18 580 18 q 629 27 618 19 q 639 57 639 36 l 639 387 l 78 387 l 78 519 l 639 519 l 639 951 q 412 937 526 942 q 193 928 298 931 q 182 987 192 953 q 163 1044 172 1021 q 422 1058 288 1049 q 685 1080 555 1067 q 929 1109 814 1093 q 1133 1149 1044 1126 l 1198 1032 q 778 964 1018 989 l 778 519 l 1315 519 m 221 852 l 334 893 q 386 794 360 847 q 433 692 412 742 q 464 603 454 642 l 345 555 q 316 646 336 595 q 272 751 296 697 q 221 852 247 806 m 1036 559 l 929 603 q 980 701 954 645 q 1030 813 1006 756 q 1069 920 1053 871 l 1208 873 q 1121 706 1166 791 q 1036 559 1075 620 z "},"乏":{"ha":1389,"x_min":64,"x_max":1344,"o":"m 1156 1146 l 1247 1036 q 1014 991 1143 1010 q 744 959 885 972 q 461 938 604 946 q 186 926 319 930 q 174 986 184 950 q 155 1043 164 1021 q 424 1056 286 1048 q 697 1078 563 1065 q 949 1107 831 1090 q 1156 1146 1067 1124 m 777 754 l 659 690 q 606 787 641 729 q 539 893 570 845 l 652 947 q 720 847 684 903 q 777 754 757 791 m 1120 696 l 1217 628 q 1017 431 1133 529 q 767 247 901 333 q 498 96 634 160 q 647 49 562 60 q 840 39 731 39 q 1013 42 922 39 q 1191 53 1104 46 q 1344 68 1277 59 q 1320 -1 1332 42 q 1305 -71 1308 -44 q 1210 -76 1268 -73 q 1084 -81 1152 -79 q 952 -85 1017 -83 q 835 -86 886 -86 q 607 -69 697 -86 q 444 -4 517 -52 q 364 59 399 27 q 307 92 329 92 q 265 62 288 92 q 217 -12 242 33 q 165 -106 192 -57 l 64 22 q 200 164 136 113 q 311 215 264 215 q 351 204 333 215 q 392 175 370 193 q 606 285 499 222 q 808 420 713 349 q 975 562 903 492 l 171 562 l 171 689 l 1095 689 l 1120 696 z "},"乐":{"ha":1389,"x_min":56,"x_max":1332,"o":"m 322 390 l 447 349 q 360 214 408 283 q 260 84 311 146 q 163 -25 209 22 q 111 17 144 -8 q 56 57 77 42 q 152 154 103 99 q 245 270 201 210 q 322 390 289 331 m 1279 493 l 790 493 l 790 52 q 775 -37 790 -6 q 724 -82 761 -67 q 627 -102 686 -98 q 479 -106 568 -106 q 462 -40 475 -79 q 435 25 450 -2 q 551 23 497 23 q 624 24 606 22 q 650 30 642 24 q 657 53 657 35 l 657 493 l 350 493 q 240 488 286 493 q 184 473 195 483 q 165 532 178 494 q 140 593 152 569 q 167 621 156 598 q 187 682 178 644 q 204 766 193 705 q 223 907 214 827 q 233 1067 233 987 q 478 1076 352 1069 q 728 1093 605 1082 q 959 1118 850 1103 q 1150 1153 1067 1133 l 1219 1038 q 962 993 1105 1010 q 663 965 818 975 q 359 951 508 956 q 337 782 351 867 q 304 623 322 696 l 657 623 l 657 884 l 790 884 l 790 623 l 1280 623 l 1279 493 m 951 340 l 1064 387 q 1162 272 1111 335 q 1259 147 1214 208 q 1332 37 1304 85 l 1211 -21 q 1142 89 1185 26 q 1049 218 1099 152 q 951 340 999 284 z "},"乒":{"ha":1389,"x_min":71,"x_max":1318,"o":"m 486 241 l 602 164 q 472 67 545 117 q 322 -25 399 18 q 175 -102 245 -69 q 134 -54 159 -81 q 86 -7 108 -26 q 231 65 155 23 q 375 154 307 108 q 486 241 442 201 m 439 673 l 439 385 l 875 385 l 875 673 l 439 673 m 1007 385 l 1318 385 l 1318 264 l 71 264 l 71 385 l 307 385 l 307 1079 q 593 1098 446 1086 q 874 1125 740 1109 q 1109 1162 1009 1141 l 1178 1044 q 952 1010 1076 1025 q 698 985 829 996 q 439 970 566 975 l 439 794 l 1243 794 l 1243 673 l 1007 673 l 1007 385 z "},"乓":{"ha":1389,"x_min":71,"x_max":1318,"o":"m 804 153 l 903 233 q 1042 153 966 197 q 1186 63 1117 108 q 1301 -18 1255 18 l 1196 -110 q 1086 -28 1154 -75 q 944 66 1019 18 q 804 153 869 114 m 439 673 l 439 385 l 875 385 l 875 673 l 439 673 m 1007 385 l 1318 385 l 1318 264 l 71 264 l 71 385 l 307 385 l 307 1079 q 593 1098 446 1086 q 874 1125 740 1109 q 1109 1162 1009 1141 l 1178 1044 q 952 1010 1076 1025 q 698 985 829 996 q 439 970 566 975 l 439 794 l 1243 794 l 1243 673 l 1007 673 l 1007 385 z "},"乔":{"ha":1389,"x_min":41,"x_max":1343,"o":"m 1308 708 l 956 708 q 1127 562 1026 626 q 1343 464 1227 498 q 1294 412 1319 444 q 1254 353 1269 379 q 974 517 1098 409 l 974 -110 l 842 -110 l 842 519 l 971 519 q 882 608 923 561 q 806 708 840 655 l 585 708 q 412 518 511 602 l 530 518 l 530 368 q 521 243 530 308 q 482 115 511 178 q 395 -7 453 51 q 239 -114 336 -66 q 193 -63 223 -92 q 139 -17 162 -33 q 279 72 227 24 q 357 171 332 119 q 392 273 383 222 q 400 372 400 324 l 400 507 q 273 417 340 458 q 132 342 206 376 q 91 398 119 363 q 41 453 62 433 q 421 708 274 541 l 79 708 l 79 832 l 510 832 q 578 974 551 899 q 373 964 475 967 q 175 961 271 961 q 165 1016 174 983 q 147 1069 157 1050 q 412 1078 276 1072 q 679 1094 548 1084 q 925 1117 810 1103 q 1126 1147 1040 1130 l 1218 1046 q 987 1009 1114 1025 q 724 983 860 994 q 659 832 694 904 l 1308 832 l 1308 708 z "},"乖":{"ha":1389,"x_min":69,"x_max":1329,"o":"m 375 593 l 375 705 l 498 705 l 498 129 l 375 129 l 375 243 q 245 193 309 218 q 125 147 181 168 l 69 264 q 208 305 127 281 q 375 357 288 329 l 375 479 l 104 479 l 104 593 l 375 593 m 1307 760 l 760 760 l 760 -110 l 624 -110 l 624 760 l 86 760 l 86 878 l 624 878 l 624 991 q 406 980 514 985 q 196 975 298 976 q 185 1030 195 998 q 167 1082 176 1062 q 420 1092 290 1086 q 676 1108 550 1099 q 912 1130 802 1118 q 1108 1158 1023 1143 l 1194 1053 q 989 1024 1101 1037 q 760 1002 878 1010 l 760 878 l 1307 878 l 1307 760 m 1050 249 l 1175 249 q 1200 259 1191 249 q 1213 299 1208 269 q 1219 390 1217 329 q 1271 361 1238 374 q 1329 342 1304 348 q 1308 216 1323 260 q 1264 154 1293 171 q 1186 136 1235 136 l 1032 136 q 939 150 972 136 q 894 198 907 164 q 882 293 882 233 l 882 704 l 1006 704 l 1006 538 q 1116 597 1063 565 q 1207 657 1169 629 l 1297 562 q 1158 490 1235 524 q 1006 427 1080 456 l 1006 294 q 1014 257 1006 265 q 1050 249 1022 249 z "},"乘":{"ha":1389,"x_min":50,"x_max":1337,"o":"m 885 732 l 1003 732 l 1003 604 q 1099 644 1052 623 q 1179 685 1146 665 l 1257 589 q 1133 543 1200 565 q 1003 501 1065 520 l 1003 414 q 1011 381 1003 388 q 1046 375 1019 375 l 1160 375 q 1191 391 1183 375 q 1202 469 1198 407 q 1249 443 1218 455 q 1305 425 1280 430 q 1267 298 1295 330 q 1174 267 1238 267 l 1029 267 q 940 279 971 267 q 897 324 908 292 q 885 412 885 355 l 885 732 m 761 765 l 761 452 q 908 278 819 359 q 1107 135 997 197 q 1337 39 1217 73 q 1292 -12 1316 20 q 1254 -69 1267 -45 q 982 71 1108 -20 q 761 279 856 161 l 761 -109 l 627 -109 l 627 275 q 405 72 530 159 q 135 -65 279 -16 q 95 -8 120 -40 q 50 43 71 23 q 279 138 170 77 q 476 278 389 199 l 380 278 l 380 336 q 244 313 311 325 q 118 290 178 300 l 93 397 q 225 415 151 404 q 380 437 300 425 l 380 541 l 136 541 l 136 642 l 380 642 l 380 729 l 501 729 l 501 301 q 570 375 538 337 q 627 453 602 413 l 627 765 l 96 765 l 96 882 l 627 882 l 627 986 q 414 975 520 979 q 210 970 309 970 q 200 1026 209 994 q 182 1079 191 1059 q 431 1090 302 1083 q 685 1107 559 1097 q 922 1131 810 1117 q 1121 1161 1034 1144 l 1178 1050 q 982 1020 1089 1034 q 761 997 876 1006 l 761 882 l 1293 882 l 1293 765 l 761 765 z "},"乙":{"ha":1389,"x_min":126,"x_max":1307,"o":"m 437 82 l 1042 82 q 1117 104 1090 82 q 1157 188 1144 125 q 1175 370 1170 250 q 1240 340 1202 354 q 1307 321 1277 327 q 1281 135 1299 208 q 1231 21 1263 62 q 1148 -36 1198 -20 q 1028 -52 1099 -52 l 452 -52 q 206 6 286 -52 q 126 164 126 64 q 133 220 126 191 q 160 288 139 250 q 227 379 182 326 q 349 507 272 433 q 543 684 426 582 q 827 924 660 787 l 139 924 l 139 1057 l 1014 1057 l 1044 1064 l 1137 999 q 1127 988 1133 994 q 1112 979 1121 983 q 772 705 913 821 q 538 506 631 588 q 390 367 445 423 q 309 275 335 311 q 274 216 282 239 q 267 175 267 193 q 312 104 267 126 q 437 82 358 82 z "},"九":{"ha":1389,"x_min":47,"x_max":1356,"o":"m 1067 37 l 1186 37 q 1214 53 1204 37 q 1227 112 1223 68 q 1234 241 1232 156 q 1293 207 1257 223 q 1356 183 1329 191 q 1334 21 1350 81 q 1286 -65 1318 -39 q 1198 -90 1254 -90 l 1044 -90 q 951 -74 985 -90 q 901 -16 916 -57 q 886 100 886 26 l 886 689 l 600 689 q 539 369 584 519 q 400 97 494 219 q 142 -110 306 -24 q 99 -54 127 -85 q 47 -5 72 -23 q 282 173 197 68 q 408 409 368 278 q 463 689 449 539 l 114 689 l 114 819 l 471 819 q 474 981 474 899 q 475 1149 475 1063 l 615 1149 q 613 981 614 1064 q 608 819 612 899 l 1021 819 l 1021 98 q 1028 48 1021 58 q 1067 37 1036 37 z "},"乞":{"ha":1389,"x_min":54,"x_max":1305,"o":"m 1289 864 l 386 864 q 280 725 335 790 q 168 610 224 660 q 114 659 149 629 q 54 705 79 688 q 251 908 159 786 q 400 1165 342 1031 l 534 1124 q 503 1057 520 1090 q 467 991 486 1024 l 1289 991 l 1289 864 m 476 50 l 1074 49 q 1133 62 1110 49 q 1166 116 1155 75 q 1181 240 1177 157 q 1242 212 1208 224 q 1305 195 1276 201 q 1270 21 1296 80 q 1195 -59 1244 -38 q 1061 -79 1145 -79 l 489 -79 q 278 -32 346 -79 q 210 96 210 15 q 217 148 210 121 q 250 211 224 176 q 334 295 277 246 q 488 412 391 344 q 737 572 586 479 l 290 572 l 290 696 l 966 696 l 996 700 l 1089 633 q 1077 622 1084 628 q 1063 612 1071 616 q 730 418 861 498 q 521 285 598 338 q 406 199 444 232 q 358 145 369 165 q 347 109 347 124 q 381 64 347 77 q 476 50 416 50 z "},"也":{"ha":1389,"x_min":46,"x_max":1321,"o":"m 576 35 l 1034 35 q 1129 53 1097 35 q 1176 122 1161 71 q 1200 268 1190 172 q 1259 238 1224 252 q 1321 218 1294 224 q 1283 39 1309 105 q 1201 -54 1257 -26 q 1039 -82 1144 -82 l 578 -82 q 405 -62 467 -82 q 316 9 342 -42 q 290 157 290 61 l 290 557 l 81 492 l 46 610 l 290 686 l 290 1069 l 416 1069 l 416 724 l 672 804 l 672 1162 l 800 1162 l 800 843 l 1089 932 l 1103 943 l 1128 962 l 1221 921 l 1214 897 q 1202 578 1211 703 q 1171 393 1193 452 q 1123 315 1152 339 q 1059 282 1095 290 q 978 274 1025 276 q 893 272 930 271 q 881 332 891 295 q 860 392 871 369 q 932 388 893 389 q 989 387 971 387 q 1028 399 1012 387 q 1057 449 1044 410 q 1077 579 1070 489 q 1086 807 1084 669 l 800 717 l 800 192 l 672 192 l 672 677 l 416 597 l 416 154 q 428 79 416 105 q 475 44 440 54 q 576 35 509 35 z "},"习":{"ha":1389,"x_min":142,"x_max":1239,"o":"m 961 475 l 985 355 q 702 254 846 305 q 426 156 559 203 q 187 72 294 110 l 142 203 q 375 277 240 233 q 662 373 510 321 q 961 475 813 424 m 318 771 l 404 854 q 530 765 463 814 q 660 669 598 717 q 762 585 722 621 l 671 486 q 573 574 633 524 q 445 676 513 624 q 318 771 377 728 m 1239 1074 l 1239 1003 q 1231 553 1235 736 q 1218 254 1226 370 q 1197 75 1211 138 q 1164 -17 1184 12 q 1108 -72 1138 -55 q 1038 -93 1078 -88 q 929 -96 995 -97 q 802 -93 864 -95 q 789 -31 802 -67 q 760 31 777 5 q 896 24 836 25 q 986 24 956 24 q 1043 47 1021 22 q 1078 169 1065 71 q 1096 458 1090 267 q 1107 950 1103 648 l 164 950 l 164 1074 l 1239 1074 z "},"乡":{"ha":1389,"x_min":98,"x_max":1253,"o":"m 1112 635 l 1253 590 q 1003 241 1158 378 q 638 21 848 103 q 171 -107 429 -62 q 139 -42 161 -82 q 98 22 117 -2 q 605 149 385 62 q 965 395 825 235 q 651 369 778 380 q 445 350 525 358 q 320 336 366 342 q 250 325 274 330 q 210 314 226 319 q 191 374 205 334 q 165 443 178 415 q 254 469 207 448 q 371 526 302 490 q 494 594 412 546 q 675 707 576 642 q 473 690 550 697 q 354 677 397 683 q 291 668 311 672 q 257 660 270 664 q 238 720 252 680 q 214 787 225 760 q 271 808 242 791 q 338 851 299 825 q 397 896 358 865 q 486 969 437 926 q 586 1062 535 1011 q 682 1165 637 1112 l 803 1090 q 638 937 724 1011 q 465 802 553 863 l 844 827 q 929 893 887 859 q 1011 962 970 928 l 1126 875 q 832 657 983 756 q 529 479 682 558 l 1054 517 q 1085 574 1071 544 q 1112 635 1099 604 z "},"书":{"ha":1389,"x_min":89,"x_max":1322,"o":"m 1322 945 l 1242 846 q 1168 908 1213 873 q 1071 979 1122 943 q 975 1044 1020 1015 l 1050 1131 q 1146 1070 1095 1104 q 1245 1004 1198 1037 q 1322 945 1292 970 m 696 804 l 696 557 l 986 557 l 986 804 l 696 804 m 1116 557 l 1315 557 q 1313 536 1315 557 q 1310 501 1312 516 q 1288 276 1299 364 q 1261 139 1276 189 q 1223 68 1246 90 q 1172 33 1200 43 q 1104 21 1144 24 q 1013 19 1071 19 q 890 22 955 19 q 877 85 888 50 q 847 146 866 120 q 971 138 912 140 q 1055 136 1029 136 q 1089 138 1076 136 q 1116 150 1103 140 q 1149 234 1136 168 q 1174 435 1163 300 l 696 435 l 696 -106 l 564 -106 l 564 435 l 89 435 l 89 557 l 564 557 l 564 804 l 172 804 l 172 928 l 564 928 l 564 1161 l 696 1161 l 696 928 l 1116 928 l 1116 557 z "},"买":{"ha":1389,"x_min":71,"x_max":1300,"o":"m 1122 725 l 1017 777 q 1068 862 1042 814 q 1118 961 1094 910 l 154 961 l 154 1082 l 1160 1082 l 1160 1083 l 1183 1083 l 1206 1090 l 1300 1051 q 1214 876 1261 965 q 1122 725 1167 787 m 643 753 l 570 654 q 494 706 541 677 q 397 763 448 735 q 298 811 345 790 l 368 897 q 466 853 414 878 q 565 802 518 829 q 643 753 612 776 m 479 562 l 407 468 q 334 517 378 490 q 240 569 290 543 q 144 614 190 595 l 215 699 q 310 659 260 682 q 405 610 360 635 q 479 562 450 585 m 732 153 l 799 244 q 982 164 890 208 q 1155 76 1074 121 q 1295 -7 1236 32 l 1211 -109 q 1078 -22 1156 -68 q 911 69 1000 24 q 732 153 822 115 m 707 890 l 836 890 q 825 644 833 758 q 798 433 818 530 l 1300 433 l 1300 314 l 762 314 q 649 126 723 208 q 450 -15 574 45 q 138 -113 326 -75 q 110 -56 130 -87 q 71 -3 90 -24 q 340 71 231 27 q 517 175 449 115 q 625 314 586 235 l 97 314 l 97 433 l 668 433 q 697 640 691 526 q 707 890 704 754 z "},"乱":{"ha":1389,"x_min":56,"x_max":1333,"o":"m 604 86 l 604 342 l 244 342 l 244 86 l 604 86 m 488 991 l 488 782 l 781 782 l 781 665 l 488 665 l 488 457 l 730 457 l 730 -69 l 604 -69 l 604 -28 l 244 -28 l 244 -81 l 123 -81 l 123 457 l 363 457 l 363 665 l 56 665 l 56 782 l 363 782 l 363 971 q 236 955 299 962 q 113 942 173 948 q 98 994 109 962 q 77 1044 87 1025 q 289 1072 180 1055 q 495 1110 398 1089 q 660 1156 591 1131 l 757 1055 q 630 1020 699 1036 q 488 991 562 1005 m 1017 26 l 1157 26 q 1192 48 1180 26 q 1209 125 1204 69 q 1218 283 1215 180 q 1274 249 1240 266 q 1333 227 1308 233 q 1312 39 1327 109 q 1263 -62 1297 -31 q 1168 -93 1230 -93 l 999 -93 q 899 -76 935 -93 q 850 -14 864 -58 q 836 110 836 30 l 836 1146 l 964 1146 l 964 109 q 973 41 964 55 q 1017 26 982 26 z "},"乳":{"ha":1389,"x_min":66,"x_max":1332,"o":"m 125 911 l 229 951 q 288 833 259 897 q 332 724 317 770 l 222 677 q 180 791 209 725 q 125 911 152 857 m 782 378 l 783 261 q 646 247 715 254 q 510 232 577 239 l 510 24 q 498 -47 510 -21 q 453 -87 486 -74 q 371 -105 420 -102 q 252 -109 322 -109 q 236 -50 248 -82 q 212 7 224 -17 q 304 5 260 5 q 359 5 347 5 q 379 10 374 7 q 385 26 385 14 l 385 221 q 223 205 300 212 q 79 192 145 198 l 66 311 q 213 323 132 316 q 385 339 295 330 l 385 416 q 468 487 425 446 q 547 570 511 529 l 139 570 l 139 677 l 648 677 l 676 686 l 760 619 q 643 494 709 558 q 510 378 576 431 l 510 351 q 646 364 577 357 q 782 378 714 370 m 339 942 l 443 975 q 488 856 466 921 q 519 746 509 791 l 411 705 q 380 821 401 755 q 339 942 359 886 m 646 692 l 545 730 q 589 818 566 768 q 633 918 612 867 q 668 1011 654 968 l 791 966 q 717 819 756 895 q 646 692 678 744 m 722 1168 l 807 1063 q 598 1021 714 1038 q 361 993 483 1004 q 126 978 239 983 q 113 1030 123 999 q 92 1082 102 1061 q 320 1101 203 1089 q 542 1130 437 1113 q 722 1168 646 1147 m 1039 40 l 1162 40 q 1194 62 1183 40 q 1210 139 1205 83 q 1218 297 1215 195 q 1273 263 1240 279 q 1332 240 1307 247 q 1311 55 1326 124 q 1265 -44 1297 -14 q 1174 -74 1233 -74 l 1019 -74 q 923 -56 957 -74 q 876 4 889 -39 q 863 122 863 47 l 863 1131 l 990 1131 l 990 121 q 999 54 990 68 q 1039 40 1008 40 z "},"乾":{"ha":1389,"x_min":60,"x_max":1341,"o":"m 232 533 l 232 439 l 541 439 l 541 533 l 232 533 m 232 718 l 232 624 l 541 624 l 541 718 l 232 718 m 446 343 l 446 243 l 697 243 l 697 126 l 446 126 l 446 -109 l 319 -109 l 319 126 l 60 126 l 60 243 l 319 243 l 319 343 l 115 343 l 115 812 l 319 812 l 319 914 l 77 914 l 77 1028 l 319 1028 l 319 1165 l 446 1165 l 446 1028 l 685 1028 l 685 914 l 446 914 l 446 812 l 660 812 l 660 753 q 770 940 723 831 q 844 1165 817 1048 l 972 1139 q 918 961 949 1045 l 1326 961 l 1326 843 l 868 843 q 739 640 812 726 q 704 674 728 653 q 660 711 681 694 l 660 343 l 446 343 m 928 32 l 1171 32 q 1204 44 1192 32 q 1222 98 1217 57 q 1231 225 1228 140 q 1285 199 1257 210 q 1341 182 1314 187 q 1317 6 1335 65 q 1262 -73 1298 -53 q 1168 -93 1225 -93 l 928 -93 q 774 -53 823 -93 q 725 53 725 -14 q 729 95 725 72 q 748 152 733 118 q 795 237 763 186 q 882 365 827 289 q 1023 549 938 441 l 764 549 l 764 664 l 1137 664 l 1168 667 l 1253 633 q 1246 621 1250 628 q 1239 607 1243 613 q 1062 393 1132 480 q 950 249 991 306 q 889 159 909 193 q 863 105 869 125 q 857 72 857 86 q 928 32 857 32 z "},"了":{"ha":1389,"x_min":139,"x_max":1246,"o":"m 1143 1069 l 1246 994 q 1106 859 1185 927 q 940 729 1027 791 q 768 618 853 667 l 768 47 q 750 -44 768 -12 q 688 -89 732 -75 q 571 -108 643 -104 q 396 -111 499 -112 q 376 -45 392 -83 q 345 20 360 -7 q 450 17 399 18 q 539 16 500 16 q 593 17 577 16 q 624 24 615 18 q 633 50 633 31 l 633 684 q 820 798 724 730 q 987 935 915 866 l 139 935 l 139 1063 l 1114 1063 l 1143 1069 z "},"予":{"ha":1389,"x_min":78,"x_max":1325,"o":"m 1219 656 l 1325 610 q 1212 422 1274 517 q 1089 262 1149 328 l 981 328 q 1049 417 1013 366 q 1117 524 1086 469 l 771 524 l 771 40 q 755 -43 771 -14 q 697 -86 739 -73 q 591 -104 656 -100 q 437 -107 527 -107 q 417 -44 431 -80 q 389 18 402 -8 q 478 16 434 16 q 556 15 522 15 q 603 16 589 16 q 629 22 623 16 q 636 43 636 27 l 636 524 l 78 524 l 78 647 l 757 647 q 576 729 673 687 q 399 804 480 772 l 465 901 q 578 857 517 880 q 700 807 639 833 q 817 884 758 840 q 925 971 876 927 l 208 971 l 208 1090 l 1051 1090 l 1079 1097 l 1174 1025 q 1012 883 1103 954 q 831 753 921 811 q 905 720 870 735 q 966 690 939 704 l 940 647 l 1196 647 l 1219 656 z "},"争":{"ha":1389,"x_min":61,"x_max":1332,"o":"m 1022 313 l 1022 449 l 751 449 l 751 313 l 1022 313 m 751 696 l 751 567 l 1022 567 l 1022 696 l 751 696 m 836 939 l 465 939 q 404 873 436 905 q 336 810 372 840 l 724 810 q 782 871 753 837 q 836 939 811 905 m 1332 567 l 1332 449 l 1149 449 l 1149 196 l 1105 196 l 1105 195 l 751 195 l 751 40 q 736 -44 751 -15 q 681 -87 720 -74 q 579 -106 641 -103 q 428 -110 518 -110 q 407 -47 422 -83 q 379 14 393 -11 q 507 12 447 12 q 586 12 566 12 q 613 19 606 14 q 621 41 621 25 l 621 195 l 205 195 l 205 313 l 621 313 l 621 449 l 61 449 l 61 567 l 621 567 l 621 696 l 258 696 l 258 747 q 224 722 241 734 q 187 697 206 710 q 143 745 172 718 q 92 786 115 772 q 325 969 229 867 q 472 1165 420 1072 l 612 1140 q 554 1051 585 1094 l 922 1051 l 945 1057 l 1036 993 q 965 901 1006 949 q 884 810 925 853 l 1149 810 l 1149 567 l 1332 567 z "},"事":{"ha":1389,"x_min":68,"x_max":1325,"o":"m 1050 193 l 1050 279 l 754 279 l 754 193 l 1050 193 m 754 460 l 754 380 l 1050 380 l 1050 460 l 754 460 m 363 720 l 624 720 l 624 803 l 363 803 l 363 720 m 1028 803 l 754 803 l 754 720 l 1028 720 l 1028 803 m 1325 380 l 1325 279 l 1181 279 l 1181 36 l 1050 36 l 1050 96 l 754 96 l 754 24 q 739 -55 754 -30 q 689 -94 724 -81 q 597 -110 654 -107 q 453 -113 541 -113 q 435 -60 448 -91 q 408 -8 422 -29 q 520 -11 466 -10 q 590 -9 574 -11 q 616 -2 609 -9 q 624 22 624 5 l 624 96 l 191 96 l 191 193 l 624 193 l 624 279 l 68 279 l 68 380 l 624 380 l 624 460 l 203 460 l 203 551 l 624 551 l 624 633 l 239 633 l 239 889 l 624 889 l 624 960 l 97 960 l 97 1064 l 624 1064 l 624 1165 l 754 1165 l 754 1064 l 1296 1064 l 1296 960 l 754 960 l 754 889 l 1158 889 l 1158 633 l 754 633 l 754 551 l 1181 551 l 1181 380 l 1325 380 z "},"二":{"ha":1389,"x_min":85,"x_max":1307,"o":"m 200 972 l 1192 972 l 1192 832 l 200 832 l 200 972 m 85 164 l 1307 164 l 1307 17 l 85 17 l 85 164 z "},"于":{"ha":1389,"x_min":81,"x_max":1310,"o":"m 1310 624 l 1310 496 l 777 496 l 777 66 q 758 -31 777 2 q 697 -79 740 -64 q 582 -100 654 -96 q 406 -104 510 -104 q 384 -35 400 -75 q 351 32 368 5 q 504 29 433 28 q 599 31 574 30 q 630 38 621 31 q 640 68 640 46 l 640 496 l 81 496 l 81 624 l 640 624 l 640 943 l 175 943 l 175 1071 l 1215 1071 l 1215 943 l 777 943 l 777 624 l 1310 624 z "},"亏":{"ha":1389,"x_min":77,"x_max":1308,"o":"m 1208 1093 l 1208 972 l 179 972 l 179 1093 l 1208 1093 m 1308 644 l 542 644 q 518 530 530 588 q 492 418 505 471 l 1168 418 q 1167 398 1168 418 q 1164 364 1166 378 q 1140 145 1153 231 q 1111 11 1128 60 q 1068 -61 1093 -38 q 1007 -98 1040 -88 q 925 -111 974 -108 q 809 -112 882 -113 q 656 -107 736 -111 q 640 -44 654 -79 q 604 17 625 -10 q 718 9 662 12 q 819 6 774 7 q 886 5 864 5 q 929 7 912 5 q 958 18 946 9 q 999 104 983 37 q 1026 300 1014 171 l 332 300 l 332 301 l 317 301 q 360 463 338 369 q 397 644 382 556 l 77 644 l 77 765 l 1308 765 l 1308 644 z "},"云":{"ha":1389,"x_min":79,"x_max":1311,"o":"m 1168 1063 l 1168 930 l 232 930 l 232 1063 l 1168 1063 m 1311 545 l 665 545 q 524 313 601 425 q 371 107 448 201 l 1003 153 q 924 270 964 212 q 847 378 884 327 l 965 440 q 1084 276 1023 363 q 1198 106 1145 189 q 1284 -40 1251 24 l 1160 -115 q 1124 -47 1145 -84 q 1078 31 1103 -10 q 711 0 859 12 q 471 -20 564 -12 q 325 -35 378 -28 q 244 -46 272 -41 q 197 -60 216 -52 q 185 -19 193 -45 q 167 36 177 7 q 147 85 157 64 q 198 116 173 91 q 256 182 223 141 q 313 258 275 204 q 397 387 351 312 q 485 545 442 461 l 79 545 l 79 676 l 1311 676 l 1311 545 z "},"互":{"ha":1389,"x_min":77,"x_max":1320,"o":"m 439 383 l 904 383 q 922 522 913 454 q 937 646 931 589 l 494 646 q 466 509 480 576 q 439 383 452 443 m 990 60 l 1320 60 l 1320 -65 l 77 -65 l 77 60 l 856 60 q 871 159 864 108 q 886 262 878 210 l 264 262 q 304 417 283 331 q 345 598 325 503 q 383 789 365 694 q 415 972 401 885 l 119 972 l 119 1096 l 1279 1096 l 1279 972 l 557 972 q 537 871 547 923 q 518 766 528 819 l 962 766 l 986 772 l 1083 761 q 1059 545 1074 665 q 1026 299 1044 425 q 990 60 1008 173 z "},"五":{"ha":1389,"x_min":83,"x_max":1310,"o":"m 937 509 l 631 509 q 592 286 612 394 q 555 89 573 178 l 899 89 q 921 304 911 192 q 937 509 931 416 m 1035 89 l 1310 89 l 1310 -39 l 83 -39 l 83 89 l 414 89 q 452 287 433 180 q 492 509 472 395 l 244 509 l 244 635 l 513 635 q 532 773 523 705 q 551 907 542 842 l 168 907 l 168 1034 l 1215 1034 l 1215 907 l 693 907 q 673 773 684 842 q 653 635 663 705 l 958 635 l 983 640 l 1083 632 q 1071 462 1078 554 q 1054 274 1063 370 q 1035 89 1045 178 z "},"井":{"ha":1389,"x_min":83,"x_max":1307,"o":"m 519 461 l 873 461 l 873 761 l 525 761 l 525 631 q 524 545 525 588 q 519 461 523 503 m 1307 461 l 1307 330 l 1010 330 l 1010 -110 l 873 -110 l 873 330 l 503 330 q 414 85 479 201 q 214 -122 349 -32 q 160 -72 195 -102 q 98 -28 125 -42 q 275 138 214 47 q 359 330 335 229 l 83 330 l 83 461 l 382 461 q 387 545 386 502 q 389 631 389 588 l 389 761 l 126 761 l 126 890 l 389 890 l 389 1160 l 525 1160 l 525 890 l 873 890 l 873 1162 l 1010 1162 l 1010 890 l 1272 890 l 1272 761 l 1010 761 l 1010 461 l 1307 461 z "},"亚":{"ha":1389,"x_min":62,"x_max":1325,"o":"m 590 957 l 590 89 l 785 89 l 785 957 l 590 957 m 925 89 l 1325 89 l 1325 -35 l 62 -35 l 62 89 l 450 89 l 450 957 l 104 957 l 104 1084 l 1292 1084 l 1292 957 l 925 957 l 925 89 m 114 743 l 227 783 q 297 623 260 708 q 365 457 334 537 q 414 318 396 377 l 289 265 q 245 408 273 326 q 182 578 216 490 q 114 743 147 666 m 1064 275 l 949 318 q 1017 459 981 379 q 1085 624 1053 539 q 1139 783 1118 708 l 1265 743 q 1202 577 1237 662 q 1132 415 1168 493 q 1064 275 1097 337 z "},"些":{"ha":1389,"x_min":58,"x_max":1324,"o":"m 1150 454 l 936 454 q 825 470 864 454 q 770 526 785 486 q 755 635 755 565 l 755 1165 l 885 1165 l 885 907 q 1041 967 966 934 q 1168 1032 1116 1000 l 1268 929 q 1084 854 1185 890 q 885 789 983 818 l 885 635 q 897 587 885 597 q 951 576 909 576 l 1140 576 q 1178 589 1165 576 q 1197 639 1191 602 q 1206 750 1202 676 q 1262 720 1227 734 q 1324 700 1297 705 q 1298 551 1315 604 q 1246 476 1281 497 q 1150 454 1211 454 m 235 222 l 235 346 l 1168 346 l 1168 222 l 235 222 m 701 610 l 704 490 q 478 461 591 475 q 261 435 365 448 q 74 412 157 422 l 58 541 l 144 547 l 144 1018 l 264 1018 l 264 559 l 368 571 l 368 1165 l 496 1165 l 496 940 l 690 940 l 690 825 l 496 825 l 496 586 l 701 610 m 79 -78 l 79 50 l 1311 50 l 1311 -78 l 79 -78 z "},"亡":{"ha":1389,"x_min":79,"x_max":1314,"o":"m 1314 751 l 406 751 l 406 97 l 1223 97 l 1223 -35 l 268 -35 l 268 751 l 79 751 l 79 878 l 684 878 q 642 998 670 928 q 581 1126 613 1068 l 715 1168 q 783 1038 751 1109 q 829 916 816 966 l 714 878 l 1314 878 l 1314 751 z "},"亢":{"ha":1389,"x_min":54,"x_max":1340,"o":"m 1301 921 l 1301 798 l 93 798 l 93 921 l 676 921 q 638 1027 665 966 q 586 1141 611 1088 l 717 1185 q 772 1072 745 1133 q 814 966 800 1010 l 681 921 l 1301 921 m 1064 28 l 1150 28 q 1180 30 1166 28 q 1203 36 1194 31 q 1220 51 1213 40 q 1232 82 1227 61 q 1237 152 1235 105 q 1239 265 1239 199 q 1286 232 1257 248 q 1340 210 1315 217 q 1334 88 1339 149 q 1321 0 1329 27 q 1258 -72 1304 -54 q 1208 -86 1238 -81 q 1150 -90 1178 -90 l 1034 -90 q 969 -83 1001 -90 q 913 -61 937 -77 q 878 -14 890 -45 q 865 92 865 17 l 865 541 l 521 541 l 521 460 q 505 307 521 387 q 449 150 490 227 q 332 2 408 72 q 138 -121 257 -67 q 100 -63 126 -98 q 54 -11 73 -28 q 231 94 165 37 q 331 214 298 151 q 376 340 365 276 q 387 464 387 404 l 387 661 l 1000 661 l 1000 93 q 1017 35 1000 42 q 1064 28 1032 28 z "},"交":{"ha":1389,"x_min":71,"x_max":1324,"o":"m 1292 981 l 1292 856 l 94 856 l 94 981 l 654 981 q 616 1059 639 1016 q 572 1137 594 1101 l 694 1179 q 752 1084 722 1137 q 796 996 781 1032 l 755 981 l 1292 981 m 843 755 l 945 829 q 1075 736 1006 788 q 1203 632 1143 684 q 1300 536 1263 579 l 1192 452 q 1099 549 1157 494 q 974 657 1041 603 q 843 755 906 712 m 432 825 l 558 777 q 449 659 511 718 q 321 547 387 600 q 195 457 255 495 q 146 506 178 475 q 93 551 115 536 q 217 629 154 585 q 336 724 280 673 q 432 825 392 774 m 890 590 l 1021 551 q 923 366 979 450 q 796 212 867 281 q 1324 14 1006 66 q 1280 -40 1303 -6 q 1244 -102 1257 -75 q 940 -13 1076 -70 q 697 129 804 45 q 447 -13 585 45 q 149 -111 309 -71 q 114 -52 138 -88 q 71 5 90 -16 q 363 88 229 37 q 602 214 496 139 q 387 547 470 354 l 504 583 q 699 294 571 416 q 890 590 825 416 z "},"亥":{"ha":1389,"x_min":79,"x_max":1311,"o":"m 1093 597 l 1215 530 q 1080 368 1155 443 q 920 227 1006 292 q 1053 148 985 190 q 1183 63 1122 105 q 1286 -14 1244 22 l 1168 -104 q 1069 -26 1129 -69 q 940 62 1009 17 q 803 149 870 108 q 500 -2 663 62 q 157 -109 337 -66 q 124 -47 146 -81 q 79 14 103 -12 q 494 141 300 62 q 840 333 688 220 q 1093 597 993 446 m 810 999 l 1311 999 l 1311 872 l 660 872 q 565 764 615 820 q 469 661 515 708 l 823 681 q 874 736 850 707 q 918 796 897 766 l 1040 734 q 816 497 947 602 q 525 316 684 393 q 189 189 366 239 q 155 250 178 216 q 111 309 133 283 q 411 409 267 348 q 672 553 555 471 q 470 538 547 545 q 348 528 392 532 q 283 518 304 523 q 248 509 261 513 q 238 551 244 525 q 226 602 233 576 q 214 642 219 627 q 263 655 235 646 q 315 685 292 665 q 360 728 330 698 q 425 797 389 759 q 492 872 460 836 l 83 872 l 83 999 l 653 999 q 617 1069 637 1032 q 579 1136 597 1106 l 711 1175 q 767 1085 739 1135 q 810 999 795 1035 z "},"亦":{"ha":1389,"x_min":72,"x_max":1314,"o":"m 1301 810 l 950 810 l 950 50 q 936 -37 950 -6 q 885 -83 922 -68 q 787 -103 847 -99 q 640 -107 727 -107 q 624 -42 636 -80 q 597 24 611 -3 q 714 21 660 22 q 786 22 768 21 q 818 52 818 22 l 818 810 l 618 810 l 618 660 q 607 469 618 570 q 562 264 597 368 q 458 64 528 161 q 269 -118 388 -34 q 224 -66 254 -95 q 171 -21 195 -37 q 343 140 279 54 q 437 317 406 227 q 478 495 469 408 q 488 661 488 583 l 488 810 l 87 810 l 87 936 l 675 936 q 631 1033 659 976 q 575 1135 603 1089 l 697 1177 q 760 1074 728 1130 q 810 977 792 1017 l 697 936 l 1301 936 l 1301 810 m 250 676 l 380 650 q 297 407 349 524 q 183 210 245 290 q 131 249 165 227 q 72 283 96 272 q 179 459 134 354 q 250 676 225 564 m 994 631 l 1107 679 q 1192 530 1150 610 q 1266 373 1234 450 q 1314 236 1299 296 l 1192 180 q 1147 318 1178 240 q 1077 477 1117 396 q 994 631 1037 559 z "},"产":{"ha":1389,"x_min":50,"x_max":1289,"o":"m 1254 1010 l 1254 886 l 154 886 l 154 1010 l 653 1010 q 619 1074 638 1040 q 579 1135 600 1107 l 710 1169 q 766 1088 739 1133 q 808 1010 793 1043 l 1254 1010 m 1289 647 l 1289 521 l 306 521 l 306 456 q 300 318 306 393 q 278 164 294 243 q 233 12 262 86 q 157 -123 203 -62 q 126 -92 146 -111 q 85 -57 106 -74 q 50 -32 64 -40 q 130 127 104 41 q 163 300 155 214 q 171 458 171 387 l 171 647 l 469 647 q 422 741 453 688 q 359 838 391 793 l 472 884 q 540 787 505 841 q 591 692 575 732 l 493 647 l 838 647 q 896 760 865 695 q 945 875 927 824 l 1088 829 q 1027 735 1057 783 q 970 647 998 687 l 1289 647 z "},"亩":{"ha":1389,"x_min":89,"x_max":1301,"o":"m 628 611 l 313 611 l 313 414 l 628 414 l 628 611 m 1071 414 l 1071 611 l 755 611 l 755 414 l 1071 414 m 755 87 l 1071 87 l 1071 296 l 755 296 l 755 87 m 313 296 l 313 87 l 628 87 l 628 296 l 313 296 m 186 -110 l 186 734 l 1203 734 l 1203 -107 l 1071 -107 l 1071 -36 l 313 -36 l 313 -110 l 186 -110 m 802 983 l 1301 983 l 1301 857 l 89 857 l 89 983 l 652 983 q 613 1058 635 1018 q 574 1131 592 1097 l 696 1171 q 755 1075 724 1128 q 802 983 786 1022 z "},"享":{"ha":1389,"x_min":79,"x_max":1312,"o":"m 1293 1053 l 1293 943 l 93 943 l 93 1053 l 627 1053 q 608 1103 618 1078 q 587 1152 598 1128 l 721 1175 q 749 1115 735 1148 q 774 1053 763 1082 l 1293 1053 m 390 772 l 390 668 l 1000 668 l 1000 772 l 390 772 m 1136 576 l 262 576 l 262 865 l 1136 865 l 1136 576 m 1312 260 l 1312 150 l 760 150 l 760 16 q 743 -59 760 -35 q 685 -96 726 -84 q 578 -109 643 -107 q 424 -111 514 -111 q 404 -57 417 -86 q 378 -4 391 -27 q 466 -7 422 -6 q 544 -7 511 -7 q 589 -7 578 -7 q 616 0 609 -6 q 624 21 624 5 l 624 150 l 79 150 l 79 260 l 624 260 l 624 332 l 625 332 l 624 334 q 743 364 682 347 q 860 403 804 382 l 210 403 l 210 504 l 1031 504 l 1031 505 l 1065 505 l 1096 511 l 1178 437 q 982 349 1091 391 q 760 278 873 308 l 760 260 l 1312 260 z "},"京":{"ha":1389,"x_min":74,"x_max":1297,"o":"m 315 286 l 441 241 q 313 74 387 159 q 167 -72 239 -11 q 122 -28 150 -52 q 74 9 94 -5 q 164 94 118 47 q 251 191 211 141 q 315 286 290 241 m 385 668 l 385 478 l 1008 478 l 1008 668 l 385 668 m 1145 367 l 768 367 l 768 32 q 754 -50 768 -21 q 700 -93 740 -79 q 599 -110 661 -108 q 450 -113 538 -113 q 432 -49 445 -84 q 408 12 420 -14 q 526 10 470 10 q 602 11 583 10 q 626 16 619 11 q 632 35 632 21 l 632 367 l 257 367 l 257 781 l 1145 781 l 1145 367 m 936 224 l 1043 289 q 1135 193 1086 245 q 1225 90 1183 141 q 1295 0 1268 39 l 1181 -75 q 1116 16 1156 -36 q 1028 123 1075 68 q 936 224 981 178 m 798 1000 l 1297 1000 l 1297 873 l 92 873 l 92 1000 l 644 1000 q 609 1070 628 1034 q 571 1136 589 1106 l 696 1177 q 752 1087 723 1137 q 798 1000 781 1038 z "},"亭":{"ha":1389,"x_min":87,"x_max":1304,"o":"m 282 235 l 282 340 l 1111 340 l 1111 235 l 786 235 l 786 29 q 770 -50 786 -23 q 711 -89 754 -77 q 605 -105 669 -102 q 447 -107 540 -107 q 430 -48 443 -81 q 403 9 417 -16 q 491 7 447 7 q 568 7 535 7 q 612 7 601 7 q 639 14 632 9 q 646 33 646 19 l 646 235 l 282 235 m 97 262 l 97 525 l 1292 525 l 1292 262 l 1173 262 l 1173 424 l 212 424 l 212 262 l 97 262 m 985 690 l 985 789 l 401 789 l 401 690 l 985 690 m 273 878 l 1121 878 l 1121 602 l 273 602 l 273 878 m 786 1054 l 1304 1054 l 1304 947 l 87 947 l 87 1054 l 637 1054 q 611 1100 625 1077 q 583 1145 597 1124 l 708 1177 q 749 1116 728 1149 q 786 1054 770 1082 z "},"亮":{"ha":1389,"x_min":81,"x_max":1305,"o":"m 1304 1044 l 1304 937 l 83 937 l 83 1044 l 643 1044 q 619 1097 633 1070 q 591 1147 605 1124 l 722 1175 q 760 1109 741 1146 q 790 1044 779 1073 l 1304 1044 m 1283 273 l 1156 273 l 1156 415 l 227 415 l 227 272 l 104 272 l 104 517 l 1283 517 l 1283 273 m 983 679 l 983 781 l 406 781 l 406 679 l 983 679 m 278 868 l 1120 868 l 1120 590 l 278 590 l 278 868 m 1022 25 l 1143 25 q 1170 36 1160 25 q 1183 77 1179 46 q 1190 171 1187 109 q 1244 142 1209 156 q 1305 122 1278 127 q 1284 -6 1299 39 q 1239 -69 1269 -52 q 1157 -86 1208 -86 l 1002 -86 q 901 -73 936 -86 q 852 -26 866 -59 q 839 66 839 7 l 839 229 l 534 229 q 484 71 522 136 q 366 -39 446 5 q 150 -110 287 -83 q 121 -53 142 -85 q 81 -1 100 -20 q 250 43 186 16 q 347 109 314 69 q 394 204 380 148 q 411 336 407 260 l 977 336 l 977 68 q 985 32 977 39 q 1022 25 993 25 z "},"亲":{"ha":1389,"x_min":102,"x_max":1287,"o":"m 1226 1002 l 1226 892 l 180 892 l 180 1002 l 636 1002 q 578 1136 611 1072 l 705 1168 q 749 1084 728 1130 q 782 1002 770 1039 l 1226 1002 m 358 281 l 485 243 q 368 76 437 157 q 231 -60 298 -5 q 178 -19 212 -43 q 122 20 145 5 q 256 137 192 66 q 358 281 320 207 m 884 225 l 991 288 q 1085 198 1036 247 q 1176 101 1133 149 q 1244 14 1218 53 l 1129 -58 q 1064 30 1105 -20 q 976 131 1023 80 q 884 225 928 182 m 1287 566 l 766 566 l 766 436 l 1268 436 l 1268 323 l 766 323 l 766 29 q 753 -48 766 -21 q 705 -89 740 -75 q 618 -106 671 -104 q 489 -109 565 -109 q 472 -49 484 -82 q 449 8 460 -16 q 545 6 498 6 q 607 7 592 7 q 628 13 623 8 q 633 32 633 18 l 633 323 l 134 323 l 134 436 l 633 436 l 633 566 l 102 566 l 102 677 l 424 677 q 389 767 411 718 q 345 856 368 815 l 461 885 q 518 780 491 838 q 558 679 546 722 l 553 677 l 828 677 q 878 780 854 725 q 917 879 901 834 l 1048 854 q 1005 763 1027 808 q 960 677 983 718 l 1287 677 l 1287 566 z "},"人":{"ha":1389,"x_min":57,"x_max":1340,"o":"m 614 1161 l 761 1161 q 759 1069 760 1122 q 751 954 757 1016 q 768 840 756 911 q 805 681 781 768 q 871 498 829 593 q 976 312 913 404 q 1129 143 1040 221 q 1340 11 1219 65 q 1286 -42 1312 -11 q 1246 -98 1259 -73 q 1032 42 1124 -41 q 875 220 941 124 q 766 416 810 316 q 694 610 722 517 q 595 348 660 479 q 426 98 531 216 q 164 -106 321 -19 q 118 -52 147 -81 q 57 -3 90 -24 q 296 169 199 71 q 453 380 393 268 q 547 606 514 492 q 594 826 580 720 q 610 1019 608 932 q 614 1161 613 1105 z "},"亿":{"ha":1389,"x_min":45,"x_max":1307,"o":"m 374 1160 l 494 1124 q 436 985 469 1054 q 367 848 403 916 l 367 -107 l 241 -107 l 241 650 q 115 494 182 565 q 97 536 109 511 q 70 586 84 561 q 45 625 56 610 q 171 775 110 690 q 284 960 232 861 q 374 1160 336 1058 m 765 68 l 1095 68 q 1151 87 1131 68 q 1179 165 1171 107 q 1192 336 1188 222 q 1249 309 1217 321 q 1307 293 1281 297 q 1287 114 1301 182 q 1248 8 1273 45 q 1183 -42 1223 -28 q 1088 -56 1144 -56 l 771 -56 q 572 -6 635 -56 q 509 126 509 43 q 516 187 509 154 q 550 272 524 220 q 634 405 577 323 q 789 609 691 486 q 1039 909 888 732 l 542 909 l 542 1032 l 1166 1032 l 1197 1038 l 1278 994 q 1261 972 1274 985 q 1010 683 1114 805 q 838 474 906 560 q 729 331 769 388 q 669 238 688 274 q 643 180 649 202 q 637 142 637 158 q 672 85 637 103 q 765 68 706 68 z "},"什":{"ha":1389,"x_min":52,"x_max":1324,"o":"m 387 1158 l 509 1122 q 449 982 482 1051 q 379 844 416 912 l 379 -109 l 254 -109 l 254 644 q 123 485 192 557 q 105 526 117 500 q 78 576 92 551 q 52 616 63 602 q 181 769 118 682 q 296 955 243 856 q 387 1158 349 1055 m 1324 697 l 1324 571 l 965 571 l 965 -110 l 832 -110 l 832 571 l 460 571 l 460 697 l 832 697 l 832 1147 l 965 1147 l 965 697 l 1324 697 z "},"仁":{"ha":1389,"x_min":46,"x_max":1326,"o":"m 1268 937 l 1268 802 l 550 802 l 550 937 l 1268 937 m 396 1161 l 524 1120 q 458 972 494 1046 q 382 828 422 898 l 382 -107 l 253 -107 l 253 631 q 189 550 222 588 q 123 479 156 513 q 103 520 117 494 q 73 571 89 545 q 46 612 58 597 q 180 766 115 678 q 301 955 245 854 q 396 1161 356 1055 m 472 119 l 1326 119 l 1326 -17 l 472 -17 l 472 119 z "},"仅":{"ha":1389,"x_min":36,"x_max":1350,"o":"m 396 1157 l 524 1117 q 457 970 494 1043 q 380 827 421 897 l 380 -106 l 253 -106 l 253 635 q 184 551 220 591 q 113 475 148 511 q 92 517 106 491 q 63 568 79 543 q 36 608 48 593 q 175 761 108 673 q 299 950 242 849 q 396 1157 355 1051 m 1128 897 l 673 897 q 764 607 709 743 q 896 358 818 471 q 1034 600 975 466 q 1128 897 1093 734 m 1189 1023 l 1274 994 q 1161 575 1236 758 q 978 254 1085 392 q 1145 109 1053 172 q 1350 5 1238 45 q 1304 -44 1328 -13 q 1265 -100 1280 -76 q 1060 10 1153 -55 q 893 157 968 75 q 708 5 808 71 q 498 -107 609 -61 q 464 -51 486 -83 q 421 -1 441 -19 q 812 257 642 78 q 659 544 722 385 q 551 886 596 702 l 603 897 l 514 897 l 514 1017 l 1166 1017 l 1189 1023 z "},"仆":{"ha":1389,"x_min":45,"x_max":1328,"o":"m 392 1160 l 518 1120 q 383 833 461 972 l 383 -109 l 252 -109 l 252 625 q 186 541 219 581 q 118 465 153 500 q 99 508 112 482 q 71 561 86 534 q 45 604 56 587 q 178 760 113 671 q 297 951 242 849 q 392 1160 352 1053 m 872 713 l 953 794 q 1049 710 997 755 q 1154 617 1101 664 q 1252 527 1206 570 q 1328 450 1297 484 l 1232 342 q 1132 449 1194 387 q 1001 574 1070 510 q 872 693 932 638 l 872 -106 l 733 -106 l 733 1149 l 872 1149 l 872 713 z "},"仇":{"ha":1389,"x_min":46,"x_max":1339,"o":"m 359 1160 l 482 1124 q 421 975 455 1048 q 349 829 387 901 l 349 -110 l 221 -110 l 221 624 q 169 556 195 588 q 118 494 144 524 q 99 536 112 511 q 72 586 86 561 q 46 625 57 610 q 167 777 109 691 q 275 961 225 863 q 359 1160 324 1059 m 1147 28 l 1187 28 q 1215 35 1206 28 q 1231 78 1227 44 q 1235 142 1233 98 q 1236 244 1236 186 q 1284 211 1256 227 q 1339 189 1313 196 q 1333 80 1338 136 q 1322 -1 1329 24 q 1276 -71 1310 -52 q 1239 -86 1261 -81 q 1194 -90 1217 -90 l 1112 -90 q 1063 -83 1088 -90 q 1019 -61 1037 -76 q 993 -13 1001 -43 q 985 97 985 18 l 985 725 l 785 725 q 745 390 775 547 q 648 105 714 233 q 465 -115 582 -23 q 423 -63 451 -92 q 370 -18 395 -35 q 535 176 475 63 q 622 428 595 289 q 657 725 648 566 l 437 725 l 437 850 l 661 850 q 664 1003 663 925 q 664 1161 664 1081 l 793 1161 q 792 1004 793 1081 q 790 850 792 926 l 1116 850 l 1116 96 q 1124 35 1116 43 q 1147 28 1133 28 z "},"今":{"ha":1389,"x_min":50,"x_max":1340,"o":"m 1079 493 l 1103 500 l 1204 452 q 1071 272 1146 370 q 916 74 996 174 q 764 -117 836 -27 l 629 -54 q 745 82 685 9 q 862 226 804 154 q 966 361 919 298 l 225 361 l 225 493 l 1079 493 m 893 586 l 802 494 q 729 565 774 525 q 634 647 684 606 q 539 722 583 688 l 625 802 q 720 732 669 770 q 817 655 770 693 q 893 586 863 616 m 679 1177 l 806 1117 q 792 1097 800 1106 q 778 1076 785 1087 q 941 927 846 1002 q 1140 788 1036 852 q 1340 684 1244 725 q 1285 628 1315 663 q 1239 567 1255 593 q 1055 678 1151 612 q 868 822 960 744 q 701 982 777 899 q 445 740 589 848 q 150 554 302 631 q 106 615 134 583 q 50 671 78 648 q 292 804 173 726 q 511 976 410 882 q 679 1177 611 1071 z "},"介":{"ha":1389,"x_min":40,"x_max":1357,"o":"m 376 446 l 376 611 l 511 611 l 511 443 q 502 301 511 374 q 461 154 492 227 q 370 13 431 81 q 205 -113 309 -55 q 157 -61 189 -90 q 98 -16 125 -32 q 248 91 193 34 q 331 208 304 148 q 368 329 359 269 q 376 446 376 389 m 892 -113 l 892 612 l 1028 612 l 1028 -113 l 892 -113 m 690 1178 l 794 1104 q 783 1086 789 1095 q 771 1069 777 1078 q 926 917 833 989 q 1130 788 1019 844 q 1357 701 1241 732 q 1307 644 1334 680 q 1265 581 1280 608 q 951 738 1100 635 q 694 971 802 842 q 527 807 620 885 q 330 667 433 730 q 119 561 226 604 q 85 625 107 589 q 40 685 63 661 q 296 803 171 726 q 524 976 421 879 q 690 1178 627 1073 z "},"仍":{"ha":1389,"x_min":35,"x_max":1283,"o":"m 310 1160 l 429 1125 q 380 988 408 1057 q 322 851 353 918 l 322 -110 l 200 -110 l 200 625 q 151 552 176 587 q 100 488 126 517 q 83 529 95 503 q 59 582 72 555 q 35 625 45 608 q 142 776 91 690 q 237 960 194 862 q 310 1160 279 1059 m 1039 681 l 1283 681 q 1282 658 1283 681 q 1280 623 1282 635 q 1259 265 1270 401 q 1232 57 1248 129 q 1190 -43 1215 -16 q 1143 -82 1168 -71 q 1080 -98 1117 -94 q 995 -102 1048 -102 q 880 -98 941 -102 q 867 -35 878 -71 q 839 26 857 1 q 950 20 899 21 q 1025 20 1001 20 q 1056 23 1044 20 q 1080 37 1069 26 q 1112 113 1099 56 q 1134 279 1124 170 q 1153 562 1144 388 l 889 562 q 933 744 909 639 q 975 951 956 848 l 734 951 q 721 660 732 808 q 682 369 710 511 q 599 103 654 227 q 453 -115 544 -21 q 407 -66 435 -92 q 353 -25 379 -41 q 487 173 437 60 q 561 417 536 287 q 592 684 585 547 q 602 951 600 820 l 454 951 l 454 1068 l 1118 1068 q 1081 873 1103 977 q 1039 681 1059 770 z "},"从":{"ha":1389,"x_min":53,"x_max":1333,"o":"m 718 323 l 621 229 q 542 370 593 290 q 433 526 490 450 q 339 173 399 332 q 179 -106 279 14 q 145 -77 169 -94 q 96 -42 122 -59 q 53 -16 71 -25 q 226 275 165 102 q 314 667 287 448 q 350 1139 341 886 l 492 1133 q 478 905 486 1016 q 457 693 469 795 q 558 569 508 635 q 651 438 609 503 q 718 323 693 374 m 880 1140 l 1022 1133 q 1004 901 1015 1013 q 979 688 994 789 q 1027 508 998 602 q 1099 325 1056 414 q 1199 158 1141 235 q 1333 29 1257 81 q 1283 -26 1312 9 q 1238 -89 1254 -62 q 1102 56 1161 -28 q 1000 234 1044 139 q 926 424 957 328 q 815 129 884 261 q 644 -103 747 -3 q 609 -74 633 -92 q 561 -39 586 -56 q 518 -11 536 -22 q 725 270 650 100 q 833 659 799 439 q 880 1140 867 878 z "},"仑":{"ha":1389,"x_min":56,"x_max":1348,"o":"m 587 56 l 945 56 q 1017 71 992 56 q 1051 131 1041 87 q 1067 262 1061 176 q 1126 233 1090 247 q 1190 212 1163 219 q 1158 43 1180 104 q 1087 -41 1135 -17 q 950 -65 1039 -65 l 583 -65 q 431 -49 486 -65 q 354 10 376 -33 q 332 129 332 52 l 332 669 l 460 669 l 460 404 q 651 473 557 436 q 826 551 745 511 q 965 635 907 592 l 1084 539 q 899 440 1002 486 q 683 355 795 394 q 460 283 571 316 l 460 131 q 469 83 460 99 q 506 61 479 67 q 587 56 534 56 m 692 1173 l 807 1118 q 793 1096 801 1107 q 777 1074 785 1085 q 937 925 843 998 q 1138 792 1031 852 q 1348 694 1244 732 q 1296 639 1324 673 q 1251 578 1268 605 q 1058 683 1157 620 q 868 824 960 747 q 704 983 777 901 q 445 748 591 852 q 146 574 300 644 q 106 631 130 600 q 56 685 81 663 q 299 806 179 733 q 522 972 420 880 q 692 1173 624 1065 z "},"仓":{"ha":1389,"x_min":46,"x_max":1348,"o":"m 382 677 l 1043 677 q 864 810 949 739 q 699 972 779 882 q 552 814 632 888 q 382 677 471 741 m 677 1169 l 800 1117 q 785 1092 793 1104 q 770 1068 778 1080 q 1035 835 890 930 q 1348 667 1179 741 q 1298 615 1322 646 q 1260 555 1274 584 q 1160 608 1208 581 q 1064 665 1111 636 q 1063 643 1063 656 q 1063 624 1063 631 q 1051 429 1058 504 q 1034 311 1044 353 q 1008 250 1023 269 q 961 218 987 227 q 901 207 935 209 q 820 204 872 204 q 710 208 767 204 q 700 265 709 233 q 679 322 690 297 q 780 315 733 316 q 846 314 826 314 q 895 328 882 314 q 915 394 907 342 q 928 555 922 446 l 447 555 l 447 129 q 457 79 447 96 q 495 57 467 62 q 582 52 524 52 l 951 52 q 1028 66 1002 52 q 1065 123 1054 81 q 1082 250 1076 166 q 1144 219 1106 233 q 1213 199 1182 204 q 1176 30 1200 90 q 1101 -54 1152 -30 q 958 -78 1050 -78 l 576 -78 q 416 -61 474 -78 q 335 1 359 -44 q 311 127 311 45 l 311 632 q 138 536 229 579 q 97 595 123 563 q 46 650 71 627 q 293 781 173 703 q 512 957 412 859 q 677 1169 611 1055 z "},"仔":{"ha":1389,"x_min":46,"x_max":1332,"o":"m 359 1164 l 481 1125 q 416 968 452 1047 q 339 815 380 889 l 339 -110 l 216 -110 l 216 619 q 167 555 192 586 q 117 496 142 524 q 99 537 111 512 q 72 587 86 562 q 46 628 57 612 q 167 780 109 694 q 275 964 225 866 q 359 1164 324 1062 m 1332 571 l 1332 447 l 957 447 l 957 52 q 942 -37 957 -6 q 888 -82 927 -67 q 783 -102 848 -98 q 625 -106 718 -106 q 607 -39 621 -77 q 581 25 594 -1 q 711 23 649 23 q 793 24 773 22 q 821 30 813 24 q 828 54 828 37 l 828 447 l 441 447 l 441 571 l 828 571 l 828 765 q 955 850 890 801 q 1074 949 1019 899 l 526 949 l 526 1068 l 1190 1068 l 1215 1076 l 1304 1013 q 1143 853 1236 933 q 957 713 1050 773 l 957 571 l 1332 571 z "},"他":{"ha":1389,"x_min":31,"x_max":1336,"o":"m 359 1160 l 478 1122 q 416 978 451 1050 q 343 835 382 905 l 343 -109 l 216 -109 l 216 636 q 102 496 161 559 q 82 536 95 511 q 55 585 69 560 q 31 625 41 610 q 157 776 96 690 q 270 960 218 862 q 359 1160 322 1059 m 790 25 l 1109 25 q 1172 41 1151 25 q 1203 100 1194 57 q 1219 222 1213 142 q 1276 192 1241 207 q 1336 171 1310 176 q 1306 15 1326 72 q 1242 -66 1286 -42 q 1118 -90 1198 -90 l 782 -90 q 641 -72 692 -90 q 570 -8 591 -54 q 550 123 550 39 l 550 541 l 429 492 l 378 607 l 550 673 l 550 1021 l 677 1021 l 677 724 l 851 790 l 851 1161 l 974 1161 l 974 838 l 1153 907 l 1173 922 l 1194 940 l 1283 904 l 1278 885 q 1274 569 1277 699 q 1263 395 1271 438 q 1236 320 1256 345 q 1183 285 1216 295 q 1111 272 1153 274 q 1038 271 1069 270 q 1027 332 1036 297 q 1007 389 1019 367 q 1062 388 1033 388 q 1104 387 1090 387 q 1129 394 1120 387 q 1146 424 1139 401 q 1153 537 1151 449 q 1157 777 1156 625 l 974 705 l 974 205 l 851 205 l 851 657 l 677 590 l 677 122 q 686 61 677 82 q 718 33 694 40 q 790 25 743 25 z "},"仗":{"ha":1389,"x_min":31,"x_max":1346,"o":"m 396 1157 l 521 1118 q 455 975 490 1046 q 380 836 420 903 l 380 -106 l 253 -106 l 253 644 q 181 556 218 599 q 107 478 144 513 q 86 518 100 493 q 58 568 73 543 q 31 608 43 593 q 171 761 103 673 q 297 950 239 849 q 396 1157 355 1051 m 1329 755 l 1043 755 q 1032 575 1042 667 q 994 390 1022 482 q 911 212 966 298 q 1346 4 1072 60 q 1300 -51 1324 -18 q 1264 -111 1276 -85 q 1020 -24 1126 -79 q 831 109 913 31 q 696 -9 773 47 q 515 -113 618 -64 q 474 -57 502 -91 q 425 -7 446 -24 q 608 95 530 40 q 739 210 685 151 q 622 409 670 298 q 541 653 574 519 l 659 677 q 815 318 709 465 q 895 538 878 425 q 914 755 913 650 l 464 755 l 464 879 l 914 879 l 914 1156 l 1043 1156 l 1043 879 l 1329 879 l 1329 755 z "},"付":{"ha":1389,"x_min":53,"x_max":1326,"o":"m 396 1157 l 524 1117 q 459 968 494 1043 q 383 823 424 893 l 383 -107 l 253 -107 l 253 623 q 131 479 195 543 q 110 519 123 494 q 81 570 96 545 q 53 611 65 595 q 185 764 121 677 q 303 952 250 852 q 396 1157 357 1052 m 1326 863 l 1326 733 l 1161 733 l 1161 56 q 1142 -44 1161 -12 q 1079 -90 1123 -76 q 961 -110 1036 -106 q 772 -113 886 -113 q 752 -47 767 -85 q 722 17 736 -9 q 832 13 779 14 q 926 13 886 12 q 983 14 966 13 q 1018 24 1007 15 q 1028 56 1028 33 l 1028 733 l 485 733 l 485 863 l 1028 863 l 1028 1150 l 1161 1150 l 1161 863 l 1326 863 m 872 279 l 751 214 q 701 316 732 257 q 632 437 669 375 q 561 554 595 500 l 673 607 q 745 495 707 555 q 817 378 783 435 q 872 279 851 321 z "},"仙":{"ha":1389,"x_min":45,"x_max":1272,"o":"m 358 1161 l 481 1124 q 419 972 454 1048 q 345 823 384 897 l 345 -110 l 221 -110 l 221 625 q 117 496 169 554 q 98 536 111 511 q 70 586 85 561 q 45 627 56 611 q 222 866 139 724 q 358 1161 305 1008 m 1143 850 l 1272 850 l 1272 -109 l 1143 -109 l 1143 -28 l 497 -28 l 497 843 l 624 843 l 624 93 l 815 93 l 815 1141 l 945 1141 l 945 93 l 1143 93 l 1143 850 z "},"代":{"ha":1389,"x_min":29,"x_max":1348,"o":"m 1300 922 l 1197 854 q 1143 926 1177 886 q 1068 1007 1109 966 q 989 1083 1028 1048 l 1084 1145 q 1166 1072 1124 1112 q 1242 994 1207 1033 q 1300 922 1278 954 m 421 1153 l 543 1112 q 478 976 514 1044 q 403 843 442 907 l 403 -107 l 269 -107 l 269 653 q 103 471 189 549 q 83 512 96 487 q 55 561 70 536 q 29 600 40 585 q 179 753 106 665 q 314 944 252 842 q 421 1153 376 1046 m 1324 685 l 913 632 q 970 333 935 462 q 1056 130 1006 204 q 1173 47 1106 55 q 1240 279 1221 45 q 1294 237 1259 259 q 1348 208 1329 216 q 1305 14 1331 83 q 1247 -82 1280 -56 q 1178 -107 1215 -109 q 984 -6 1062 -97 q 859 242 907 84 q 785 614 811 401 l 481 575 l 461 697 l 772 736 q 747 1145 755 926 l 878 1145 q 886 942 881 1040 q 900 754 892 844 l 1307 806 l 1324 685 z "},"令":{"ha":1389,"x_min":49,"x_max":1352,"o":"m 1103 542 l 1200 484 q 1022 299 1123 401 q 823 102 922 198 q 972 -7 912 42 l 873 -117 q 782 -43 837 -84 q 665 40 728 -3 q 537 124 602 83 q 415 200 473 165 l 505 294 q 606 236 553 267 q 713 172 659 205 q 837 293 774 231 q 953 410 900 355 l 232 410 l 232 533 l 1080 533 l 1103 542 m 850 633 l 753 549 q 699 615 732 578 q 626 689 665 652 q 551 758 587 727 l 643 832 q 719 767 679 803 q 794 697 760 732 q 850 633 829 662 m 704 1174 l 823 1111 q 783 1063 805 1086 q 951 927 855 994 q 1152 804 1048 860 q 1352 711 1256 748 q 1299 656 1327 691 q 1254 596 1271 622 q 1066 696 1164 637 q 874 828 968 756 q 703 975 780 899 q 438 759 584 857 q 143 590 292 660 q 101 648 127 616 q 49 703 75 679 q 296 826 173 753 q 526 988 420 899 q 704 1174 632 1076 z "},"以":{"ha":1389,"x_min":126,"x_max":1344,"o":"m 832 713 l 715 643 q 664 745 696 688 q 592 861 631 802 q 513 971 552 920 l 623 1031 q 704 924 663 981 q 778 812 745 867 q 832 713 812 757 m 358 264 l 653 406 q 668 342 658 378 q 686 285 677 307 q 447 164 538 210 q 307 90 357 117 q 235 46 258 62 q 197 17 212 31 q 165 72 188 39 q 126 121 143 104 q 164 152 143 132 q 202 198 186 171 q 218 260 218 226 l 218 1064 l 358 1064 l 358 264 m 1344 -20 l 1229 -106 q 1163 -11 1204 -63 q 1072 98 1122 42 q 971 207 1022 154 q 811 24 905 104 q 586 -118 716 -56 q 560 -82 578 -104 q 523 -39 543 -60 q 488 -5 503 -18 q 753 158 649 60 q 916 392 857 256 q 1004 706 976 528 q 1042 1108 1031 884 l 1179 1103 q 1134 667 1166 859 q 1034 325 1101 474 q 1150 208 1090 269 q 1261 87 1210 146 q 1344 -20 1312 28 z "},"仪":{"ha":1389,"x_min":31,"x_max":1341,"o":"m 1000 867 l 892 807 q 856 891 879 843 q 804 990 833 939 q 746 1084 775 1041 l 848 1136 q 908 1046 878 1095 q 963 950 939 998 q 1000 867 987 903 m 359 1160 l 481 1124 q 417 975 452 1048 q 343 829 382 901 l 343 -107 l 221 -107 l 221 639 q 102 494 165 560 q 82 535 95 510 q 55 585 69 559 q 31 625 41 610 q 157 776 96 690 q 270 960 218 862 q 359 1160 322 1059 m 1145 1083 l 1274 1063 q 1160 622 1231 827 q 961 254 1088 416 q 1130 107 1035 171 q 1341 0 1225 43 q 1292 -53 1319 -19 q 1250 -111 1265 -86 q 1038 2 1133 -64 q 868 150 944 68 q 688 6 789 72 q 461 -111 587 -60 q 425 -60 449 -90 q 382 -11 401 -30 q 612 103 511 38 q 789 249 712 168 q 613 604 681 403 q 503 1046 545 804 l 625 1064 q 721 675 659 854 q 880 354 782 495 q 1051 688 991 504 q 1145 1083 1111 873 z "},"们":{"ha":1389,"x_min":49,"x_max":1280,"o":"m 302 1157 l 424 1124 q 374 975 401 1050 q 315 827 348 899 l 315 -110 l 193 -110 l 193 587 q 115 472 155 522 q 98 514 110 488 q 73 567 87 541 q 49 610 60 593 q 150 766 102 677 q 236 955 197 855 q 302 1157 275 1055 m 460 -110 l 460 876 l 586 876 l 586 -110 l 460 -110 m 518 1108 l 618 1164 q 680 1077 648 1124 q 740 983 712 1029 q 785 903 768 937 l 679 839 q 637 921 664 874 q 579 1018 611 968 q 518 1108 548 1067 m 1280 1117 l 1280 41 q 1267 -39 1280 -10 q 1219 -83 1254 -68 q 1131 -103 1186 -99 q 994 -107 1076 -107 q 979 -46 991 -82 q 954 14 966 -10 q 1058 11 1008 11 q 1122 12 1107 12 q 1146 19 1140 12 q 1153 43 1153 26 l 1153 1000 l 798 1000 l 798 1117 l 1280 1117 z "},"仰":{"ha":1389,"x_min":39,"x_max":1282,"o":"m 319 1165 l 439 1131 q 390 992 417 1062 q 332 856 362 923 l 332 -110 l 210 -110 l 210 628 q 158 549 184 586 q 106 481 132 513 q 87 522 99 496 q 63 574 76 547 q 39 616 50 600 q 149 772 96 684 q 245 961 201 861 q 319 1165 288 1062 m 586 272 l 791 345 q 796 287 791 319 q 804 235 800 254 q 645 174 706 198 q 550 135 585 150 q 499 110 516 119 q 473 92 483 100 q 446 139 465 111 q 412 180 427 166 q 450 225 430 195 q 469 306 469 256 l 469 1018 q 634 1075 549 1041 q 774 1139 718 1109 l 860 1043 q 728 994 800 1017 q 586 949 657 970 l 586 272 m 1282 1004 l 1282 256 q 1272 182 1282 211 q 1232 138 1261 153 q 1158 117 1202 121 q 1050 113 1114 113 q 1034 175 1047 138 q 1007 236 1021 212 q 1088 234 1052 234 q 1136 235 1124 235 q 1160 258 1160 235 l 1160 890 l 971 890 l 971 -111 l 847 -111 l 847 1004 l 1282 1004 z "},"仲":{"ha":1389,"x_min":45,"x_max":1296,"o":"m 355 1162 l 479 1125 q 417 975 451 1050 q 343 828 382 900 l 343 -109 l 221 -109 l 221 629 q 117 496 169 556 q 97 537 110 512 q 70 587 84 562 q 45 628 56 612 q 165 779 107 693 q 272 963 223 865 q 355 1162 321 1061 m 936 454 l 1169 454 l 1169 765 l 936 765 l 936 454 m 583 454 l 808 454 l 808 765 l 583 765 l 583 454 m 936 885 l 1296 885 l 1296 258 l 1169 258 l 1169 335 l 936 335 l 936 -107 l 808 -107 l 808 335 l 583 335 l 583 249 l 461 249 l 461 885 l 808 885 l 808 1150 l 936 1150 l 936 885 z "},"件":{"ha":1389,"x_min":45,"x_max":1325,"o":"m 361 1160 l 482 1124 q 420 972 455 1048 q 346 823 385 897 l 346 -107 l 224 -107 l 224 629 q 170 558 197 593 q 115 494 142 524 q 97 535 109 510 q 70 585 84 559 q 45 625 56 610 q 166 776 108 690 q 275 960 225 862 q 361 1160 325 1059 m 1325 489 l 1325 363 l 957 363 l 957 -109 l 828 -109 l 828 363 l 443 363 l 443 489 l 828 489 l 828 764 l 631 764 q 587 657 610 707 q 538 568 564 608 q 484 601 519 582 q 427 631 450 620 q 527 839 485 714 q 591 1093 569 963 l 717 1068 q 696 979 707 1023 q 672 890 685 934 l 828 890 l 828 1149 l 957 1149 l 957 890 l 1263 890 l 1263 764 l 957 764 l 957 489 l 1325 489 z "},"价":{"ha":1389,"x_min":52,"x_max":1348,"o":"m 364 1164 l 485 1128 q 423 977 456 1052 q 351 831 390 903 l 351 -109 l 222 -109 l 222 623 q 173 557 197 589 q 122 498 149 526 q 104 539 117 514 q 77 589 92 564 q 52 629 62 614 q 172 781 114 694 q 279 965 230 867 q 364 1164 328 1063 m 604 433 l 604 619 l 734 619 l 734 432 q 726 301 734 372 q 693 156 718 230 q 621 11 669 82 q 496 -121 574 -60 q 452 -73 479 -99 q 399 -29 424 -46 q 511 81 470 21 q 573 205 553 142 q 598 328 593 269 q 604 433 604 387 m 987 -107 l 987 623 l 1121 623 l 1121 -107 l 987 -107 m 817 1169 l 953 1146 q 941 1115 947 1131 q 926 1082 934 1099 q 1041 924 974 1002 q 1188 783 1109 847 q 1348 676 1267 718 q 1299 628 1325 659 q 1257 574 1272 597 q 1044 742 1149 638 q 861 965 940 846 q 686 744 790 850 q 437 554 583 637 q 402 611 426 579 q 358 660 378 642 q 572 811 481 726 q 723 988 662 896 q 817 1169 783 1080 z "},"任":{"ha":1389,"x_min":33,"x_max":1329,"o":"m 396 1161 l 522 1122 q 380 833 464 977 l 380 -109 l 253 -109 l 253 643 q 111 482 182 551 q 91 522 105 497 q 62 573 77 547 q 33 614 46 598 q 173 768 106 680 q 298 957 241 856 q 396 1161 355 1057 m 1329 458 l 958 458 l 958 65 l 1310 65 l 1310 -58 l 488 -58 l 488 65 l 828 65 l 828 458 l 435 458 l 435 583 l 828 583 l 828 922 q 669 898 749 909 q 515 879 590 888 q 499 934 511 902 q 476 989 488 966 q 734 1028 603 1005 q 984 1078 866 1050 q 1187 1137 1102 1106 l 1282 1028 q 1130 984 1213 1005 q 958 946 1047 964 l 958 583 l 1329 583 l 1329 458 z "},"份":{"ha":1389,"x_min":45,"x_max":1353,"o":"m 351 1158 l 472 1122 q 414 976 446 1048 q 345 832 381 903 l 345 -110 l 216 -110 l 216 621 q 166 554 192 587 q 115 493 141 522 q 97 534 110 509 q 70 584 85 559 q 45 624 56 609 q 163 775 106 689 q 268 959 220 861 q 351 1158 317 1057 m 942 1116 l 1059 1137 q 1125 925 1086 1016 q 1219 765 1164 835 q 1353 636 1275 695 q 1303 586 1328 616 q 1264 528 1278 556 q 1224 563 1243 545 q 1187 599 1205 580 q 1187 587 1187 592 q 1186 578 1186 582 q 1166 240 1177 368 q 1142 46 1156 113 q 1107 -46 1128 -20 q 1064 -82 1087 -72 q 1010 -97 1041 -93 q 938 -101 981 -102 q 846 -98 895 -100 q 836 -39 845 -73 q 811 20 826 -5 q 893 15 856 16 q 950 14 931 14 q 976 17 966 14 q 997 32 987 20 q 1021 100 1010 48 q 1040 251 1031 151 q 1057 513 1049 351 l 838 513 q 735 131 812 283 q 501 -114 658 -21 q 462 -64 490 -95 q 414 -17 435 -33 q 624 189 557 57 q 710 513 691 321 l 555 513 l 555 599 q 513 555 534 576 q 469 514 492 534 q 433 573 458 536 q 390 629 409 610 q 571 842 496 711 q 686 1128 646 972 l 812 1100 q 719 847 775 966 q 586 633 662 728 l 1156 633 q 1026 841 1076 725 q 942 1116 976 957 z "},"仿":{"ha":1389,"x_min":45,"x_max":1332,"o":"m 359 1165 l 484 1126 q 420 975 455 1051 q 346 827 385 899 l 346 -109 l 220 -109 l 220 625 q 169 559 195 591 q 117 498 142 527 q 98 540 111 515 q 70 591 85 566 q 45 632 56 616 q 166 782 108 696 q 275 965 225 867 q 359 1165 324 1063 m 800 1137 l 928 1166 q 968 1060 947 1118 q 997 961 988 1002 l 863 925 q 836 1026 854 966 q 800 1137 818 1086 m 1332 800 l 812 800 q 809 711 812 755 q 803 623 807 666 l 1243 623 q 1242 602 1243 623 q 1240 568 1241 581 q 1221 238 1232 363 q 1197 47 1211 113 q 1160 -43 1182 -18 q 1111 -80 1137 -69 q 1050 -94 1086 -92 q 967 -98 1019 -98 q 860 -96 915 -98 q 847 -35 858 -68 q 819 24 836 -1 q 922 18 875 20 q 991 17 968 17 q 1021 20 1009 17 q 1043 36 1033 24 q 1070 101 1059 51 q 1090 249 1081 151 q 1105 501 1099 346 l 790 501 q 741 263 775 376 q 644 55 707 151 q 481 -113 581 -40 q 438 -63 465 -90 q 385 -21 411 -37 q 537 135 481 45 q 623 332 594 224 q 661 558 651 439 q 675 800 671 677 l 450 800 l 450 925 l 1332 925 l 1332 800 z "},"企":{"ha":1389,"x_min":45,"x_max":1352,"o":"m 774 363 l 774 47 l 1286 47 l 1286 -71 l 113 -71 l 113 47 l 278 47 l 278 545 l 404 545 l 404 47 l 637 47 l 637 782 l 774 782 l 774 478 l 1160 478 l 1160 363 l 774 363 m 684 1178 l 800 1122 q 785 1100 793 1111 q 768 1078 777 1089 q 1048 843 899 931 q 1352 693 1196 755 q 1303 642 1327 672 q 1268 581 1280 611 q 1071 684 1167 628 q 881 814 975 740 q 696 989 787 888 q 436 757 583 861 q 134 582 290 653 q 94 638 119 607 q 45 692 69 669 q 291 815 170 741 q 513 981 412 889 q 684 1178 614 1074 z "},"伊":{"ha":1389,"x_min":31,"x_max":1331,"o":"m 375 1162 l 496 1122 q 432 983 467 1053 q 359 847 398 913 l 359 -109 l 237 -109 l 237 661 q 171 574 205 615 q 102 498 136 534 q 82 539 95 514 q 56 589 70 564 q 31 631 41 614 q 163 780 98 694 q 282 963 227 865 q 375 1162 336 1061 m 1109 435 l 1109 636 l 869 636 l 869 576 q 868 506 869 541 q 863 435 867 471 l 1109 435 m 869 954 l 869 755 l 1109 755 l 1109 954 l 869 954 m 1331 755 l 1331 636 l 1236 636 l 1236 245 l 1109 245 l 1109 314 l 843 314 q 784 154 824 232 q 675 7 745 76 q 498 -115 606 -61 q 459 -64 485 -94 q 411 -16 433 -34 q 616 132 547 45 q 713 314 686 218 l 494 314 l 494 435 l 734 435 q 741 507 739 471 q 742 576 742 542 l 742 636 l 419 636 l 419 755 l 742 755 l 742 954 l 510 954 l 510 1074 l 1236 1074 l 1236 755 l 1331 755 z "},"伍":{"ha":1389,"x_min":37,"x_max":1333,"o":"m 368 1161 l 488 1124 q 429 985 461 1054 q 361 848 397 916 l 361 -109 l 236 -109 l 236 647 q 172 562 205 602 q 106 486 139 522 q 88 527 100 502 q 62 578 76 553 q 37 618 49 603 q 165 772 104 684 q 279 959 227 859 q 368 1161 331 1059 m 1075 507 l 825 507 q 787 273 807 386 q 750 66 768 159 l 1034 66 q 1057 294 1046 176 q 1075 507 1069 411 m 1164 66 l 1333 66 l 1333 -54 l 429 -54 l 429 66 l 618 66 q 657 274 638 161 q 696 507 677 387 l 498 507 l 498 628 l 715 628 q 737 786 727 708 q 757 937 747 863 l 488 937 l 488 1059 l 1287 1059 l 1287 937 l 889 937 q 868 785 878 863 q 844 628 857 707 l 1096 628 l 1118 633 l 1213 625 q 1201 451 1208 546 q 1184 258 1194 357 q 1164 66 1175 159 z "},"伏":{"ha":1389,"x_min":43,"x_max":1336,"o":"m 1268 892 l 1162 828 q 1122 902 1147 860 q 1066 990 1097 945 q 1007 1074 1036 1035 l 1104 1129 q 1165 1049 1134 1093 q 1224 964 1197 1006 q 1268 892 1251 923 m 372 1164 l 496 1126 q 435 980 469 1053 q 363 838 401 907 l 363 -110 l 233 -110 l 233 633 q 175 558 205 594 q 114 489 144 522 q 95 530 108 505 q 68 582 82 556 q 43 623 54 607 q 170 774 109 688 q 283 961 231 861 q 372 1164 336 1061 m 1314 642 l 935 642 q 1023 377 968 500 q 1156 159 1078 254 q 1336 4 1234 63 q 1284 -48 1312 -15 q 1239 -109 1255 -81 q 1021 114 1109 -24 q 875 427 933 252 q 756 146 838 285 q 526 -111 675 7 q 477 -66 508 -90 q 419 -25 446 -43 q 622 189 548 76 q 732 416 696 301 q 779 642 768 532 l 440 642 l 440 768 l 787 768 q 789 799 789 784 q 789 829 789 814 l 789 1161 l 920 1161 l 920 829 q 919 799 920 814 q 918 768 919 784 l 1314 768 l 1314 642 z "},"伐":{"ha":1389,"x_min":50,"x_max":1337,"o":"m 1240 961 l 1153 880 q 1089 941 1128 907 q 1008 1011 1050 976 q 928 1078 965 1047 l 1013 1147 q 1093 1085 1049 1120 q 1175 1018 1136 1051 q 1240 961 1215 985 m 396 1160 l 521 1122 q 457 977 493 1049 q 382 835 422 905 l 382 -107 l 253 -107 l 253 637 q 190 558 222 597 q 125 488 157 519 q 106 528 119 503 q 78 577 93 553 q 50 616 62 602 q 183 769 119 682 q 302 956 248 856 q 396 1160 357 1055 m 1140 659 l 1265 612 q 1139 414 1210 506 q 983 243 1067 322 q 1068 79 1022 139 q 1162 20 1114 20 q 1204 77 1190 20 q 1225 265 1218 134 q 1278 224 1246 244 q 1337 195 1310 205 q 1305 7 1326 74 q 1247 -85 1284 -59 q 1153 -111 1211 -111 q 997 -41 1065 -111 q 878 151 929 30 q 704 34 794 87 q 517 -62 614 -20 q 477 -4 503 -39 q 429 52 450 31 q 832 278 654 136 q 785 465 806 364 q 753 676 765 566 l 437 646 l 427 766 l 741 799 q 727 971 732 883 q 722 1149 723 1059 l 859 1149 q 861 977 857 1061 q 872 810 865 892 l 1293 852 l 1303 733 l 885 690 q 910 526 895 605 q 943 379 924 447 q 1053 511 1002 441 q 1140 659 1103 581 z "},"休":{"ha":1389,"x_min":31,"x_max":1357,"o":"m 396 1157 l 524 1117 q 376 822 463 965 l 376 -106 l 249 -106 l 249 637 q 179 554 215 594 q 107 481 143 515 q 86 522 100 496 q 57 573 73 548 q 31 614 42 599 q 172 765 104 678 q 297 951 240 851 q 396 1157 355 1051 m 1318 696 l 1003 696 q 1101 491 1044 591 q 1223 307 1157 391 q 1357 165 1289 222 q 1305 117 1333 146 q 1260 61 1276 87 q 1084 283 1167 149 q 936 568 1001 417 l 936 -110 l 808 -110 l 808 533 q 656 263 742 389 q 476 53 571 138 q 431 107 460 77 q 380 155 402 137 q 523 298 454 212 q 649 486 591 384 q 750 696 707 589 l 437 696 l 437 822 l 808 822 l 808 1145 l 936 1145 l 936 822 l 1318 822 l 1318 696 z "},"众":{"ha":1389,"x_min":69,"x_max":1331,"o":"m 865 661 l 996 647 q 984 555 991 600 q 968 467 977 511 q 1038 301 993 387 q 1152 140 1084 215 q 1311 21 1219 66 q 1263 -33 1291 1 q 1222 -93 1236 -67 q 1040 70 1115 -31 q 918 275 965 170 q 668 -110 836 32 q 616 -67 652 -93 q 557 -26 581 -41 q 772 251 703 77 q 865 661 842 426 m 675 1175 l 802 1125 q 766 1060 783 1089 q 912 902 824 976 q 1107 771 1000 827 q 1331 684 1214 715 q 1282 630 1308 665 q 1240 570 1256 595 q 939 726 1079 623 q 700 961 798 829 q 552 799 634 873 q 374 668 469 726 l 501 654 q 464 441 487 542 q 557 363 511 405 q 643 282 604 321 q 707 211 682 242 l 619 117 q 537 212 588 157 q 432 317 487 266 q 330 81 391 185 q 182 -100 269 -24 q 150 -74 171 -90 q 108 -44 130 -59 q 71 -20 86 -29 q 276 261 208 85 q 370 665 345 436 q 268 608 319 634 q 161 559 216 583 q 120 622 146 588 q 69 679 94 655 q 319 794 202 724 q 527 961 436 865 q 675 1175 618 1057 z "},"优":{"ha":1389,"x_min":50,"x_max":1328,"o":"m 1243 930 l 1149 857 q 1100 923 1130 886 q 1035 999 1069 960 q 966 1069 1000 1038 l 1055 1132 q 1125 1066 1089 1102 q 1192 994 1161 1029 q 1243 930 1223 958 m 364 1160 l 486 1124 q 421 966 458 1044 q 345 814 385 888 l 345 -109 l 221 -109 l 221 618 q 172 553 196 584 q 121 494 147 523 q 103 536 115 511 q 76 586 90 561 q 50 625 61 610 q 172 776 113 690 q 280 960 231 862 q 364 1160 329 1059 m 1317 721 l 827 721 q 779 396 814 551 q 671 114 744 242 q 469 -107 597 -15 q 428 -54 455 -82 q 376 -8 400 -26 q 559 184 492 71 q 657 433 625 296 q 700 721 689 570 l 410 721 l 410 843 l 707 843 q 711 1147 711 993 l 839 1147 q 838 994 839 1070 q 833 843 836 918 l 1317 843 l 1317 721 m 1046 45 l 1164 45 q 1193 60 1183 45 q 1207 120 1203 75 q 1214 257 1211 166 q 1268 225 1234 239 q 1328 204 1303 212 q 1307 35 1322 96 q 1261 -50 1292 -25 q 1175 -74 1230 -74 l 1028 -74 q 934 -59 967 -74 q 888 -6 901 -43 q 875 96 875 31 l 875 623 l 1002 623 l 1002 96 q 1010 54 1002 64 q 1046 45 1018 45 z "},"伙":{"ha":1389,"x_min":46,"x_max":1346,"o":"m 1186 913 l 1325 875 q 1251 664 1292 772 q 1174 479 1210 556 l 1057 515 q 1105 637 1080 568 q 1151 779 1130 707 q 1186 913 1173 850 m 582 458 l 457 507 q 500 623 481 555 q 533 766 519 691 q 553 908 546 840 l 675 890 q 658 740 670 818 q 627 588 646 661 q 582 458 608 515 m 372 1165 l 496 1125 q 367 850 441 984 l 367 -107 l 232 -107 l 232 639 q 117 500 174 559 q 98 540 111 515 q 71 592 85 566 q 46 635 56 618 q 171 784 111 699 q 284 966 232 869 q 372 1165 336 1064 m 814 1152 l 951 1152 q 950 876 951 1006 q 937 631 948 746 q 1006 353 960 475 q 1134 144 1053 230 q 1346 14 1216 58 q 1299 -41 1325 -6 q 1260 -104 1274 -76 q 1022 63 1111 -45 q 884 325 933 171 q 749 73 840 181 q 498 -110 658 -35 q 458 -53 485 -85 q 408 -3 431 -20 q 614 132 536 54 q 733 311 692 210 q 792 538 775 412 q 811 818 808 665 q 814 1152 813 970 z "},"会":{"ha":1389,"x_min":58,"x_max":1337,"o":"m 131 353 l 131 479 l 1268 479 l 1268 353 l 675 353 q 553 208 618 279 q 421 77 488 138 l 986 115 q 843 262 916 196 l 953 319 q 1074 202 1014 266 q 1184 76 1134 139 q 1265 -37 1234 14 l 1149 -109 q 1117 -56 1135 -84 q 1075 3 1098 -27 q 720 -26 863 -14 q 487 -45 577 -37 q 347 -58 397 -53 q 269 -69 296 -64 q 225 -82 243 -75 q 206 -19 219 -60 q 180 50 193 23 q 230 73 205 55 q 286 121 255 92 q 338 170 304 136 q 413 251 372 204 q 497 353 455 298 l 131 353 m 422 745 l 987 745 q 829 857 904 798 q 697 972 755 916 q 569 852 638 909 q 422 745 499 795 m 696 1168 l 815 1114 q 795 1085 806 1099 q 772 1055 784 1070 q 929 931 838 994 q 1125 813 1020 868 q 1337 722 1231 758 q 1290 669 1317 703 q 1247 610 1262 635 q 1133 661 1190 631 q 1022 722 1076 690 l 1022 625 l 372 625 l 372 711 q 264 650 319 680 q 150 595 208 621 q 108 653 136 618 q 58 707 80 688 q 313 834 191 761 q 533 992 435 907 q 696 1168 632 1077 z "},"伞":{"ha":1389,"x_min":41,"x_max":1353,"o":"m 760 815 l 760 313 l 1312 313 l 1312 189 l 760 189 l 760 -110 l 625 -110 l 625 189 l 72 189 l 72 313 l 625 313 l 625 815 l 760 815 m 265 652 l 372 699 q 432 608 402 657 q 486 510 462 558 q 522 424 510 462 l 407 368 q 375 455 397 406 q 323 556 353 505 q 265 652 294 607 m 1010 699 l 1137 652 q 1046 500 1094 577 q 958 370 999 424 l 859 414 q 913 502 884 452 q 967 603 941 551 q 1010 699 992 655 m 705 1177 l 810 1118 q 791 1096 800 1107 q 771 1074 781 1085 q 1059 895 911 963 q 1353 781 1206 827 q 1304 727 1329 760 q 1268 665 1280 694 q 981 794 1124 720 q 689 993 838 869 q 422 801 569 887 q 127 659 275 715 q 90 717 114 684 q 41 774 66 749 q 290 876 165 814 q 523 1013 414 937 q 705 1177 631 1090 z "},"伟":{"ha":1389,"x_min":54,"x_max":1317,"o":"m 367 1158 l 489 1122 q 427 972 462 1046 q 354 827 393 897 l 354 -110 l 232 -110 l 232 628 q 179 557 206 591 q 125 494 152 524 q 106 535 119 510 q 79 585 93 559 q 54 625 64 610 q 175 776 117 690 q 282 960 233 862 q 367 1158 331 1058 m 920 476 l 1317 476 q 1316 458 1317 476 q 1314 428 1316 440 q 1297 224 1305 303 q 1277 102 1289 146 q 1249 40 1265 59 q 1215 13 1232 22 q 1173 1 1197 5 q 1121 -2 1154 -2 q 1053 -1 1089 -3 q 1043 56 1050 24 q 1022 111 1035 88 q 1078 107 1053 108 q 1116 107 1102 107 q 1152 121 1139 107 q 1174 188 1163 136 q 1193 355 1185 241 l 920 355 l 920 -109 l 796 -109 l 796 355 l 431 355 l 431 476 l 796 476 l 796 615 l 507 615 l 507 734 l 796 734 l 796 867 l 472 867 l 472 986 l 796 986 l 796 1164 l 920 1164 l 920 986 l 1286 986 l 1286 867 l 920 867 l 920 734 l 1240 734 l 1240 615 l 920 615 l 920 476 z "},"传":{"ha":1389,"x_min":29,"x_max":1324,"o":"m 358 1160 l 479 1122 q 415 974 451 1048 q 340 828 380 899 l 340 -109 l 215 -109 l 215 633 q 100 493 159 557 q 81 534 94 509 q 54 585 68 559 q 29 625 39 610 q 156 776 94 690 q 269 960 217 862 q 358 1160 321 1059 m 1324 633 l 775 633 q 753 559 764 595 q 733 489 743 524 l 1153 489 l 1174 496 l 1263 439 q 1118 276 1199 364 q 957 103 1037 187 q 1038 41 1001 71 q 1101 -16 1074 11 l 1008 -113 q 909 -21 970 -72 q 777 80 848 29 q 640 172 707 132 l 730 250 q 794 212 762 233 q 857 172 826 192 q 951 272 904 221 q 1039 368 998 322 l 558 368 q 598 491 577 423 q 643 633 620 558 l 408 633 l 408 753 l 676 753 q 696 823 687 787 q 714 893 705 859 l 488 893 l 488 1011 l 746 1011 q 765 1085 755 1048 q 782 1156 774 1122 l 909 1137 q 894 1076 903 1107 q 876 1011 886 1044 l 1257 1011 l 1257 893 l 846 893 q 827 823 836 859 q 808 753 818 787 l 1324 753 l 1324 633 z "},"伤":{"ha":1389,"x_min":32,"x_max":1287,"o":"m 361 1161 l 484 1124 q 417 969 454 1046 q 339 819 380 892 l 339 -109 l 216 -109 l 216 631 q 161 559 190 593 q 103 496 132 526 q 83 536 96 511 q 56 586 71 561 q 32 627 42 611 q 158 777 97 691 q 272 961 220 863 q 361 1161 323 1059 m 882 596 l 1263 596 q 1262 575 1263 596 q 1261 542 1262 554 q 1248 231 1255 349 q 1229 51 1241 113 q 1197 -35 1217 -11 q 1152 -72 1177 -61 q 1095 -86 1128 -82 q 1009 -90 1062 -90 q 897 -86 956 -90 q 885 -27 895 -60 q 859 32 874 7 q 965 26 916 28 q 1036 25 1015 25 q 1068 28 1056 25 q 1089 41 1080 31 q 1111 102 1102 56 q 1125 240 1120 149 q 1136 476 1131 330 l 868 476 q 810 241 850 352 q 695 40 770 131 q 497 -117 620 -52 q 459 -64 484 -93 q 412 -18 435 -36 q 588 111 522 35 q 690 280 654 187 q 741 476 725 372 l 479 476 l 479 596 l 755 596 q 761 691 759 643 q 765 787 763 739 l 895 787 q 882 596 890 690 m 725 965 l 1287 965 l 1287 843 l 660 843 q 591 739 627 788 q 517 652 555 690 q 468 692 500 667 q 412 730 435 716 q 560 920 495 806 q 663 1161 625 1035 l 789 1133 q 759 1048 775 1090 q 725 965 743 1006 z "},"伦":{"ha":1389,"x_min":40,"x_max":1353,"o":"m 354 1164 l 476 1126 q 413 974 448 1049 q 339 825 378 898 l 339 -109 l 216 -109 l 216 629 q 164 561 191 594 q 113 498 138 528 q 94 539 106 514 q 66 589 81 564 q 40 629 52 614 q 162 780 104 694 q 270 964 220 865 q 354 1164 319 1062 m 835 1173 l 974 1146 q 955 1111 964 1128 q 935 1076 945 1093 q 1054 924 985 1000 q 1200 785 1123 849 q 1353 679 1277 722 q 1303 633 1330 663 q 1261 578 1277 603 q 1055 750 1159 646 q 868 970 950 854 q 738 807 811 887 q 575 654 665 726 l 696 654 l 696 386 q 833 451 762 415 q 970 523 905 486 q 1088 595 1036 560 l 1171 485 q 1020 403 1101 444 q 854 325 938 362 q 696 260 771 288 l 696 102 q 713 46 696 59 q 793 33 730 33 l 1057 33 q 1111 47 1093 33 q 1137 103 1129 62 q 1150 225 1145 144 q 1205 195 1171 208 q 1267 175 1240 181 q 1239 18 1258 75 q 1180 -61 1221 -38 q 1065 -83 1139 -83 l 781 -83 q 650 -67 696 -83 q 585 -11 604 -51 q 567 102 567 29 l 567 648 q 508 603 538 625 q 444 559 477 581 q 405 614 431 584 q 358 661 379 644 q 571 818 478 731 q 729 996 663 905 q 835 1173 795 1088 z "},"伪":{"ha":1389,"x_min":36,"x_max":1287,"o":"m 708 901 l 590 844 q 539 938 574 883 q 468 1036 503 992 l 579 1086 q 652 992 614 1044 q 708 901 690 940 m 366 1160 l 490 1122 q 427 978 461 1050 q 353 838 393 906 l 353 -107 l 228 -107 l 228 646 q 169 569 199 605 q 109 503 138 534 q 89 542 102 517 q 62 592 76 567 q 36 632 47 616 q 163 781 102 696 q 276 962 224 865 q 366 1160 328 1059 m 872 814 l 1287 814 q 1286 790 1287 814 q 1284 753 1286 766 q 1271 413 1278 553 q 1255 184 1264 274 q 1233 43 1246 94 q 1202 -31 1219 -7 q 1152 -74 1179 -62 q 1090 -92 1126 -86 q 1004 -95 1057 -96 q 893 -92 951 -95 q 879 -29 890 -64 q 851 33 868 6 q 958 27 909 28 q 1031 26 1006 26 q 1061 31 1048 26 q 1083 49 1073 35 q 1114 136 1101 68 q 1136 338 1126 204 q 1153 689 1145 472 l 860 689 q 845 591 853 640 q 827 493 837 541 l 925 545 q 988 467 956 509 q 1048 382 1021 424 q 1090 309 1075 341 l 977 244 q 912 359 956 292 q 825 482 869 426 q 703 158 785 312 q 471 -107 620 3 q 427 -59 455 -84 q 372 -16 399 -33 q 564 181 491 68 q 675 425 636 295 q 729 689 713 555 l 447 689 l 447 814 l 742 814 q 749 988 748 903 q 751 1149 750 1073 l 884 1149 q 880 988 882 1073 q 872 814 878 903 z "},"伯":{"ha":1389,"x_min":47,"x_max":1231,"o":"m 375 1161 l 498 1132 q 438 959 473 1044 q 364 794 404 873 l 364 -113 l 236 -113 l 236 582 q 126 452 184 511 q 104 487 119 465 q 75 531 90 509 q 47 567 59 553 q 241 828 157 671 q 375 1161 326 985 m 642 86 l 1097 86 l 1097 380 l 642 380 l 642 86 m 1097 794 l 642 794 l 642 507 l 1097 507 l 1097 794 m 868 917 l 1231 917 l 1231 -97 l 1097 -97 l 1097 -43 l 642 -43 l 642 -107 l 513 -107 l 513 917 l 733 917 q 774 1042 754 975 q 804 1165 793 1109 l 954 1140 q 912 1026 935 1084 q 868 917 890 968 z "},"估":{"ha":1389,"x_min":31,"x_max":1332,"o":"m 359 1160 l 481 1122 q 416 970 452 1046 q 339 822 380 894 l 339 -107 l 216 -107 l 216 633 q 102 494 159 553 q 82 535 95 510 q 55 585 69 559 q 31 625 41 610 q 157 776 96 690 q 270 960 218 862 q 359 1160 322 1059 m 1120 72 l 1120 363 l 656 363 l 656 72 l 1120 72 m 1332 747 l 951 747 l 951 485 l 1251 485 l 1251 -103 l 1120 -103 l 1120 -50 l 656 -50 l 656 -109 l 528 -109 l 528 485 l 818 485 l 818 747 l 456 747 l 456 872 l 818 872 l 818 1166 l 951 1166 l 951 872 l 1332 872 l 1332 747 z "},"伴":{"ha":1389,"x_min":31,"x_max":1336,"o":"m 1153 1107 l 1283 1060 q 1206 901 1247 981 q 1131 762 1165 820 l 1025 804 q 1071 897 1046 844 q 1117 1005 1095 950 q 1153 1107 1139 1061 m 726 807 l 608 760 q 583 849 600 798 q 542 953 565 899 q 494 1054 519 1007 l 603 1096 q 654 997 629 1050 q 697 895 678 945 q 726 807 717 845 m 375 1162 l 496 1124 q 433 984 468 1054 q 359 847 398 914 l 359 -106 l 237 -106 l 237 661 q 102 500 171 572 q 82 539 95 515 q 55 589 69 564 q 31 631 41 614 q 163 780 98 694 q 282 963 227 865 q 375 1162 336 1061 m 1336 389 l 1336 269 l 942 269 l 942 -109 l 811 -109 l 811 269 l 431 269 l 431 389 l 811 389 l 811 607 l 486 607 l 486 726 l 811 726 l 811 1149 l 942 1149 l 942 726 l 1278 726 l 1278 607 l 942 607 l 942 389 l 1336 389 z "},"伶":{"ha":1389,"x_min":31,"x_max":1329,"o":"m 359 1160 l 481 1122 q 417 974 452 1048 q 343 828 382 900 l 343 -109 l 215 -109 l 215 629 q 160 558 189 591 q 102 493 131 524 q 82 534 95 509 q 55 584 69 559 q 31 624 41 609 q 157 775 96 689 q 270 960 218 861 q 359 1160 322 1059 m 1147 525 l 1240 465 q 1148 334 1202 401 q 1034 202 1093 266 q 921 89 975 139 q 1003 29 964 58 q 1068 -24 1041 1 l 974 -111 q 866 -23 932 -74 q 726 81 800 28 q 586 176 652 134 l 675 254 q 743 210 706 235 q 817 161 779 186 q 932 273 871 209 q 1042 399 993 336 l 509 399 l 509 518 l 1125 518 l 1147 525 m 729 718 l 831 772 q 910 691 870 736 q 972 615 949 646 l 865 549 q 805 631 844 582 q 729 718 766 680 m 822 1166 l 945 1126 q 932 1102 938 1114 q 921 1079 926 1090 q 1036 928 968 1003 q 1180 788 1104 852 q 1329 682 1256 724 q 1278 633 1306 663 q 1234 576 1250 602 q 1103 685 1169 621 q 973 823 1036 749 q 859 975 910 897 q 677 753 780 857 q 453 570 574 650 q 411 621 439 590 q 361 668 382 652 q 550 809 462 728 q 708 982 639 890 q 822 1166 778 1074 z "},"伸":{"ha":1389,"x_min":26,"x_max":1305,"o":"m 355 1160 l 476 1124 q 413 976 448 1050 q 339 831 378 901 l 339 -107 l 216 -107 l 216 639 q 97 494 159 560 q 78 535 91 510 q 51 585 65 559 q 26 625 37 610 q 153 776 92 690 q 266 960 214 862 q 355 1160 318 1059 m 937 390 l 1178 390 l 1178 555 l 937 555 l 937 390 m 576 390 l 810 390 l 810 555 l 576 555 l 576 390 m 810 831 l 576 831 l 576 668 l 810 668 l 810 831 m 1178 831 l 937 831 l 937 668 l 1178 668 l 1178 831 m 937 949 l 1305 949 l 1305 214 l 1178 214 l 1178 273 l 937 273 l 937 -109 l 810 -109 l 810 273 l 576 273 l 576 203 l 456 203 l 456 949 l 810 949 l 810 1160 l 937 1160 l 937 949 z "},"伺":{"ha":1389,"x_min":31,"x_max":1284,"o":"m 354 1160 l 472 1124 q 410 975 445 1050 q 338 829 376 900 l 338 -109 l 214 -109 l 214 633 q 158 559 186 595 q 100 493 129 524 q 81 534 94 509 q 55 584 68 559 q 31 624 41 609 q 155 775 94 689 q 267 960 216 861 q 354 1160 318 1059 m 1065 856 l 1065 743 l 468 743 l 468 856 l 1065 856 m 873 514 l 632 514 l 632 278 l 873 278 l 873 514 m 993 168 l 632 168 l 632 72 l 513 72 l 513 624 l 993 624 l 993 168 m 1284 1093 l 1284 53 q 1269 -38 1284 -5 q 1217 -86 1254 -71 q 1117 -106 1179 -103 q 961 -110 1055 -110 q 944 -44 957 -83 q 917 22 930 -5 q 1041 18 982 18 q 1120 18 1101 18 q 1147 27 1139 19 q 1156 54 1156 35 l 1156 977 l 485 977 l 485 1093 l 1284 1093 z "},"似":{"ha":1389,"x_min":29,"x_max":1343,"o":"m 953 607 l 838 561 q 801 694 826 618 q 743 850 775 770 q 676 1000 711 930 l 783 1039 q 853 892 819 970 q 913 739 887 814 q 953 607 940 665 m 314 1160 l 435 1126 q 385 989 412 1058 q 326 856 357 921 l 326 -109 l 204 -109 l 204 628 q 150 548 178 586 q 93 475 121 509 q 76 517 87 491 q 52 569 64 543 q 29 611 39 595 q 140 766 87 678 q 238 955 193 854 q 314 1160 282 1055 m 624 252 l 850 397 q 869 339 857 371 q 892 286 881 307 q 723 172 789 218 q 616 96 656 125 q 555 49 576 67 q 524 18 534 31 l 513 5 q 480 65 502 28 q 443 121 458 101 q 479 166 460 134 q 498 245 498 199 l 498 1071 l 624 1071 l 624 252 m 1343 -9 l 1225 -69 q 1171 91 1206 -2 q 1093 278 1135 184 q 987 67 1051 163 q 833 -104 924 -29 q 805 -73 824 -92 q 765 -37 786 -54 q 728 -8 743 -19 q 904 182 836 71 q 1008 437 971 294 q 1062 754 1046 581 q 1083 1129 1078 927 l 1213 1128 q 1191 764 1206 932 q 1143 454 1175 597 q 1223 293 1183 378 q 1295 129 1263 208 q 1343 -9 1327 50 z "},"佃":{"ha":1389,"x_min":28,"x_max":1272,"o":"m 357 1160 l 476 1122 q 410 971 447 1047 q 334 823 374 895 l 334 -109 l 210 -109 l 210 633 q 154 561 182 595 q 97 497 125 526 q 78 536 91 512 q 52 586 66 561 q 28 625 38 610 q 154 776 93 690 q 268 960 216 862 q 357 1160 319 1059 m 939 98 l 1145 98 l 1145 473 l 939 473 l 939 98 m 616 473 l 616 98 l 812 98 l 812 473 l 616 473 m 812 960 l 616 960 l 616 597 l 812 597 l 812 960 m 1145 597 l 1145 960 l 939 960 l 939 597 l 1145 597 m 493 1084 l 1272 1084 l 1272 -98 l 1145 -98 l 1145 -26 l 616 -26 l 616 -110 l 493 -110 l 493 1084 z "},"但":{"ha":1389,"x_min":39,"x_max":1337,"o":"m 1090 708 l 1090 951 l 677 951 l 677 708 l 1090 708 m 1090 343 l 1090 589 l 677 589 l 677 343 l 1090 343 m 1229 1071 l 1229 222 l 545 222 l 545 1071 l 1229 1071 m 375 1160 l 500 1120 q 435 973 471 1046 q 359 829 400 899 l 359 -107 l 232 -107 l 232 632 q 172 557 203 592 q 111 490 141 522 q 92 532 105 506 q 65 584 79 558 q 39 625 50 610 q 168 775 106 689 q 284 960 231 861 q 375 1160 337 1059 m 436 62 l 1337 62 l 1337 -57 l 436 -57 l 436 62 z "},"位":{"ha":1389,"x_min":56,"x_max":1320,"o":"m 972 965 l 844 929 q 819 1035 837 973 q 781 1149 800 1097 l 903 1179 q 942 1069 922 1128 q 972 965 962 1010 m 1268 922 l 1268 798 l 511 798 l 511 922 l 1268 922 m 814 161 l 686 123 q 667 296 681 196 q 636 503 654 395 q 599 704 618 610 l 714 730 q 755 531 735 637 q 791 329 776 426 q 814 161 807 231 m 385 1160 l 507 1122 q 446 977 480 1049 q 372 835 411 905 l 372 -107 l 241 -107 l 241 632 q 185 559 214 593 q 127 494 157 525 q 109 535 121 510 q 81 585 96 559 q 56 625 66 610 q 183 776 121 690 q 296 960 244 862 q 385 1160 348 1059 m 1057 71 l 1320 71 l 1320 -53 l 456 -53 l 456 71 l 937 71 q 987 279 962 163 q 1031 516 1011 396 q 1063 739 1050 637 l 1197 717 q 1156 496 1179 612 q 1107 270 1133 380 q 1057 71 1082 160 z "},"低":{"ha":1389,"x_min":37,"x_max":1343,"o":"m 357 1158 l 479 1124 q 421 980 453 1052 q 354 839 389 907 l 354 -109 l 231 -109 l 231 628 q 171 545 201 584 q 109 471 140 505 q 90 511 102 486 q 63 562 77 536 q 37 603 49 587 q 161 760 102 671 q 271 951 220 850 q 357 1158 321 1053 m 796 191 l 888 220 q 935 126 910 176 q 980 28 959 76 q 1011 -54 1000 -19 l 914 -90 q 883 -6 903 -54 q 841 94 864 43 q 796 191 818 145 m 642 644 l 924 644 q 912 800 918 720 q 904 964 907 880 q 773 940 838 951 q 642 920 707 929 l 642 644 m 1317 524 l 1059 524 q 1097 281 1074 386 q 1146 117 1119 176 q 1204 56 1174 57 q 1234 104 1222 56 q 1253 241 1246 152 q 1297 202 1267 223 q 1343 174 1327 181 q 1307 7 1329 66 q 1258 -75 1284 -52 q 1204 -98 1232 -98 q 1077 -19 1130 -97 q 989 198 1024 58 q 935 524 955 338 l 642 524 l 642 53 l 814 94 q 813 38 812 71 q 817 -16 814 5 q 670 -57 726 -40 q 582 -84 614 -73 q 534 -102 550 -95 q 509 -117 518 -110 q 490 -61 504 -94 q 465 -9 477 -28 q 502 17 482 -1 q 521 77 521 36 l 521 1017 l 522 1017 l 521 1018 q 758 1057 637 1034 q 985 1107 878 1080 q 1169 1164 1093 1134 l 1275 1060 q 1157 1023 1220 1040 q 1026 990 1094 1006 q 1034 812 1029 900 q 1046 644 1038 725 l 1317 644 l 1317 524 z "},"住":{"ha":1389,"x_min":50,"x_max":1335,"o":"m 993 950 l 867 903 q 823 1012 854 947 q 760 1129 792 1076 l 878 1171 q 944 1057 911 1119 q 993 950 977 995 m 380 1158 l 504 1121 q 441 974 476 1047 q 367 829 406 900 l 367 -109 l 236 -109 l 236 627 q 180 554 209 589 q 122 490 151 520 q 103 532 116 506 q 76 584 90 558 q 50 624 61 609 q 177 774 116 688 q 291 959 239 861 q 380 1158 343 1057 m 961 60 l 1335 60 l 1335 -64 l 444 -64 l 444 60 l 831 60 l 831 376 l 525 376 l 525 498 l 831 498 l 831 777 l 478 777 l 478 900 l 1315 900 l 1315 777 l 961 777 l 961 498 l 1275 498 l 1275 376 l 961 376 l 961 60 z "},"佐":{"ha":1389,"x_min":31,"x_max":1336,"o":"m 1336 768 l 796 768 q 729 530 766 643 l 1304 530 l 1304 411 l 1040 411 l 1040 56 l 1333 56 l 1333 -66 l 586 -66 l 586 56 l 913 56 l 913 411 l 701 411 l 701 452 q 592 217 654 326 q 453 21 531 109 q 411 65 439 37 q 359 114 382 94 l 359 -106 l 237 -106 l 237 661 q 102 500 171 572 q 82 539 95 515 q 55 589 69 564 q 31 631 41 614 q 163 780 98 694 q 282 963 227 865 q 375 1162 336 1061 l 496 1124 q 433 984 468 1054 q 359 847 398 914 l 359 131 q 543 410 469 248 q 663 768 616 572 l 428 768 l 428 890 l 689 890 q 712 1019 701 954 q 732 1153 722 1085 l 864 1137 q 844 1012 854 1074 q 822 890 833 949 l 1336 890 l 1336 768 z "},"佑":{"ha":1389,"x_min":31,"x_max":1336,"o":"m 375 1162 l 496 1125 q 433 984 468 1054 q 359 848 398 914 l 359 -107 l 237 -107 l 237 663 q 171 577 205 618 q 102 501 136 537 q 82 542 95 517 q 56 592 70 567 q 31 632 41 616 q 163 781 98 696 q 282 964 227 866 q 375 1162 336 1061 m 1147 401 l 764 401 l 764 98 l 1147 98 l 1147 401 m 1336 772 l 839 772 q 794 644 818 707 q 741 521 770 581 l 1278 521 l 1278 -92 l 1147 -92 l 1147 -22 l 764 -22 l 764 -104 l 639 -104 l 639 347 q 558 246 602 294 q 464 155 515 197 q 424 208 450 178 q 380 257 398 238 q 576 485 497 351 q 704 772 655 620 l 431 772 l 431 897 l 739 897 q 770 1029 757 963 q 791 1160 783 1095 l 925 1139 q 902 1019 915 1080 q 873 897 889 958 l 1336 897 l 1336 772 z "},"体":{"ha":1389,"x_min":40,"x_max":1354,"o":"m 335 1158 l 456 1124 q 402 982 433 1053 q 339 843 372 912 l 339 -107 l 215 -107 l 215 629 q 164 558 189 591 q 113 493 138 524 q 94 534 106 509 q 66 584 81 559 q 40 624 52 609 q 155 775 100 689 q 255 960 210 861 q 335 1158 301 1058 m 1321 778 l 996 778 q 1092 558 1036 666 q 1215 360 1148 451 q 1354 210 1282 270 q 1302 162 1330 192 q 1255 107 1274 133 q 1130 262 1190 172 q 1017 459 1069 353 q 924 679 964 566 l 924 253 l 1129 253 l 1129 136 l 924 136 l 924 -102 l 798 -102 l 798 136 l 590 136 l 590 253 l 798 253 l 798 671 q 646 350 734 500 q 456 103 557 201 q 413 156 441 127 q 364 201 385 184 q 506 354 437 262 q 631 555 574 446 q 729 778 688 664 l 425 778 l 425 900 l 798 900 l 798 1158 l 924 1158 l 924 900 l 1321 900 l 1321 778 z "},"何":{"ha":1389,"x_min":53,"x_max":1335,"o":"m 364 1164 l 485 1128 q 430 991 460 1059 q 366 859 399 923 l 366 -109 l 237 -109 l 237 650 q 181 574 210 610 q 122 505 151 538 q 104 546 117 521 q 77 596 92 571 q 53 637 63 621 q 173 786 115 701 q 279 967 231 871 q 364 1164 328 1064 m 835 627 l 633 627 l 633 366 l 835 366 l 835 627 m 954 254 l 633 254 l 633 160 l 511 160 l 511 739 l 954 739 l 954 254 m 1335 1038 l 1335 914 l 1242 914 l 1242 54 q 1225 -39 1242 -7 q 1168 -86 1208 -71 q 1058 -106 1127 -102 q 890 -110 988 -111 q 873 -44 886 -83 q 846 22 861 -6 q 987 19 921 19 q 1074 20 1053 20 q 1104 27 1095 20 q 1112 56 1112 35 l 1112 914 l 481 914 l 481 1038 l 1335 1038 z "},"佘":{"ha":1389,"x_min":37,"x_max":1360,"o":"m 351 317 l 475 279 q 346 103 422 189 q 197 -40 270 17 q 148 1 180 -24 q 93 40 115 26 q 236 166 166 92 q 351 317 307 241 m 1232 379 l 760 379 l 760 22 q 746 -51 760 -26 q 697 -90 732 -77 q 609 -107 662 -104 q 482 -110 557 -110 q 464 -53 477 -85 q 437 3 451 -20 q 538 2 490 2 q 602 1 587 1 q 629 25 629 3 l 629 379 l 158 379 l 158 493 l 1232 493 l 1232 379 m 392 732 l 1002 732 l 1002 618 l 392 618 l 392 732 m 895 265 l 1002 321 q 1104 222 1050 276 q 1204 115 1157 168 q 1280 21 1251 62 l 1166 -43 q 1095 52 1139 -2 q 997 162 1050 106 q 895 265 945 218 m 694 1179 l 794 1128 q 783 1111 789 1118 q 771 1093 777 1103 q 1049 865 901 954 q 1360 708 1196 775 q 1312 657 1337 688 q 1272 596 1286 626 q 974 764 1115 670 q 697 1003 833 858 q 430 763 581 871 q 123 583 280 655 q 85 641 109 610 q 37 694 62 671 q 288 818 165 744 q 517 983 412 891 q 694 1179 623 1075 z "},"余":{"ha":1389,"x_min":35,"x_max":1357,"o":"m 366 286 l 486 240 q 394 129 446 184 q 286 23 342 73 q 176 -64 229 -27 q 130 -19 161 -46 q 78 24 98 8 q 235 142 157 71 q 366 286 313 213 m 886 225 l 991 290 q 1099 200 1042 250 q 1205 101 1155 151 q 1287 12 1255 52 l 1173 -61 q 1096 29 1143 -22 q 992 131 1048 79 q 886 225 937 182 m 379 747 l 1015 747 q 852 863 932 800 q 693 1007 772 927 q 379 747 550 862 m 694 1179 l 794 1124 q 782 1109 788 1116 q 770 1093 776 1101 q 1048 873 900 960 q 1357 725 1196 787 q 1309 672 1334 703 q 1271 612 1284 642 q 1158 666 1213 637 q 1048 726 1103 695 l 1048 631 l 766 631 l 766 476 l 1258 476 l 1258 354 l 766 354 l 766 36 q 752 -45 766 -16 q 700 -87 737 -73 q 609 -107 665 -103 q 473 -111 554 -112 q 453 -48 469 -85 q 421 12 437 -12 q 532 11 480 10 q 600 11 583 11 q 624 18 616 12 q 631 37 631 23 l 631 354 l 144 354 l 144 476 l 631 476 l 631 631 l 335 631 l 335 717 q 229 654 281 684 q 123 599 176 624 q 83 654 107 624 q 35 707 60 684 q 279 831 155 758 q 510 993 402 904 q 694 1179 618 1082 z "},"佛":{"ha":1389,"x_min":26,"x_max":1312,"o":"m 355 1158 l 476 1122 q 413 975 448 1048 q 339 831 378 901 l 339 -107 l 216 -107 l 216 639 q 157 562 187 598 q 97 493 127 526 q 78 534 91 509 q 51 584 65 559 q 26 624 37 609 q 153 774 92 688 q 266 959 214 861 q 355 1158 318 1057 m 781 422 l 914 422 l 914 581 l 782 581 l 782 509 q 782 465 782 486 q 781 422 782 444 m 534 422 l 667 422 q 669 465 669 444 q 669 509 669 486 l 669 581 l 558 581 q 547 499 552 540 q 534 422 541 458 m 782 850 l 782 690 l 914 690 l 914 850 l 782 850 m 1157 850 l 1028 850 l 1028 690 l 1157 690 l 1157 850 m 1028 422 l 1312 422 q 1312 407 1312 422 q 1311 379 1312 391 q 1300 145 1307 220 q 1274 46 1293 70 q 1203 9 1247 16 q 1080 7 1158 3 q 1070 62 1078 32 q 1051 114 1063 92 q 1106 110 1082 111 q 1141 110 1131 110 q 1175 121 1164 108 q 1189 176 1184 134 q 1197 313 1194 218 l 1028 313 l 1028 -109 l 914 -109 l 914 313 l 770 313 q 725 145 758 224 q 631 1 693 66 q 468 -115 569 -65 q 432 -71 456 -98 q 389 -29 408 -44 q 575 121 517 33 q 654 313 634 210 l 397 313 q 421 427 409 362 q 443 561 433 492 q 461 690 454 629 l 669 690 l 669 850 l 439 850 l 439 961 l 669 961 l 669 1149 l 782 1149 l 782 961 l 914 961 l 914 1147 l 1028 1147 l 1028 961 l 1271 961 l 1271 581 l 1028 581 l 1028 422 z "},"作":{"ha":1389,"x_min":50,"x_max":1335,"o":"m 380 1160 l 504 1121 q 367 831 446 971 l 367 -107 l 236 -107 l 236 627 q 180 554 209 589 q 122 490 151 520 q 103 532 116 506 q 76 584 90 558 q 50 624 61 609 q 177 775 116 689 q 291 960 239 861 q 380 1160 343 1059 m 1335 814 l 924 814 l 924 637 l 1301 637 l 1301 519 l 924 519 l 924 335 l 1321 335 l 1321 214 l 924 214 l 924 -109 l 791 -109 l 791 814 l 714 814 q 623 661 670 732 q 525 534 575 590 q 478 579 509 551 q 425 623 447 608 q 542 771 486 686 q 645 953 598 856 q 725 1150 692 1050 l 848 1117 q 814 1027 832 1072 q 777 937 796 981 l 1335 937 l 1335 814 z "},"你":{"ha":1389,"x_min":26,"x_max":1332,"o":"m 355 1158 l 476 1122 q 413 975 448 1048 q 339 831 378 901 l 339 -109 l 216 -109 l 216 639 q 157 562 187 598 q 97 493 127 526 q 78 534 91 509 q 51 584 65 559 q 26 624 37 609 q 153 774 92 688 q 266 959 214 861 q 355 1158 318 1057 m 608 564 l 734 541 q 652 282 703 406 q 539 72 600 157 q 486 109 522 88 q 429 142 451 130 q 536 332 490 219 q 608 564 583 444 m 1189 787 l 962 787 l 962 40 q 950 -39 962 -9 q 907 -86 938 -69 q 828 -106 876 -102 q 715 -111 781 -111 q 698 -46 711 -84 q 669 18 684 -8 q 756 17 716 17 q 810 18 796 17 q 829 22 823 18 q 835 40 835 26 l 835 787 l 647 787 q 583 664 616 722 q 514 559 549 606 q 464 604 496 577 q 408 644 431 630 q 545 873 486 736 q 639 1158 604 1011 l 766 1131 q 696 907 737 1014 l 1221 907 l 1242 911 l 1332 893 q 1301 730 1318 814 q 1271 587 1284 646 l 1161 608 q 1176 690 1168 644 q 1189 787 1183 737 m 1040 539 l 1156 576 q 1227 422 1194 504 q 1284 262 1260 340 q 1320 121 1308 183 l 1196 77 q 1163 219 1186 139 q 1108 383 1140 300 q 1040 539 1076 467 z "},"佣":{"ha":1389,"x_min":26,"x_max":1292,"o":"m 355 1160 l 476 1122 q 339 832 418 972 l 339 -109 l 216 -109 l 216 640 q 157 562 187 599 q 97 493 127 526 q 78 534 91 509 q 51 585 65 559 q 26 625 37 610 q 153 776 92 690 q 266 960 214 862 q 355 1160 318 1059 m 949 428 l 1168 428 l 1168 629 l 949 629 l 949 428 m 616 428 l 827 428 l 827 629 l 621 629 l 621 570 q 616 428 621 503 m 827 945 l 621 945 l 621 743 l 827 743 l 827 945 m 1168 743 l 1168 945 l 949 945 l 949 743 l 1168 743 m 1292 1060 l 1292 33 q 1280 -42 1292 -14 q 1239 -85 1269 -70 q 1162 -104 1208 -100 q 1047 -109 1115 -109 q 1033 -48 1043 -84 q 1010 11 1022 -13 q 1092 8 1053 9 q 1143 8 1131 8 q 1168 36 1168 10 l 1168 313 l 949 313 l 949 -94 l 827 -94 l 827 313 l 607 313 q 559 84 593 197 q 458 -115 524 -28 q 411 -71 443 -96 q 359 -35 380 -46 q 452 154 423 50 q 490 366 481 258 q 498 570 498 473 l 498 1060 l 1292 1060 z "},"佩":{"ha":1389,"x_min":40,"x_max":1341,"o":"m 290 1158 l 407 1126 q 309 847 365 983 l 309 -109 l 196 -109 l 196 616 q 150 543 173 578 q 102 475 126 507 q 86 517 97 491 q 63 569 76 543 q 40 611 51 595 q 184 859 119 713 q 290 1158 250 1004 m 606 770 l 606 871 l 1044 871 l 1044 770 l 885 770 l 885 633 l 1040 633 l 1040 168 q 1035 122 1040 140 q 1013 93 1029 104 q 972 78 996 81 q 918 75 949 75 q 907 117 915 93 q 890 157 899 140 l 947 157 q 958 170 958 157 l 958 558 l 871 558 l 871 -97 l 786 -97 l 786 558 l 694 558 l 694 74 l 612 74 l 612 633 l 772 633 l 772 770 l 606 770 m 449 1096 l 1214 1096 q 1210 761 1211 922 q 1208 464 1208 600 q 1213 226 1208 328 q 1226 68 1217 125 q 1251 11 1235 12 q 1264 42 1259 11 q 1271 124 1269 73 q 1274 235 1274 175 q 1308 188 1289 212 q 1341 150 1327 165 q 1314 -50 1335 8 q 1242 -107 1294 -107 q 1154 -27 1184 -107 q 1114 199 1124 53 q 1103 545 1103 345 q 1103 986 1102 745 l 557 986 l 557 729 q 552 534 557 641 q 534 313 547 427 q 494 90 520 199 q 427 -110 469 -19 q 384 -74 414 -95 q 336 -45 354 -53 q 398 142 375 42 q 431 346 420 242 q 446 547 442 449 q 449 729 449 646 l 449 1096 z "},"佳":{"ha":1389,"x_min":52,"x_max":1331,"o":"m 814 700 l 814 875 l 524 875 l 524 996 l 814 996 l 814 1165 l 945 1165 l 945 996 l 1243 996 l 1243 875 l 945 875 l 945 700 l 1305 700 l 1305 578 l 458 578 l 458 700 l 814 700 m 361 1160 l 482 1122 q 422 975 456 1049 q 351 831 389 901 l 351 -109 l 224 -109 l 224 621 q 173 555 199 587 q 121 494 148 524 q 103 535 115 510 q 77 584 91 559 q 52 624 62 609 q 172 775 114 689 q 278 960 229 861 q 361 1160 326 1059 m 945 64 l 1331 64 l 1331 -61 l 415 -61 l 415 64 l 814 64 l 814 267 l 497 267 l 497 389 l 814 389 l 814 530 l 945 530 l 945 389 l 1268 389 l 1268 267 l 945 267 l 945 64 z "},"使":{"ha":1389,"x_min":32,"x_max":1349,"o":"m 376 1169 l 497 1129 q 434 988 468 1059 q 359 850 399 918 l 359 -115 l 237 -115 l 237 664 q 103 505 171 574 q 84 546 96 521 q 57 596 71 571 q 32 636 43 621 q 164 785 100 700 q 283 969 229 871 q 376 1169 338 1067 m 608 500 l 821 500 l 821 543 l 821 676 l 608 676 l 608 500 m 1168 676 l 949 676 l 949 543 q 949 522 949 532 q 949 500 949 511 l 1168 500 l 1168 676 m 1292 393 l 940 393 q 913 260 932 324 q 856 139 894 196 q 1080 54 956 87 q 1349 5 1205 20 q 1307 -50 1330 -16 q 1272 -111 1284 -84 q 1005 -51 1128 -90 q 781 47 882 -12 q 655 -42 728 -2 q 481 -113 582 -82 q 446 -58 469 -91 q 401 -4 422 -25 q 562 50 494 18 q 675 121 629 81 q 489 338 562 212 l 595 371 q 750 204 653 274 q 792 296 777 248 q 812 393 806 343 l 490 393 l 490 783 l 821 783 l 821 903 l 456 903 l 456 1021 l 821 1021 l 821 1158 l 949 1158 l 949 1021 l 1332 1021 l 1332 903 l 949 903 l 949 783 l 1292 783 l 1292 393 z "},"侄":{"ha":1389,"x_min":45,"x_max":1329,"o":"m 1311 591 l 1194 532 q 1146 631 1179 574 q 876 612 985 620 q 699 599 767 604 q 591 589 630 593 q 532 581 552 585 q 498 571 511 576 q 486 611 494 587 q 469 659 478 635 q 453 696 460 682 q 500 711 475 701 q 546 741 526 720 q 592 795 561 755 q 659 884 623 836 q 721 972 694 932 l 484 972 l 484 1089 l 1301 1089 l 1301 972 l 872 972 q 783 844 833 914 q 690 718 734 774 l 1083 739 q 1037 812 1061 777 q 989 879 1013 848 l 1097 930 q 1178 817 1137 878 q 1255 696 1220 755 q 1311 591 1291 637 m 350 1162 l 471 1125 q 411 975 445 1050 q 340 828 378 900 l 340 -109 l 212 -109 l 212 616 q 165 554 189 585 q 117 497 142 524 q 98 537 111 512 q 71 587 85 562 q 45 628 56 612 q 163 779 106 693 q 268 963 220 865 q 350 1162 316 1061 m 949 56 l 1329 56 l 1329 -61 l 428 -61 l 428 56 l 818 56 l 818 278 l 509 278 l 509 395 l 818 395 l 818 566 l 949 566 l 949 395 l 1267 395 l 1267 278 l 949 278 l 949 56 z "},"侈":{"ha":1389,"x_min":33,"x_max":1318,"o":"m 364 1158 l 488 1121 q 346 817 429 965 l 346 -107 l 221 -107 l 221 619 q 163 544 193 580 q 104 476 134 508 q 85 519 98 493 q 58 571 72 545 q 33 614 44 597 q 161 767 99 680 q 274 955 222 855 q 364 1158 326 1055 m 1232 547 l 1318 504 q 1181 260 1267 364 q 982 83 1095 157 q 738 -39 869 9 q 464 -115 606 -87 q 437 -60 456 -90 q 401 -9 419 -30 q 644 50 526 11 q 861 149 761 88 q 788 209 830 178 q 708 262 747 239 l 807 328 q 889 276 846 305 q 965 220 932 248 q 1064 316 1019 263 q 1143 432 1109 370 l 848 432 q 701 318 782 372 q 525 216 621 264 q 488 267 513 239 q 441 310 463 295 q 704 463 595 375 q 875 637 812 550 q 684 551 785 589 q 482 490 584 514 q 454 542 473 512 q 416 590 435 572 q 591 636 504 608 q 758 704 678 665 q 696 749 729 726 q 633 789 663 772 l 734 851 q 804 812 768 835 q 869 768 840 790 q 971 843 924 802 q 1055 930 1018 884 l 749 930 q 634 842 696 885 q 501 761 572 799 q 462 808 487 782 q 415 848 437 835 q 652 999 553 914 q 807 1164 751 1084 l 937 1137 q 899 1086 920 1112 q 856 1035 878 1061 l 1133 1035 l 1156 1042 l 1240 994 q 1101 804 1186 887 q 909 657 1015 720 l 1028 635 q 954 541 994 586 l 1208 541 l 1232 547 z "},"例":{"ha":1389,"x_min":46,"x_max":1283,"o":"m 279 1164 l 396 1129 q 355 1001 377 1065 q 307 872 333 936 l 307 -109 l 186 -109 l 186 628 q 106 509 148 564 q 90 550 100 524 q 68 602 80 576 q 46 644 56 629 q 181 879 121 741 q 279 1164 241 1017 m 415 974 l 415 1095 l 890 1095 l 890 974 l 665 974 q 645 880 656 927 q 624 789 635 833 l 775 789 l 796 793 l 871 774 q 740 227 838 446 q 479 -110 641 7 q 442 -58 466 -87 q 399 -9 418 -28 q 628 275 537 80 q 564 334 599 303 q 496 390 528 364 l 566 479 q 620 438 591 460 q 676 393 649 415 q 714 526 697 456 q 742 671 730 595 l 587 671 q 520 497 558 578 q 436 351 482 416 q 392 393 422 367 q 342 433 361 420 q 463 672 414 530 q 543 974 513 813 l 415 974 m 1055 1011 l 1055 233 l 942 233 l 942 1011 l 1055 1011 m 1164 1156 l 1283 1156 l 1283 56 q 1269 -31 1283 -1 q 1222 -75 1255 -60 q 1132 -95 1189 -91 q 993 -98 1076 -100 q 977 -37 989 -74 q 953 26 965 1 q 1063 24 1012 24 q 1133 24 1115 24 q 1156 31 1149 24 q 1164 56 1164 38 l 1164 1156 z "},"侍":{"ha":1389,"x_min":32,"x_max":1333,"o":"m 361 1160 l 482 1122 q 417 971 453 1047 q 340 823 381 895 l 340 -109 l 218 -109 l 218 633 q 103 494 160 553 q 83 535 96 510 q 56 585 71 559 q 32 625 42 610 q 158 776 97 690 q 272 960 220 862 q 361 1160 323 1059 m 538 275 l 647 332 q 713 253 680 296 q 774 169 747 211 q 818 94 802 127 l 700 31 q 660 106 686 64 q 602 193 634 149 q 538 275 570 237 m 1333 610 l 1141 610 l 1141 475 l 1324 475 l 1324 357 l 1141 357 l 1141 35 q 1127 -45 1141 -18 q 1076 -87 1113 -73 q 982 -105 1040 -102 q 842 -109 924 -109 q 825 -47 838 -82 q 799 14 812 -12 q 910 11 858 11 q 979 11 962 10 q 1003 18 997 12 q 1010 37 1010 23 l 1010 357 l 441 357 l 441 475 l 1010 475 l 1010 610 l 425 610 l 425 728 l 812 728 l 812 878 l 509 878 l 509 996 l 812 996 l 812 1160 l 945 1160 l 945 996 l 1263 996 l 1263 878 l 945 878 l 945 728 l 1333 728 l 1333 610 z "},"供":{"ha":1389,"x_min":33,"x_max":1332,"o":"m 363 1162 l 484 1124 q 420 977 455 1050 q 346 835 385 903 l 346 -109 l 220 -109 l 220 636 q 104 496 163 559 q 85 537 98 512 q 58 587 72 562 q 33 628 44 612 q 160 778 98 692 q 273 962 221 864 q 363 1162 325 1061 m 669 253 l 791 214 q 667 38 741 123 q 522 -106 593 -47 q 473 -63 505 -88 q 419 -24 441 -38 q 559 101 492 27 q 669 253 626 176 m 977 193 l 1080 250 q 1172 154 1126 205 q 1256 51 1217 102 q 1320 -40 1295 1 l 1211 -110 q 1150 -14 1188 -67 q 1067 93 1112 39 q 977 193 1021 147 m 764 758 l 764 446 l 1003 446 l 1003 758 l 764 758 m 1129 446 l 1332 446 l 1332 319 l 437 319 l 437 446 l 637 446 l 637 758 l 471 758 l 471 882 l 637 882 l 637 1152 l 764 1152 l 764 882 l 1003 882 l 1003 1154 l 1129 1154 l 1129 882 l 1318 882 l 1318 758 l 1129 758 l 1129 446 z "},"依":{"ha":1389,"x_min":46,"x_max":1348,"o":"m 1225 673 l 1322 582 q 1187 472 1260 529 q 1050 371 1115 414 q 1184 176 1109 262 q 1348 35 1259 90 q 1296 -15 1324 17 q 1253 -71 1268 -46 q 1060 117 1145 3 q 911 372 975 230 q 802 673 846 514 q 748 607 777 640 q 692 543 720 574 l 692 74 l 926 150 q 932 92 928 125 q 943 39 937 60 q 758 -28 829 -2 q 648 -70 687 -54 q 589 -96 608 -85 q 558 -115 570 -106 q 529 -65 550 -94 q 492 -20 507 -35 q 539 28 513 -4 q 566 111 566 61 l 566 421 q 493 360 530 389 q 419 306 456 332 q 383 355 407 324 q 339 407 359 386 l 339 -111 l 216 -111 l 216 621 q 167 555 192 587 q 117 496 142 524 q 99 537 111 512 q 72 586 86 562 q 46 627 57 611 q 167 778 109 692 q 275 962 225 864 q 359 1161 324 1060 l 481 1125 q 416 967 452 1046 q 339 815 380 889 l 339 418 q 555 584 450 485 q 736 796 660 682 l 422 796 l 422 916 l 843 916 q 805 1017 829 958 q 753 1125 780 1076 l 868 1162 q 925 1055 897 1114 q 965 954 953 996 l 861 916 l 1311 916 l 1311 796 l 890 796 q 1000 467 930 623 q 1121 570 1059 513 q 1225 673 1183 626 z "},"侠":{"ha":1389,"x_min":41,"x_max":1348,"o":"m 353 1162 l 472 1126 q 413 980 446 1053 q 343 838 380 907 l 343 -114 l 218 -114 l 218 633 q 164 562 192 596 q 110 496 137 527 q 92 537 104 512 q 66 587 80 562 q 41 628 52 612 q 162 779 104 692 q 269 963 220 865 q 353 1162 318 1061 m 1321 392 l 951 392 q 1104 150 1006 252 q 1348 -1 1202 47 q 1300 -53 1325 -21 q 1260 -111 1274 -85 q 1033 40 1127 -57 q 878 272 939 138 q 736 61 832 161 q 472 -115 641 -39 q 432 -62 458 -94 q 383 -11 406 -30 q 593 103 513 39 q 719 241 674 168 q 783 392 763 315 l 422 392 l 422 510 l 804 510 q 808 584 807 547 q 810 657 810 621 l 810 857 l 467 857 l 467 975 l 810 975 l 810 1150 l 942 1150 l 942 975 l 1295 975 l 1295 857 l 942 857 l 942 656 q 940 583 942 620 q 935 510 939 546 l 1321 510 l 1321 392 m 507 785 l 614 821 q 673 696 645 764 q 710 582 701 629 l 596 542 q 562 659 587 589 q 507 785 536 728 m 1117 539 l 1022 576 q 1059 652 1040 609 q 1096 740 1079 695 q 1125 821 1114 784 l 1250 777 q 1182 649 1217 714 q 1117 539 1148 584 z "},"侣":{"ha":1389,"x_min":41,"x_max":1247,"o":"m 1074 749 l 1074 997 l 654 997 l 654 749 l 1074 749 m 1200 1111 l 1200 633 l 532 633 l 532 1111 l 1200 1111 m 326 1158 l 447 1125 q 399 992 425 1059 q 343 861 373 926 l 343 -110 l 216 -110 l 216 628 q 163 548 191 586 q 107 475 135 509 q 90 517 102 491 q 65 569 78 543 q 41 611 52 595 q 152 766 99 678 q 250 955 205 854 q 326 1158 294 1055 m 599 85 l 1112 85 l 1112 366 l 599 366 l 599 85 m 471 484 l 1247 484 l 1247 -98 l 1112 -98 l 1112 -32 l 599 -32 l 599 -107 l 471 -107 l 471 484 z "},"侥":{"ha":1389,"x_min":40,"x_max":1337,"o":"m 412 970 l 672 994 q 656 1076 663 1034 q 646 1161 649 1118 l 777 1161 q 802 1007 783 1080 l 1258 1051 l 1270 939 l 838 896 q 872 823 853 857 q 911 758 890 789 q 1031 827 977 789 q 1125 908 1086 865 l 1240 860 q 1126 757 1192 804 q 985 672 1061 711 q 1067 616 1024 635 q 1152 596 1109 596 q 1193 622 1181 596 q 1210 718 1204 648 q 1258 687 1231 701 q 1311 667 1286 673 q 1282 550 1301 591 q 1230 495 1263 510 q 1146 479 1197 479 q 997 516 1069 479 q 865 618 924 553 q 679 553 774 581 q 488 505 583 526 q 453 560 476 526 q 411 612 430 594 q 608 652 510 628 q 793 707 705 675 q 746 791 767 747 q 705 884 724 836 l 424 854 l 412 970 m 334 1166 l 456 1129 q 400 986 431 1059 q 335 844 369 914 l 335 -109 l 211 -109 l 211 633 q 161 564 186 597 q 109 501 136 530 q 92 543 104 517 q 65 595 79 569 q 40 636 52 621 q 155 787 100 701 q 255 969 210 872 q 334 1166 300 1067 m 1082 14 l 1185 14 q 1207 23 1199 14 q 1218 61 1215 33 q 1223 146 1221 90 q 1277 120 1243 132 q 1337 102 1312 108 q 1316 -18 1331 24 q 1273 -77 1301 -60 q 1197 -93 1244 -93 l 1060 -93 q 967 -80 1000 -93 q 923 -35 935 -66 q 911 53 911 -3 l 911 314 l 762 314 q 721 125 752 207 q 621 -15 690 44 q 427 -113 551 -74 q 392 -58 416 -90 q 349 -9 368 -26 q 512 64 454 20 q 596 169 570 108 q 631 314 621 231 l 382 314 l 382 428 l 1300 428 l 1300 314 l 1044 314 l 1044 54 q 1051 21 1044 28 q 1082 14 1058 14 z "},"侦":{"ha":1389,"x_min":39,"x_max":1322,"o":"m 619 661 l 619 204 l 500 204 l 500 777 l 770 777 l 770 1162 l 895 1162 l 895 1051 l 1283 1051 l 1283 935 l 895 935 l 895 777 l 1229 777 l 1229 208 l 1107 208 l 1107 661 l 619 661 m 368 1162 l 489 1125 q 425 976 460 1050 q 350 831 389 903 l 350 -109 l 227 -109 l 227 637 q 169 564 198 599 q 110 496 139 528 q 91 537 104 512 q 64 587 78 562 q 39 628 50 612 q 165 779 104 692 q 278 963 227 865 q 368 1162 330 1061 m 925 581 l 925 389 q 909 260 925 327 q 846 129 892 194 q 712 3 800 63 q 479 -107 623 -58 q 445 -55 468 -85 q 401 -5 422 -24 q 620 84 539 35 q 740 187 701 134 q 791 293 779 240 q 803 392 803 345 l 803 581 l 925 581 m 907 103 l 977 191 q 1100 129 1034 164 q 1225 56 1166 93 q 1322 -12 1284 19 l 1250 -111 q 1155 -40 1213 -79 q 1031 37 1097 -1 q 907 103 966 75 z "},"侧":{"ha":1389,"x_min":40,"x_max":1280,"o":"m 501 985 l 501 207 l 400 207 l 400 1080 l 882 1080 l 882 212 l 778 212 l 778 985 l 501 985 m 261 1165 l 371 1136 q 334 1007 354 1072 q 292 879 315 942 l 292 -104 l 187 -104 l 187 632 q 104 492 146 552 q 87 528 98 505 q 64 576 77 552 q 40 615 52 600 q 169 864 112 718 q 261 1165 226 1010 m 686 903 l 686 418 q 677 276 686 349 q 640 132 667 203 q 561 -1 613 62 q 425 -111 509 -63 q 395 -70 416 -94 q 359 -35 374 -46 q 512 98 463 24 q 576 255 562 172 q 590 418 590 337 l 590 903 l 686 903 m 660 134 l 736 183 q 804 109 770 149 q 869 30 839 68 q 917 -39 899 -9 l 835 -98 q 790 -27 819 -67 q 727 56 761 14 q 660 134 692 98 m 1076 1034 l 1076 201 l 975 201 l 975 1034 l 1076 1034 m 1174 1152 l 1280 1152 l 1280 31 q 1270 -42 1280 -16 q 1232 -82 1259 -68 q 1161 -101 1205 -96 q 1048 -106 1116 -106 q 1035 -51 1044 -83 q 1015 5 1025 -18 q 1099 4 1061 5 q 1150 4 1137 4 q 1169 9 1164 4 q 1174 31 1174 15 l 1174 1152 z "},"侨":{"ha":1389,"x_min":31,"x_max":1346,"o":"m 353 1160 l 471 1122 q 408 971 444 1047 q 334 825 373 896 l 334 -109 l 214 -109 l 214 636 q 157 561 186 597 q 98 494 127 526 q 80 535 92 510 q 54 585 68 559 q 31 625 41 610 q 154 776 94 690 q 265 960 214 862 q 353 1160 316 1059 m 621 392 l 621 461 l 743 461 l 743 389 q 723 221 743 312 q 652 43 703 131 q 505 -115 601 -45 q 459 -70 491 -98 q 407 -31 428 -43 q 544 106 498 33 q 605 254 590 180 q 621 392 621 328 m 971 -106 l 971 461 l 1099 461 l 1099 -106 l 971 -106 m 1299 685 l 1060 685 q 1190 549 1114 612 q 1346 450 1267 486 q 1301 406 1326 435 q 1263 355 1276 378 q 1077 496 1166 407 q 930 685 988 585 l 802 685 q 646 490 736 572 q 436 347 556 407 q 402 401 426 368 q 359 453 378 434 q 529 552 454 494 q 657 685 603 609 l 412 685 l 412 802 l 725 802 q 757 880 743 839 q 781 965 771 920 q 655 955 718 959 q 532 950 591 951 q 519 1004 529 973 q 498 1057 509 1035 q 733 1075 612 1063 q 965 1102 854 1086 q 1154 1140 1075 1119 l 1227 1032 q 1081 1002 1161 1015 q 914 978 1000 988 q 857 802 891 885 l 1299 802 l 1299 685 z "},"侮":{"ha":1389,"x_min":37,"x_max":1337,"o":"m 309 1160 l 429 1125 q 381 990 408 1059 q 326 854 355 921 l 326 -110 l 204 -110 l 204 619 q 154 543 179 579 q 103 475 129 506 q 86 516 98 490 q 62 568 75 542 q 37 611 49 595 q 144 767 94 678 q 237 956 195 855 q 309 1160 279 1057 m 1292 901 l 631 901 q 488 677 563 770 q 435 714 469 693 q 379 749 402 736 q 511 936 451 823 q 608 1166 572 1048 l 730 1135 q 686 1017 712 1078 l 1292 1017 l 1292 901 m 918 205 l 1090 205 q 1099 288 1095 242 q 1105 389 1103 334 l 831 389 q 913 318 873 357 q 975 245 953 279 l 918 205 m 798 389 l 647 389 q 633 294 640 340 q 619 205 627 248 l 888 205 q 823 280 863 240 q 742 351 783 320 l 798 389 m 827 673 l 682 673 q 672 591 677 633 q 663 507 667 549 l 909 507 q 851 575 888 538 q 778 639 814 612 l 827 673 m 1121 673 l 867 673 q 941 609 905 644 q 994 545 976 574 l 945 507 l 1112 507 q 1117 587 1115 545 q 1121 673 1119 629 m 1337 389 l 1225 389 q 1218 290 1222 335 q 1211 205 1214 244 l 1300 205 l 1300 94 l 1196 94 q 1177 6 1187 39 q 1152 -43 1166 -26 q 1106 -83 1131 -71 q 1050 -97 1082 -94 q 973 -101 1020 -102 q 876 -98 926 -100 q 865 -44 874 -76 q 842 9 857 -13 q 933 4 892 5 q 996 3 975 3 q 1025 6 1014 3 q 1046 25 1036 10 q 1074 94 1062 43 l 476 94 q 502 231 489 155 q 526 389 514 307 l 401 389 l 401 507 l 543 507 q 559 651 551 580 q 574 785 568 722 l 1244 785 q 1243 763 1244 785 q 1242 728 1242 741 q 1237 611 1240 667 q 1232 507 1234 556 l 1337 507 l 1337 389 z "},"侯":{"ha":1389,"x_min":54,"x_max":1340,"o":"m 415 847 l 958 847 q 970 921 964 883 q 982 993 977 959 l 538 993 l 538 1101 l 1006 1101 l 1028 1107 l 1120 1096 q 1103 970 1113 1034 q 1084 847 1094 907 l 1314 847 l 1314 737 l 415 737 l 415 847 m 323 1157 l 444 1124 q 396 982 422 1053 q 339 843 369 912 l 339 -109 l 214 -109 l 214 603 q 168 534 191 568 q 121 471 145 501 q 104 513 116 487 q 79 565 93 539 q 54 607 65 591 q 161 764 111 675 q 253 953 212 852 q 323 1157 294 1053 m 1307 231 l 936 231 q 1009 141 962 185 q 1137 60 1057 97 q 1340 1 1217 24 q 1301 -50 1322 -18 q 1271 -107 1281 -83 q 1071 -39 1152 -81 q 939 55 990 3 q 856 161 887 107 q 719 14 811 85 q 463 -115 626 -57 q 426 -66 451 -94 q 379 -20 401 -37 q 636 98 551 34 q 753 231 720 163 l 406 231 l 406 343 l 785 343 q 786 368 786 355 q 786 390 786 380 l 786 505 l 607 505 q 559 438 584 470 q 511 382 534 407 q 461 416 492 395 q 407 449 430 436 q 516 578 465 502 q 599 734 568 654 l 714 703 q 694 659 705 681 q 673 615 684 637 l 1238 615 l 1238 505 l 913 505 l 913 387 q 912 366 913 377 q 911 343 912 355 l 1307 343 l 1307 231 z "},"侵":{"ha":1389,"x_min":33,"x_max":1320,"o":"m 1221 1117 l 1221 663 l 528 663 l 528 757 l 1100 757 l 1100 842 l 571 842 l 571 937 l 1100 937 l 1100 1022 l 528 1022 l 528 1117 l 1221 1117 m 363 1160 l 485 1124 q 421 974 456 1048 q 346 828 385 899 l 346 -109 l 222 -109 l 222 635 q 164 561 194 596 q 104 493 134 526 q 85 534 98 509 q 59 585 73 559 q 33 625 45 610 q 160 776 98 690 q 274 960 222 862 q 363 1160 326 1059 m 1042 311 l 704 311 q 779 223 735 264 q 875 147 822 182 q 967 222 925 182 q 1042 311 1009 262 m 1131 416 l 1203 386 q 1111 219 1167 292 q 983 89 1055 145 q 1310 -4 1127 21 q 1268 -55 1289 -24 q 1235 -110 1247 -85 q 873 18 1034 -73 q 684 -61 786 -30 q 472 -113 583 -93 q 449 -57 465 -89 q 418 -5 433 -25 q 770 89 610 20 q 585 297 659 176 l 624 311 l 562 311 l 562 412 l 1108 412 l 1131 416 m 436 587 l 1320 587 l 1320 370 l 1206 370 l 1206 493 l 545 493 l 545 368 l 436 368 l 436 587 z "},"便":{"ha":1389,"x_min":49,"x_max":1349,"o":"m 347 1160 l 469 1124 q 410 971 444 1048 q 339 821 376 895 l 339 -109 l 216 -109 l 216 615 q 169 552 193 582 q 121 494 146 522 q 103 535 115 510 q 75 584 90 559 q 49 624 60 609 q 165 775 109 689 q 267 961 220 862 q 347 1160 314 1059 m 612 435 l 821 435 q 822 467 822 450 q 822 500 822 484 l 822 559 l 612 559 l 612 435 m 612 777 l 612 652 l 822 652 l 822 777 l 612 777 m 1143 777 l 950 777 l 950 652 l 1143 652 l 1143 777 m 1143 435 l 1143 559 l 950 559 l 950 498 q 950 467 950 483 q 949 435 949 450 l 1143 435 m 1270 338 l 936 338 q 903 221 926 277 q 840 114 880 165 q 1073 50 945 73 q 1349 18 1202 27 q 1305 -39 1326 -4 q 1271 -102 1283 -75 q 988 -58 1119 -88 q 749 24 857 -27 q 457 -114 641 -59 q 421 -58 446 -91 q 378 -8 397 -26 q 525 35 461 10 q 635 87 588 60 q 533 170 580 125 q 450 269 486 215 l 562 309 q 634 231 593 266 q 728 165 675 195 q 782 248 763 205 q 810 338 800 292 l 493 338 l 493 873 l 822 873 l 822 977 l 464 977 l 464 1089 l 1310 1089 l 1310 977 l 950 977 l 950 873 l 1270 873 l 1270 338 z "},"促":{"ha":1389,"x_min":29,"x_max":1340,"o":"m 314 1161 l 435 1126 q 330 865 390 993 l 330 -110 l 204 -110 l 204 631 q 150 549 178 588 q 93 476 121 510 q 76 517 87 492 q 52 570 64 543 q 29 614 39 597 q 140 769 87 681 q 238 957 193 857 q 314 1161 282 1058 m 653 989 l 653 736 l 1107 736 l 1107 989 l 653 989 m 949 309 l 949 50 q 1080 41 1011 41 q 1131 41 1097 41 q 1206 41 1165 41 q 1283 41 1246 41 q 1340 41 1320 41 q 1316 -17 1328 20 q 1300 -79 1304 -53 l 1071 -79 q 881 -61 968 -79 q 724 4 794 -43 q 602 142 654 52 q 538 2 575 66 q 454 -113 502 -62 q 407 -73 439 -97 q 353 -36 374 -49 q 488 190 444 52 q 549 498 533 329 l 672 486 q 660 392 667 438 q 644 302 653 345 q 719 169 675 220 q 819 89 763 117 l 819 623 l 530 623 l 530 1103 l 1236 1103 l 1236 623 l 949 623 l 949 429 l 1260 429 l 1260 309 l 949 309 z "},"俄":{"ha":1389,"x_min":29,"x_max":1343,"o":"m 1315 860 l 1214 814 q 1183 893 1204 848 q 1138 985 1163 938 q 1088 1074 1112 1033 l 1183 1114 q 1235 1028 1209 1074 q 1282 938 1261 982 q 1315 860 1303 894 m 1179 574 l 1295 543 q 1207 363 1256 450 q 1100 200 1158 276 q 1147 61 1121 111 q 1206 11 1173 11 q 1234 62 1224 11 q 1249 227 1244 113 q 1294 187 1267 207 q 1343 158 1321 168 q 1317 -5 1334 54 q 1271 -89 1301 -64 q 1190 -113 1240 -113 q 1082 -59 1128 -113 q 1006 89 1037 -6 q 918 7 964 45 q 825 -65 873 -32 q 786 -19 812 -47 q 742 26 760 9 q 971 222 867 104 q 941 413 953 310 q 922 631 930 516 l 717 631 l 717 441 l 888 485 l 900 368 q 808 344 854 357 q 717 319 762 332 l 717 36 q 705 -43 717 -15 q 661 -85 692 -71 q 579 -104 630 -100 q 456 -109 528 -109 q 440 -49 452 -84 q 416 11 429 -14 q 511 9 467 9 q 570 9 555 9 q 590 16 584 11 q 596 37 596 22 l 596 286 l 399 235 l 368 359 q 473 384 415 370 q 596 412 531 397 l 596 631 l 374 631 l 374 743 l 596 743 l 596 935 q 502 913 549 923 q 411 896 455 904 q 399 936 408 913 q 379 979 389 958 q 354 916 368 947 q 326 854 341 886 l 326 -110 l 204 -110 l 204 628 q 150 547 178 586 q 93 475 121 509 q 76 517 87 491 q 52 569 64 543 q 29 611 39 595 q 140 766 87 678 q 238 955 193 854 q 314 1160 282 1055 l 435 1125 q 413 1062 425 1094 q 387 999 401 1031 q 540 1037 463 1016 q 685 1082 617 1059 q 803 1131 753 1106 l 897 1032 q 811 998 857 1015 q 717 968 766 981 l 717 743 l 917 743 q 909 942 911 840 q 907 1149 907 1044 l 1034 1149 q 1033 940 1031 1042 q 1039 743 1035 838 l 1307 743 l 1307 631 l 1044 631 q 1056 487 1050 555 q 1072 358 1063 418 q 1179 574 1136 460 z "},"俊":{"ha":1389,"x_min":45,"x_max":1318,"o":"m 926 725 l 1015 787 q 1122 710 1065 753 q 1229 625 1178 667 q 1312 549 1279 583 l 1217 476 q 1137 554 1186 511 q 1033 643 1088 598 q 926 725 977 688 m 1278 818 l 1177 757 q 1153 792 1166 772 q 1125 833 1139 812 q 861 811 967 820 q 687 795 754 802 q 582 784 620 789 q 524 774 544 779 q 492 765 505 770 q 475 819 486 783 q 453 879 463 855 q 492 896 471 882 q 534 930 513 909 q 588 982 552 945 q 665 1067 624 1018 q 742 1171 707 1117 l 867 1129 q 769 1014 821 1069 q 665 909 718 958 l 1044 936 q 992 1000 1019 968 q 939 1059 965 1031 l 1035 1111 q 1124 1014 1078 1067 q 1212 910 1171 961 q 1278 818 1253 859 m 675 770 l 786 724 q 692 630 744 678 q 587 537 640 582 q 486 460 533 493 q 444 505 471 476 q 397 551 417 534 q 545 653 469 593 q 675 770 621 713 m 366 1166 l 488 1128 q 424 978 459 1053 q 349 832 388 903 l 349 -107 l 227 -107 l 227 636 q 115 500 172 564 q 97 541 109 516 q 70 591 84 566 q 45 632 56 616 q 168 782 109 696 q 278 966 228 868 q 366 1166 329 1065 m 701 361 l 694 354 q 863 183 754 262 q 957 265 913 221 q 1032 361 1001 309 l 701 361 m 1125 469 l 1207 431 q 1109 254 1168 332 q 974 117 1050 176 q 1318 4 1117 40 q 1276 -47 1298 -14 q 1243 -104 1255 -80 q 1039 -43 1133 -81 q 867 43 945 -5 q 666 -49 773 -11 q 444 -110 559 -87 q 416 -52 435 -85 q 380 1 396 -18 q 580 48 484 18 q 760 121 676 77 q 616 277 673 195 q 501 180 560 224 q 458 225 486 197 q 410 267 431 252 q 592 414 503 326 q 739 596 682 501 l 851 555 q 821 510 837 532 q 789 464 804 487 l 1100 464 l 1125 469 z "},"俏":{"ha":1389,"x_min":49,"x_max":1304,"o":"m 1181 1129 l 1304 1082 q 1231 942 1270 1012 q 1157 822 1192 872 l 1044 867 q 1093 948 1067 902 q 1142 1041 1119 994 q 1181 1129 1165 1088 m 355 1158 l 478 1122 q 417 971 451 1046 q 345 822 383 895 l 345 -109 l 222 -109 l 222 624 q 172 555 197 587 q 119 494 146 523 q 101 535 114 510 q 74 584 89 559 q 49 624 60 609 q 167 775 110 689 q 272 960 224 861 q 355 1158 321 1058 m 736 871 l 618 814 q 588 894 608 848 q 541 986 568 939 q 485 1072 514 1033 l 596 1121 q 679 993 639 1063 q 736 871 718 923 m 647 288 l 1129 288 l 1129 418 l 647 418 l 647 288 m 1129 656 l 647 656 l 647 528 l 1129 528 l 1129 656 m 1255 777 l 1255 40 q 1243 -38 1255 -9 q 1196 -82 1230 -67 q 1108 -101 1162 -98 q 975 -104 1054 -104 q 959 -43 971 -79 q 935 18 947 -7 q 1037 15 988 15 q 1101 16 1086 14 q 1123 22 1117 16 q 1129 41 1129 27 l 1129 178 l 647 178 l 647 -110 l 521 -110 l 521 777 l 827 777 l 827 1165 l 957 1165 l 957 777 l 1255 777 z "},"俐":{"ha":1389,"x_min":39,"x_max":1282,"o":"m 704 633 l 704 606 q 748 556 720 589 q 807 484 776 522 q 864 413 838 446 q 901 366 890 380 l 828 258 q 774 347 809 293 q 704 450 739 400 l 704 -94 l 586 -94 l 586 396 q 499 223 547 305 q 404 85 452 142 q 374 146 394 113 q 339 204 355 180 q 427 325 383 254 q 510 475 471 395 q 575 633 548 555 l 378 633 l 378 749 l 586 749 l 586 947 q 500 931 543 939 q 418 918 458 923 q 406 957 415 934 q 387 999 397 980 q 356 920 372 959 q 322 844 340 882 l 322 -109 l 204 -109 l 204 621 q 156 548 180 583 q 106 482 132 512 q 88 524 100 498 q 63 576 77 550 q 39 618 50 602 q 196 864 124 719 q 313 1165 268 1010 l 433 1129 q 414 1072 424 1101 q 393 1014 404 1043 q 544 1046 467 1028 q 688 1085 620 1064 q 806 1126 756 1105 l 896 1034 q 805 1002 853 1017 q 704 975 756 987 l 704 749 l 886 749 l 886 633 l 704 633 m 1048 1006 l 1048 205 l 940 205 l 940 1006 l 1048 1006 m 1164 1147 l 1282 1147 l 1282 39 q 1269 -41 1282 -13 q 1226 -83 1257 -68 q 1145 -102 1195 -98 q 1019 -107 1095 -107 q 1006 -48 1017 -83 q 982 11 996 -14 q 1078 9 1034 9 q 1136 9 1122 9 q 1164 39 1164 9 l 1164 1147 z "},"俗":{"ha":1389,"x_min":36,"x_max":1349,"o":"m 1312 836 l 1207 757 q 1127 858 1177 801 q 1023 975 1078 916 q 920 1084 968 1035 l 1018 1152 q 1123 1047 1067 1104 q 1230 935 1179 990 q 1312 836 1280 879 m 686 1150 l 808 1108 q 722 972 770 1041 q 620 843 673 904 q 518 736 568 782 q 468 778 500 753 q 411 818 435 802 q 562 969 488 880 q 686 1150 636 1059 m 353 1160 l 475 1124 q 340 831 418 970 l 340 -107 l 216 -107 l 216 632 q 107 494 163 555 q 88 535 100 510 q 61 585 75 559 q 36 625 47 610 q 157 776 98 690 q 267 960 216 862 q 353 1160 317 1059 m 564 414 l 1145 414 q 987 550 1059 475 q 850 722 915 625 q 564 414 734 538 m 647 61 l 1050 61 l 1050 298 l 647 298 l 647 61 m 815 924 l 933 880 q 923 859 928 869 q 913 836 918 848 q 1107 601 998 693 q 1349 441 1217 509 q 1302 391 1326 421 q 1267 334 1278 360 q 1222 360 1244 347 q 1178 389 1200 374 l 1178 -100 l 1050 -100 l 1050 -54 l 647 -54 l 647 -110 l 524 -110 l 524 383 q 484 358 504 370 q 443 335 464 346 q 406 390 429 359 q 357 443 382 421 q 627 640 506 515 q 815 924 749 765 z "},"俘":{"ha":1389,"x_min":46,"x_max":1308,"o":"m 1197 1165 l 1276 1060 q 1041 1013 1173 1032 q 768 982 909 994 q 497 964 628 970 q 485 1018 495 987 q 464 1069 474 1048 q 728 1090 592 1077 q 987 1121 865 1103 q 1197 1165 1109 1140 m 1107 692 l 1007 734 q 1052 815 1029 770 q 1097 908 1076 861 q 1132 994 1118 955 l 1253 946 q 1179 810 1217 880 q 1107 692 1140 741 m 942 749 l 827 708 q 798 817 817 754 q 757 932 778 880 l 867 966 q 909 854 888 916 q 942 749 930 792 m 703 741 l 591 693 q 553 795 579 736 q 500 904 526 855 l 604 943 q 661 838 633 896 q 703 741 688 781 m 339 1160 l 460 1124 q 405 979 436 1052 q 339 838 373 906 l 339 -107 l 214 -107 l 214 623 q 166 556 190 588 q 117 496 142 524 q 99 536 111 511 q 72 586 86 561 q 46 625 58 610 q 160 777 106 691 q 261 961 215 863 q 339 1160 307 1059 m 1308 363 l 1308 244 l 947 244 l 947 18 q 937 -51 947 -26 q 895 -89 926 -75 q 818 -105 863 -102 q 710 -109 772 -109 q 693 -52 705 -83 q 668 3 681 -20 q 749 2 711 2 q 799 1 787 1 q 817 6 812 3 q 822 21 822 9 l 822 244 l 424 244 l 424 363 l 822 363 l 822 431 q 908 492 864 456 q 991 567 953 528 l 513 567 l 513 684 l 1109 684 l 1136 692 l 1221 625 q 1093 502 1164 564 q 947 390 1021 439 l 947 363 l 1308 363 z "},"保":{"ha":1389,"x_min":36,"x_max":1361,"o":"m 375 1161 l 496 1122 q 359 840 438 981 l 359 -107 l 237 -107 l 237 653 q 109 498 175 568 q 90 539 102 514 q 62 589 77 564 q 36 629 48 614 q 167 778 104 693 q 283 961 230 863 q 375 1161 337 1059 m 654 987 l 654 764 l 1122 764 l 1122 987 l 654 987 m 1324 380 l 1018 380 q 1174 190 1082 279 q 1361 47 1266 100 q 1313 -2 1340 28 q 1271 -56 1285 -32 q 1099 94 1183 3 q 949 290 1015 186 l 949 -111 l 819 -111 l 819 283 q 661 91 749 179 q 481 -53 573 3 q 439 1 465 -28 q 392 50 414 31 q 588 190 492 101 q 751 380 684 279 l 436 380 l 436 497 l 819 497 l 819 648 l 533 648 l 533 1101 l 1251 1101 l 1251 648 l 949 648 l 949 497 l 1324 497 l 1324 380 z "},"信":{"ha":1389,"x_min":47,"x_max":1317,"o":"m 347 1160 l 464 1125 q 411 993 440 1059 q 351 863 382 926 l 351 -113 l 233 -113 l 233 657 q 176 574 205 613 q 117 501 146 536 q 98 539 111 515 q 72 587 85 563 q 47 625 58 610 q 163 777 108 690 q 266 961 219 863 q 347 1160 313 1059 m 1112 237 l 625 237 l 625 46 l 1112 46 l 1112 237 m 515 -109 l 515 342 l 1226 342 l 1226 -104 l 1112 -104 l 1112 -58 l 625 -58 l 625 -109 l 515 -109 m 534 443 l 534 546 l 1211 546 l 1211 443 l 534 443 m 1211 742 l 1211 639 l 534 639 l 534 742 l 1211 742 m 861 943 l 1317 943 l 1317 838 l 436 838 l 436 943 l 843 943 q 802 1031 829 981 q 750 1124 776 1082 l 861 1166 q 917 1074 889 1125 q 961 986 945 1023 l 861 943 z "},"俩":{"ha":1389,"x_min":41,"x_max":1312,"o":"m 292 1160 l 406 1128 q 367 1004 388 1066 q 321 882 346 943 l 321 -110 l 203 -110 l 203 629 q 156 551 180 589 q 107 482 132 514 q 91 520 102 496 q 66 570 79 545 q 41 611 53 595 q 185 859 121 713 q 292 1160 250 1004 m 926 779 l 926 956 l 794 956 l 794 779 l 926 779 m 1162 262 l 1162 665 l 1035 665 q 1032 598 1034 633 q 1026 526 1031 563 q 1104 389 1066 460 q 1162 262 1141 317 m 549 665 l 549 193 q 631 343 603 261 q 670 509 659 425 q 682 665 681 592 l 549 665 m 1312 956 l 1034 956 l 1034 779 l 1276 779 l 1276 43 q 1265 -29 1276 -3 q 1223 -69 1255 -56 q 1145 -87 1194 -84 q 1028 -90 1097 -90 q 1015 -34 1025 -67 q 993 21 1004 -1 q 1083 20 1041 20 q 1139 20 1125 20 q 1162 45 1162 20 l 1162 237 l 1090 172 q 1053 265 1077 212 q 1002 374 1029 319 q 951 222 983 296 q 867 83 919 147 q 831 124 854 101 q 789 160 808 146 q 878 317 848 229 q 916 496 907 405 q 926 665 926 587 l 794 665 q 790 590 793 629 q 781 510 787 551 q 836 426 810 469 q 876 351 863 382 l 807 277 q 785 325 799 298 q 754 380 771 351 q 701 233 735 304 q 615 98 667 161 q 586 132 605 113 q 549 165 568 151 l 549 -106 l 433 -106 l 433 779 l 684 779 l 684 956 l 408 956 l 408 1076 l 1312 1076 l 1312 956 z "},"俭":{"ha":1389,"x_min":37,"x_max":1344,"o":"m 323 1162 l 444 1128 q 389 981 419 1055 q 326 838 359 907 l 326 -107 l 204 -107 l 204 616 q 154 544 179 578 q 102 478 128 509 q 86 520 97 494 q 61 572 75 546 q 37 614 48 598 q 200 861 125 715 q 323 1162 276 1006 m 589 736 l 1107 736 q 955 858 1029 793 q 821 986 880 922 q 589 736 722 847 m 567 627 l 567 718 q 488 658 528 687 q 406 606 447 629 q 372 659 396 625 q 330 711 349 692 q 601 906 475 786 q 802 1174 726 1027 l 913 1133 q 899 1108 906 1121 q 885 1083 892 1096 q 1018 956 940 1020 q 1180 836 1095 892 q 1344 743 1265 781 q 1308 684 1326 719 q 1280 623 1290 648 q 1201 671 1241 644 q 1120 726 1160 697 l 1120 627 l 567 627 m 935 239 l 827 220 q 812 318 822 262 q 789 431 802 373 q 762 541 777 489 l 867 557 q 907 393 888 481 q 935 239 926 304 m 682 196 l 575 164 q 554 267 569 209 q 521 384 540 324 q 482 497 502 444 l 582 525 q 623 414 603 473 q 658 298 642 355 q 682 196 673 241 m 1121 539 l 1243 509 q 1179 359 1214 437 q 1109 209 1145 282 q 1039 74 1073 135 l 1292 74 l 1292 -45 l 397 -45 l 397 74 l 924 74 q 996 218 958 137 q 1066 383 1033 299 q 1121 539 1099 467 z "},"修":{"ha":1389,"x_min":32,"x_max":1348,"o":"m 317 1158 l 437 1124 q 387 984 414 1054 q 326 846 359 915 l 326 -109 l 204 -109 l 204 621 q 97 473 151 539 q 80 516 92 490 q 55 568 68 542 q 32 610 42 594 q 195 857 119 712 q 317 1158 270 1002 m 1124 916 l 786 916 q 859 829 817 871 q 956 747 901 786 q 1049 824 1006 783 q 1124 916 1091 866 m 1213 1025 l 1287 989 q 1190 821 1250 895 q 1054 688 1131 746 q 1191 630 1117 655 q 1348 590 1264 605 q 1309 542 1329 572 q 1276 488 1288 511 q 1102 544 1183 509 q 954 619 1021 578 q 775 536 870 570 q 582 479 681 502 q 560 522 574 498 q 532 564 547 546 l 532 115 l 424 115 l 424 779 l 532 779 l 532 579 q 702 623 618 596 q 859 689 785 650 q 722 835 775 762 q 670 773 697 802 q 616 720 644 743 q 570 759 600 735 q 518 796 540 783 q 668 959 600 861 q 777 1166 736 1057 l 896 1137 q 870 1078 884 1107 q 842 1019 857 1048 l 1192 1019 l 1213 1025 m 1095 404 l 1189 364 q 981 214 1109 277 q 713 114 853 151 q 684 156 702 132 q 648 197 667 180 q 820 246 735 216 q 977 316 905 277 q 1095 404 1048 356 m 962 539 l 1059 497 q 899 382 995 433 q 704 300 802 331 q 672 339 692 317 q 633 375 652 360 q 756 417 694 392 q 872 473 818 442 q 962 539 926 504 m 1211 253 l 1321 205 q 1147 62 1251 123 q 914 -40 1043 2 q 642 -107 785 -81 q 613 -53 632 -83 q 575 -3 595 -24 q 832 50 709 16 q 1053 134 954 84 q 1211 253 1151 184 z "},"俯":{"ha":1389,"x_min":41,"x_max":1325,"o":"m 302 1158 l 418 1126 q 370 984 396 1055 q 314 844 344 913 l 314 -109 l 193 -109 l 193 608 q 150 541 171 573 q 106 479 128 509 q 89 519 100 494 q 65 570 78 545 q 41 611 52 595 q 191 858 123 712 q 302 1158 259 1003 m 730 892 l 838 868 q 808 768 824 819 q 772 667 792 717 l 772 -103 l 664 -103 l 664 449 q 634 406 649 426 q 603 366 618 385 q 581 416 595 386 q 554 467 567 447 q 633 593 598 521 q 692 744 667 666 q 730 892 717 821 m 1208 876 l 1208 694 l 1318 694 l 1318 586 l 1208 586 l 1208 26 q 1198 -43 1208 -18 q 1160 -82 1188 -68 q 1088 -99 1132 -96 q 978 -103 1044 -103 q 965 -49 975 -81 q 945 5 955 -18 q 1025 5 988 5 q 1074 5 1062 5 q 1092 10 1087 5 q 1097 28 1097 14 l 1097 586 l 827 586 l 827 694 l 1097 694 l 1097 876 l 1208 876 m 1061 228 l 970 179 q 934 266 956 216 q 887 368 912 316 q 838 465 861 420 l 925 507 q 976 411 950 462 q 1025 312 1002 360 q 1061 228 1047 264 m 961 1029 l 1325 1029 l 1325 917 l 546 917 l 546 561 q 542 399 546 487 q 528 221 538 312 q 497 46 517 131 q 444 -107 477 -38 q 396 -72 428 -92 q 343 -43 365 -52 q 402 149 383 43 q 426 362 420 254 q 431 561 431 469 l 431 1029 l 831 1029 q 808 1089 820 1059 q 783 1146 796 1120 l 897 1177 q 932 1103 915 1143 q 961 1029 949 1063 z "},"俱":{"ha":1389,"x_min":28,"x_max":1329,"o":"m 664 427 l 664 319 l 1076 319 l 1076 427 l 664 427 m 1076 1008 l 664 1008 l 664 908 l 1076 908 l 1076 1008 m 1076 623 l 664 623 l 664 517 l 1076 517 l 1076 623 m 1076 713 l 1076 817 l 664 817 l 664 713 l 1076 713 m 407 319 l 541 319 l 541 1112 l 1206 1112 l 1206 319 l 1322 319 l 1322 205 l 407 205 l 407 319 m 357 1161 l 478 1124 q 415 978 450 1050 q 342 835 381 905 l 342 -107 l 218 -107 l 218 640 q 159 565 190 601 q 98 496 129 528 q 79 536 92 511 q 52 586 66 561 q 28 627 38 611 q 154 778 93 692 q 268 962 216 864 q 357 1161 319 1060 m 694 201 l 794 131 q 652 -4 736 59 q 482 -111 568 -67 q 445 -64 467 -92 q 401 -21 422 -37 q 564 81 484 21 q 694 201 644 141 m 956 121 l 1038 201 q 1143 130 1087 170 q 1248 50 1198 90 q 1329 -22 1298 9 l 1242 -111 q 1163 -37 1212 -79 q 1060 46 1115 4 q 956 121 1005 87 z "},"俺":{"ha":1389,"x_min":32,"x_max":1356,"o":"m 625 253 l 783 253 l 783 359 l 625 359 l 625 253 m 947 886 l 772 886 q 706 764 742 821 q 628 656 669 707 l 783 656 l 783 762 l 904 762 l 904 656 l 1084 656 q 947 886 1002 760 m 904 554 l 904 454 l 1072 454 l 1072 554 l 904 554 m 625 554 l 625 454 l 783 454 l 783 554 l 625 554 m 904 253 l 1072 253 l 1072 359 l 904 359 l 904 253 m 1192 151 l 904 151 l 904 68 q 916 16 904 27 q 970 4 928 4 l 1154 4 q 1190 16 1177 4 q 1207 60 1202 28 q 1217 155 1213 93 q 1267 128 1236 141 q 1325 110 1299 115 q 1301 -19 1318 28 q 1252 -85 1285 -66 q 1162 -104 1219 -104 l 954 -104 q 849 -90 886 -104 q 798 -37 812 -75 q 783 68 783 0 l 783 151 l 625 151 l 625 93 l 507 93 l 507 533 q 468 503 487 517 q 427 473 448 488 q 386 526 414 494 q 339 575 359 558 q 505 708 431 629 q 633 886 579 787 l 419 886 l 419 991 q 332 817 380 902 l 332 -109 l 208 -109 l 208 621 q 156 554 182 587 q 104 493 130 522 q 85 534 98 509 q 57 584 72 559 q 32 625 43 610 q 154 776 95 690 q 263 960 214 862 q 349 1160 313 1059 l 472 1122 q 424 1000 452 1063 l 686 1000 q 715 1080 702 1038 q 739 1166 728 1122 l 864 1141 q 819 1000 845 1068 l 1328 1000 l 1328 886 l 1074 886 q 1196 710 1122 791 q 1356 585 1270 629 q 1310 539 1335 568 q 1271 488 1285 511 q 1192 545 1231 511 l 1192 151 z "},"倍":{"ha":1389,"x_min":41,"x_max":1328,"o":"m 1283 1013 l 1283 899 l 488 899 l 488 1013 l 827 1013 q 809 1086 820 1047 q 787 1158 799 1126 l 908 1179 q 936 1094 923 1139 q 957 1013 949 1049 l 1283 1013 m 771 665 l 656 629 q 627 739 648 675 q 581 857 606 804 l 689 890 q 739 774 717 837 q 771 665 762 711 m 358 1162 l 476 1124 q 414 973 450 1048 q 339 825 378 898 l 339 -109 l 216 -109 l 216 628 q 111 497 164 557 q 93 537 105 513 q 66 586 80 562 q 41 627 52 611 q 163 778 104 692 q 272 962 222 864 q 358 1162 322 1061 m 1084 290 l 669 290 l 669 60 l 1084 60 l 1084 290 m 547 -109 l 547 406 l 1211 406 l 1211 -103 l 1084 -103 l 1084 -54 l 669 -54 l 669 -109 l 547 -109 m 1079 628 l 1328 628 l 1328 511 l 433 511 l 433 628 l 958 628 q 995 712 976 665 q 1030 808 1014 760 q 1059 896 1047 856 l 1181 864 q 1132 742 1158 804 q 1079 628 1105 679 z "},"倒":{"ha":1389,"x_min":31,"x_max":1280,"o":"m 1076 1048 l 1076 233 l 966 233 l 966 1048 l 1076 1048 m 294 1160 l 411 1128 q 363 984 390 1056 q 307 843 337 912 l 307 -110 l 189 -110 l 189 611 q 143 538 166 572 q 94 473 119 504 q 79 516 90 490 q 55 568 68 542 q 31 611 41 595 q 135 768 85 679 q 225 957 184 857 q 294 1160 266 1057 m 696 338 l 696 165 q 807 187 751 176 q 920 208 863 198 l 928 102 q 632 43 779 72 q 371 -8 486 14 l 350 107 q 454 123 397 114 q 575 143 511 133 l 575 338 l 389 338 l 389 444 l 575 444 l 575 587 l 696 587 l 696 444 l 900 444 l 900 338 l 696 338 m 700 867 l 793 907 q 854 812 823 863 q 909 713 884 762 q 947 628 934 665 l 850 582 q 833 624 844 601 q 811 673 823 648 q 622 642 694 654 q 511 622 551 630 q 452 608 471 614 q 422 597 433 603 q 406 650 417 615 q 383 707 395 684 q 413 726 399 710 q 441 765 427 743 q 480 839 453 785 q 532 961 508 893 l 410 961 l 410 1071 l 911 1071 l 911 961 l 660 961 q 604 844 635 903 q 542 734 574 785 l 762 766 q 731 818 747 793 q 700 867 715 844 m 1165 1124 l 1280 1124 l 1280 57 q 1266 -23 1280 4 q 1219 -64 1253 -50 q 1131 -83 1185 -79 q 996 -87 1077 -87 q 979 -30 991 -64 q 953 26 966 3 q 1065 24 1015 24 q 1132 25 1116 24 q 1158 33 1151 26 q 1165 57 1165 39 l 1165 1124 z "},"倔":{"ha":1389,"x_min":50,"x_max":1287,"o":"m 340 1158 l 463 1124 q 410 980 439 1052 q 347 840 380 909 l 347 -107 l 225 -107 l 225 624 q 174 551 200 585 q 122 485 149 516 q 103 525 116 500 q 76 575 90 549 q 50 616 61 600 q 163 770 109 683 q 263 957 218 857 q 340 1158 309 1057 m 1157 1000 l 610 1000 l 610 854 l 1157 854 l 1157 1000 m 1278 746 l 610 746 l 610 681 q 606 493 610 595 q 590 284 602 391 q 555 76 578 178 q 494 -109 532 -25 q 445 -72 478 -94 q 392 -40 412 -50 q 446 130 426 38 q 475 318 466 222 q 488 508 485 415 q 490 679 490 600 l 490 1107 l 1278 1107 l 1278 746 m 1182 275 l 1287 275 l 1287 -103 l 1182 -103 l 1182 -56 l 663 -56 l 663 277 l 768 277 l 768 46 l 917 46 l 917 345 l 685 345 l 685 656 l 786 656 l 786 447 l 917 447 l 917 707 l 1023 707 l 1023 447 l 1162 447 l 1162 657 l 1268 657 l 1268 345 l 1023 345 l 1023 46 l 1182 46 l 1182 275 z "},"倘":{"ha":1389,"x_min":46,"x_max":1271,"o":"m 1152 1126 l 1271 1086 q 1174 937 1226 1013 q 1076 806 1122 860 l 982 846 q 1043 932 1011 883 q 1103 1032 1075 981 q 1152 1126 1132 1083 m 314 1160 l 435 1126 q 386 984 413 1055 q 328 843 359 912 l 328 -110 l 205 -110 l 205 607 q 159 538 182 572 q 113 475 136 504 q 96 516 108 490 q 71 569 84 543 q 46 611 57 595 q 200 859 130 713 q 314 1160 269 1004 m 729 861 l 628 803 q 585 889 612 841 q 522 986 557 937 q 453 1076 488 1036 l 549 1125 q 620 1038 585 1086 q 684 944 655 991 q 729 861 713 898 m 936 429 l 779 429 l 779 248 l 936 248 l 936 429 m 1039 146 l 779 146 l 779 77 l 677 77 l 677 529 l 1039 529 l 1039 146 m 1261 749 l 1261 33 q 1249 -43 1261 -16 q 1204 -86 1236 -71 q 1116 -104 1170 -100 q 983 -107 1063 -107 q 968 -47 979 -82 q 945 9 957 -13 q 1047 8 1000 9 q 1109 8 1094 8 q 1133 15 1126 9 q 1139 35 1139 20 l 1139 632 l 579 632 l 579 -110 l 458 -110 l 458 749 l 791 749 l 791 1165 l 921 1165 l 921 749 l 1261 749 z "},"候":{"ha":1389,"x_min":46,"x_max":1348,"o":"m 1318 852 l 1318 745 l 572 745 l 572 852 l 1053 852 q 1064 924 1058 887 q 1074 994 1069 961 l 644 994 l 644 1101 l 1100 1101 l 1120 1107 l 1210 1096 q 1195 974 1204 1036 q 1177 852 1185 911 l 1318 852 m 310 1157 l 431 1124 q 380 974 408 1048 q 319 828 353 900 l 319 -111 l 196 -111 l 196 593 q 154 529 175 559 q 111 472 133 499 q 95 514 106 488 q 70 566 83 541 q 46 608 57 592 q 197 857 128 711 q 310 1157 266 1003 m 525 878 l 525 160 l 414 160 l 414 878 l 525 878 m 1321 243 l 1028 243 q 1082 153 1046 198 q 1182 68 1118 107 q 1348 4 1246 29 q 1306 -46 1327 -15 q 1274 -103 1285 -77 q 1068 2 1142 -64 q 956 140 995 68 q 831 5 915 71 q 606 -113 748 -60 q 568 -63 592 -91 q 522 -17 544 -35 q 707 61 636 18 q 815 150 777 103 q 868 243 852 197 l 575 243 l 575 353 l 888 353 l 888 370 l 888 513 l 754 513 q 707 435 731 472 q 657 371 683 399 q 609 406 640 385 q 557 437 578 426 q 655 574 611 494 q 722 742 699 655 l 840 714 q 824 667 833 690 q 806 619 815 644 l 1279 619 l 1279 513 l 1014 513 l 1014 368 l 1014 353 l 1321 353 l 1321 243 z "},"倚":{"ha":1389,"x_min":28,"x_max":1333,"o":"m 468 1026 l 815 1026 q 825 1086 821 1055 q 831 1152 829 1117 l 964 1152 q 957 1086 961 1118 q 949 1026 954 1055 l 1296 1026 l 1296 917 l 921 917 q 915 902 918 909 q 909 888 913 895 q 1046 830 975 862 q 1182 767 1118 799 q 1291 708 1246 735 l 1213 612 q 1113 669 1173 637 q 985 733 1053 701 q 852 793 917 765 q 714 686 802 730 q 486 612 626 642 q 459 666 479 635 q 421 714 439 696 q 663 792 581 743 q 782 917 745 842 l 468 917 l 468 1026 m 357 1158 l 478 1122 q 414 973 450 1047 q 339 828 378 899 l 339 -107 l 216 -107 l 216 637 q 159 561 189 597 q 98 494 129 526 q 79 535 92 511 q 52 585 66 560 q 28 625 38 610 q 154 775 93 690 q 268 959 216 861 q 357 1158 319 1057 m 823 311 l 619 311 l 619 174 l 823 174 l 823 311 m 939 79 l 619 79 l 619 0 l 507 0 l 507 406 l 939 406 l 939 79 m 1333 611 l 1333 497 l 1215 497 l 1215 24 q 1202 -53 1215 -26 q 1152 -93 1188 -79 q 1055 -109 1114 -106 q 909 -111 996 -111 q 895 -55 907 -87 q 871 1 882 -22 q 986 0 931 -1 q 1057 0 1041 0 q 1082 6 1076 1 q 1089 25 1089 12 l 1089 497 l 408 497 l 408 611 l 1333 611 z "},"借":{"ha":1389,"x_min":26,"x_max":1340,"o":"m 355 1160 l 476 1124 q 413 976 448 1050 q 339 831 378 901 l 339 -107 l 216 -107 l 216 639 q 97 494 159 560 q 78 535 91 510 q 51 585 65 559 q 26 625 37 610 q 153 776 92 690 q 266 960 214 862 q 355 1160 318 1059 m 1099 400 l 668 400 l 668 277 l 1099 277 l 1099 400 m 668 49 l 1099 49 l 1099 178 l 668 178 l 668 49 m 545 -114 l 545 509 l 1227 509 l 1227 -109 l 1099 -109 l 1099 -57 l 668 -57 l 668 -114 l 545 -114 m 760 886 l 760 722 l 986 722 l 986 886 l 760 886 m 1114 722 l 1340 722 l 1340 604 l 406 604 l 406 722 l 635 722 l 635 886 l 460 886 l 460 997 l 635 997 l 635 1153 l 760 1153 l 760 997 l 986 997 l 986 1153 l 1114 1153 l 1114 997 l 1297 997 l 1297 886 l 1114 886 l 1114 722 z "},"倡":{"ha":1389,"x_min":36,"x_max":1271,"o":"m 1075 903 l 1075 1011 l 642 1011 l 642 903 l 1075 903 m 1075 697 l 1075 807 l 642 807 l 642 697 l 1075 697 m 1207 1112 l 1207 596 l 515 596 l 515 1112 l 1207 1112 m 345 1160 l 471 1122 q 409 968 444 1045 q 335 817 374 890 l 335 -109 l 208 -109 l 208 612 q 158 546 183 577 q 107 488 133 515 q 89 529 102 503 q 62 582 76 555 q 36 625 47 608 q 155 776 98 690 q 261 960 213 862 q 345 1160 310 1059 m 585 54 l 1137 54 l 1137 176 l 585 176 l 585 54 m 1137 399 l 585 399 l 585 283 l 1137 283 l 1137 399 m 456 509 l 1271 509 l 1271 -102 l 1137 -102 l 1137 -56 l 585 -56 l 585 -107 l 456 -107 l 456 509 z "},"倦":{"ha":1389,"x_min":45,"x_max":1320,"o":"m 1093 1124 l 1198 1093 q 1141 988 1175 1043 q 1076 895 1107 933 q 1031 921 1061 907 q 981 945 1002 935 q 1042 1030 1012 982 q 1093 1124 1072 1078 m 729 962 l 636 900 q 582 987 617 935 q 515 1082 547 1039 l 604 1135 q 672 1045 635 1094 q 729 962 708 996 m 351 1158 l 472 1122 q 411 970 445 1046 q 339 821 378 894 l 339 -107 l 216 -107 l 216 623 q 166 555 192 588 q 115 494 141 523 q 97 535 110 510 q 70 585 85 559 q 45 625 56 610 q 163 776 106 690 q 268 959 220 861 q 351 1158 317 1057 m 681 444 l 1061 444 q 994 557 1021 498 l 755 557 q 720 499 739 527 q 681 444 701 471 m 1315 557 l 1116 557 q 1208 444 1155 496 q 1320 363 1261 393 q 1275 319 1299 346 q 1238 269 1252 292 q 1095 399 1161 317 l 1095 229 q 1086 169 1095 191 q 1051 134 1078 147 q 985 119 1024 121 q 890 117 947 117 q 878 166 887 140 q 859 215 869 193 q 925 214 896 214 q 964 215 954 214 q 982 231 982 215 l 982 342 l 701 342 l 701 66 q 718 23 701 33 q 793 14 734 14 l 1046 14 q 1092 24 1076 14 q 1115 65 1108 35 q 1125 158 1122 96 q 1178 131 1146 144 q 1234 113 1209 119 q 1208 -15 1225 30 q 1155 -77 1191 -60 q 1055 -94 1119 -94 l 783 -94 q 662 -81 705 -94 q 602 -33 619 -68 q 585 66 585 2 l 585 338 q 528 290 557 313 q 467 245 499 267 q 427 296 455 264 q 379 347 399 328 q 504 441 448 388 q 607 557 561 494 l 411 557 l 411 661 l 671 661 q 700 722 686 690 q 726 786 714 754 l 497 786 l 497 889 l 758 889 q 791 1021 777 952 q 814 1165 804 1090 l 940 1150 q 917 1016 930 1081 q 888 889 903 950 l 1232 889 l 1232 786 l 857 786 q 834 722 846 754 q 808 661 822 690 l 1315 661 l 1315 557 z "},"债":{"ha":1389,"x_min":49,"x_max":1318,"o":"m 803 878 l 803 951 l 464 951 l 464 1050 l 803 1050 l 803 1165 l 922 1165 l 922 1050 l 1246 1050 l 1246 951 l 922 951 l 922 878 l 1208 878 l 1208 786 l 922 786 l 922 703 l 1305 703 l 1305 607 l 428 607 l 428 703 l 803 703 l 803 786 l 507 786 l 507 878 l 803 878 m 1229 146 l 1107 146 l 1107 449 l 615 449 l 615 146 l 498 146 l 498 538 l 1229 538 l 1229 146 m 321 1160 l 444 1125 q 339 856 401 990 l 339 -109 l 216 -109 l 216 628 q 171 557 194 590 q 122 493 147 524 q 104 534 117 509 q 76 584 91 559 q 49 625 60 610 q 156 778 105 691 q 248 962 206 864 q 321 1160 290 1060 m 913 375 l 913 264 q 898 171 913 220 q 839 71 884 121 q 707 -26 795 20 q 472 -113 619 -73 q 438 -65 460 -92 q 393 -22 415 -39 q 614 44 533 7 q 734 120 695 81 q 783 197 772 159 q 794 267 794 235 l 794 375 l 913 375 m 899 60 l 960 143 q 1085 97 1018 123 q 1215 43 1153 71 q 1318 -8 1276 16 l 1253 -102 q 1153 -48 1214 -77 q 1025 10 1093 -18 q 899 60 958 38 z "},"值":{"ha":1389,"x_min":45,"x_max":1328,"o":"m 354 1161 l 473 1125 q 409 969 444 1047 q 334 818 373 891 l 334 -110 l 214 -110 l 214 624 q 164 556 189 588 q 114 496 140 525 q 96 537 109 512 q 70 587 84 562 q 45 628 56 612 q 164 778 106 692 q 271 962 222 864 q 354 1161 319 1060 m 646 134 l 646 33 l 1095 33 l 1095 134 l 646 134 m 1095 707 l 646 707 l 646 608 l 1095 608 l 1095 707 m 1095 326 l 646 326 l 646 225 l 1095 225 l 1095 326 m 1095 416 l 1095 515 l 646 515 l 646 416 l 1095 416 m 1214 33 l 1328 33 l 1328 -77 l 403 -77 l 403 33 l 530 33 l 530 804 l 768 804 q 779 859 773 829 q 790 918 785 888 l 464 918 l 464 1029 l 807 1029 q 816 1099 812 1065 q 822 1162 820 1133 l 958 1157 q 947 1094 953 1126 q 935 1029 941 1061 l 1292 1029 l 1292 918 l 913 918 q 885 804 899 854 l 1214 804 l 1214 33 z "},"倾":{"ha":1389,"x_min":26,"x_max":1333,"o":"m 749 847 l 911 847 q 931 909 922 876 q 947 975 940 943 l 689 975 l 689 1084 l 1326 1084 l 1326 975 l 1082 975 q 1055 908 1068 941 q 1029 847 1042 876 l 1268 847 l 1268 204 l 1152 204 l 1152 734 l 860 734 l 860 200 l 749 200 l 749 847 m 288 1162 l 404 1129 q 361 1001 385 1065 q 310 872 337 936 l 310 -111 l 195 -111 l 195 640 q 89 485 142 552 q 73 525 84 499 q 49 577 62 551 q 26 621 36 604 q 176 865 108 721 q 288 1162 243 1008 m 536 294 l 690 367 q 688 309 687 342 q 690 257 688 277 q 538 174 589 203 q 465 128 486 144 q 433 102 443 113 q 413 160 428 125 q 383 214 398 194 q 413 244 399 223 q 428 306 428 265 l 428 1011 l 536 1011 l 536 757 l 699 757 l 699 647 l 536 647 l 536 294 m 1053 676 l 1053 395 q 1043 260 1053 330 q 1000 122 1033 190 q 899 -7 966 54 q 715 -115 831 -68 q 685 -74 705 -96 q 646 -36 665 -51 q 807 56 746 3 q 899 168 867 109 q 941 286 930 227 q 951 395 951 345 l 951 676 l 1053 676 m 1011 100 l 1079 179 q 1171 115 1122 151 q 1263 44 1219 80 q 1333 -20 1306 9 l 1263 -110 q 1194 -43 1236 -80 q 1103 32 1152 -5 q 1011 100 1055 69 z "},"假":{"ha":1389,"x_min":47,"x_max":1343,"o":"m 1264 1107 l 1264 661 l 871 661 l 871 771 l 1145 771 l 1145 997 l 871 997 l 871 1107 l 1264 1107 m 282 1158 l 403 1131 q 315 852 367 987 l 315 -109 l 192 -109 l 192 591 q 153 531 173 559 q 113 476 134 503 q 96 517 107 492 q 72 569 85 543 q 47 611 58 595 q 186 857 126 711 q 282 1158 245 1003 m 708 1000 l 555 1000 l 555 765 l 708 765 l 708 1000 m 810 165 l 555 165 l 555 -106 l 436 -106 l 436 1107 l 821 1107 l 821 659 l 555 659 l 555 529 l 793 529 l 793 422 l 555 422 l 555 273 l 810 273 l 810 165 m 1149 464 l 951 464 q 995 348 970 404 q 1050 243 1019 292 q 1106 345 1081 290 q 1149 464 1132 400 m 1211 574 l 1284 551 q 1220 325 1262 425 q 1122 146 1179 224 q 1223 55 1168 95 q 1343 -9 1278 16 q 1302 -56 1324 -27 q 1265 -109 1279 -85 q 1147 -36 1202 -79 q 1047 60 1093 7 q 781 -113 934 -52 q 750 -63 769 -91 q 714 -17 730 -35 q 856 52 789 9 q 979 153 924 94 q 907 292 939 218 q 854 447 876 366 l 922 464 l 835 464 l 835 570 l 1192 570 l 1211 574 z "},"偎":{"ha":1389,"x_min":47,"x_max":1341,"o":"m 1116 900 l 1116 1015 l 932 1015 l 932 900 l 1116 900 m 1116 692 l 1116 808 l 932 808 l 932 692 l 1116 692 m 642 808 l 642 692 l 821 692 l 821 808 l 642 808 m 642 1015 l 642 900 l 821 900 l 821 1015 l 642 1015 m 1232 1114 l 1232 593 l 529 593 l 529 1114 l 1232 1114 m 361 1160 l 484 1124 q 418 969 454 1046 q 343 818 382 892 l 343 -111 l 221 -111 l 221 623 q 169 554 195 587 q 118 493 144 522 q 99 534 112 509 q 73 585 87 559 q 47 625 58 610 q 168 776 110 690 q 276 960 227 862 q 361 1160 326 1059 m 1203 347 l 1282 262 q 1186 198 1237 229 q 1088 143 1135 167 q 1202 48 1139 89 q 1341 -17 1265 7 q 1298 -66 1321 -35 q 1263 -121 1274 -97 q 989 73 1096 -57 q 827 385 883 203 l 689 385 l 689 47 l 903 92 q 898 33 899 66 q 900 -21 898 0 q 737 -61 800 -45 q 639 -87 674 -77 q 586 -104 604 -97 q 558 -118 569 -111 q 539 -54 553 -92 q 511 7 526 -15 q 548 38 529 16 q 567 104 567 60 l 567 385 l 432 385 l 432 497 l 1331 497 l 1331 385 l 942 385 q 1025 221 972 296 q 1119 283 1069 249 q 1203 347 1169 318 z "},"偏":{"ha":1389,"x_min":41,"x_max":1286,"o":"m 374 1160 l 493 1122 q 429 975 464 1048 q 354 829 394 901 l 354 -107 l 231 -107 l 231 637 q 171 562 201 598 q 111 494 141 526 q 93 535 105 511 q 66 585 80 560 q 41 624 52 609 q 169 775 107 688 q 283 960 231 861 q 374 1160 336 1059 m 1141 914 l 612 914 l 612 768 l 1141 768 l 1141 914 m 1267 663 l 612 663 q 604 480 610 578 q 583 280 597 382 q 544 82 568 178 q 484 -97 520 -15 q 436 -56 468 -79 q 385 -22 404 -32 q 444 162 422 63 q 476 362 466 260 q 490 561 487 465 q 493 736 493 656 l 493 1019 l 831 1019 q 805 1081 819 1048 q 778 1139 791 1113 l 897 1168 q 934 1093 916 1134 q 964 1019 952 1053 l 1267 1019 l 1267 663 m 1083 300 l 1185 300 l 1185 482 l 1083 482 l 1083 300 m 900 300 l 999 300 l 999 482 l 900 482 l 900 300 m 721 300 l 817 300 l 817 482 l 721 482 l 721 300 m 1286 583 l 1286 14 q 1279 -43 1286 -20 q 1251 -79 1272 -66 q 1199 -96 1230 -93 q 1126 -100 1169 -100 q 1113 -50 1123 -78 q 1092 0 1103 -21 q 1171 0 1153 -2 q 1185 16 1185 0 l 1185 200 l 1083 200 l 1083 -65 l 999 -65 l 999 200 l 900 200 l 900 -68 l 817 -68 l 817 200 l 721 200 l 721 -104 l 619 -104 l 619 583 l 1286 583 z "},"做":{"ha":1389,"x_min":29,"x_max":1341,"o":"m 314 1158 l 435 1125 q 322 846 387 983 l 322 -110 l 204 -110 l 204 631 q 151 550 178 588 q 94 478 123 511 q 76 519 88 494 q 52 571 64 545 q 29 614 39 597 q 140 768 87 681 q 238 955 193 855 q 314 1158 282 1055 m 1156 793 l 997 793 q 993 777 995 785 q 987 760 991 768 q 1017 567 998 666 q 1069 374 1037 467 q 1123 568 1103 463 q 1156 793 1143 673 m 717 153 l 717 431 l 529 431 l 529 153 l 717 153 m 1331 793 l 1268 793 q 1217 485 1249 625 q 1131 232 1185 345 q 1221 98 1169 159 q 1341 -5 1273 38 q 1300 -54 1324 -23 q 1264 -109 1276 -84 q 1154 -6 1202 -64 q 1067 118 1105 52 q 964 -6 1021 50 q 835 -110 907 -63 q 798 -65 823 -93 q 754 -21 773 -37 q 1008 237 920 76 q 952 407 975 319 q 916 581 930 494 q 887 528 902 553 q 857 481 873 503 q 846 498 852 488 q 831 521 839 509 l 831 41 l 529 41 l 529 -52 l 416 -52 l 416 542 l 564 542 l 564 787 l 386 787 l 386 904 l 564 904 l 564 1147 l 686 1147 l 686 904 l 851 904 l 851 787 l 686 787 l 686 542 l 817 542 q 798 565 807 554 q 782 585 789 576 q 894 843 852 690 q 960 1164 937 997 l 1076 1143 q 1055 1022 1066 1082 q 1028 903 1044 961 l 1331 903 l 1331 793 z "},"停":{"ha":1389,"x_min":45,"x_max":1322,"o":"m 457 1048 l 823 1048 q 801 1096 813 1073 q 778 1140 789 1120 l 896 1174 q 931 1112 913 1147 q 961 1048 949 1078 l 1318 1048 l 1318 942 l 457 942 l 457 1048 m 667 787 l 667 690 l 1086 690 l 1086 787 l 667 787 m 1211 600 l 549 600 l 549 876 l 1211 876 l 1211 600 m 353 1162 l 469 1124 q 406 966 441 1046 q 330 812 371 886 l 330 -110 l 212 -110 l 212 621 q 114 497 165 552 q 96 537 109 512 q 70 587 84 562 q 45 628 56 612 q 164 779 106 693 q 270 963 221 865 q 353 1162 318 1061 m 559 231 l 559 334 l 1187 334 l 1187 231 l 946 231 l 946 24 q 933 -50 946 -23 q 882 -89 920 -77 q 789 -104 844 -102 q 653 -106 733 -106 q 637 -48 648 -79 q 614 7 627 -17 q 721 5 670 5 q 787 5 772 5 q 810 11 804 5 q 815 28 815 16 l 815 231 l 559 231 m 431 528 l 1322 528 l 1322 293 l 1207 293 l 1207 424 l 542 424 l 542 293 l 431 293 l 431 528 z "},"健":{"ha":1389,"x_min":49,"x_max":1335,"o":"m 1135 960 l 1029 960 l 1029 872 l 1135 872 l 1135 960 m 1135 685 l 1135 775 l 1029 775 l 1029 685 l 1135 685 m 922 872 l 922 960 l 754 960 l 754 1055 l 922 1055 l 922 1165 l 1029 1165 l 1029 1055 l 1235 1055 l 1235 872 l 1325 872 l 1325 775 l 1235 775 l 1235 589 l 1029 589 l 1029 504 l 1257 504 l 1257 403 l 1029 403 l 1029 311 l 1299 311 l 1299 210 l 1029 210 l 1029 61 l 922 61 l 922 210 l 703 210 l 703 311 l 922 311 l 922 403 l 736 403 l 736 504 l 922 504 l 922 589 l 754 589 l 754 685 l 922 685 l 922 775 l 693 775 l 693 872 l 922 872 m 289 1162 l 406 1129 q 360 991 385 1061 q 307 857 335 922 l 307 -109 l 193 -109 l 193 632 q 152 568 172 599 q 110 510 132 537 q 94 551 105 525 q 71 603 83 576 q 49 644 58 629 q 188 878 125 741 q 289 1162 250 1016 m 640 669 l 707 656 q 607 168 682 356 q 820 47 699 77 q 1076 17 942 17 q 1126 17 1093 17 q 1200 17 1160 17 q 1277 17 1240 17 q 1335 18 1314 18 q 1311 -34 1322 -2 q 1295 -87 1299 -66 l 1069 -87 q 789 -57 920 -87 q 558 68 659 -26 q 487 -33 526 12 q 401 -110 447 -77 q 362 -66 388 -91 q 317 -31 336 -42 q 484 158 418 35 q 418 271 448 208 q 364 412 388 334 l 457 446 q 530 268 486 342 q 568 406 553 332 q 593 567 584 479 l 385 567 q 460 751 419 645 q 538 958 501 857 l 399 958 l 399 1069 l 693 1069 q 620 867 660 974 q 543 668 580 760 l 628 668 l 640 669 z "},"偶":{"ha":1389,"x_min":40,"x_max":1304,"o":"m 357 1160 l 481 1124 q 416 969 452 1046 q 339 818 380 892 l 339 -110 l 216 -110 l 216 624 q 164 555 191 587 q 113 493 138 522 q 94 534 106 509 q 66 585 81 559 q 40 625 52 610 q 163 776 104 690 q 272 960 222 862 q 357 1160 321 1059 m 637 682 l 819 682 l 819 796 l 637 796 l 637 682 m 637 1003 l 637 890 l 819 890 l 819 1003 l 637 1003 m 1124 890 l 1124 1003 l 932 1003 l 932 890 l 1124 890 m 1124 682 l 1124 796 l 932 796 l 932 682 l 1124 682 m 1304 485 l 1304 17 q 1292 -54 1304 -28 q 1246 -93 1280 -79 q 1160 -109 1213 -106 q 1031 -111 1107 -111 q 1016 -57 1026 -87 q 993 -4 1006 -26 q 1095 -6 1048 -6 q 1157 -5 1142 -5 q 1178 0 1173 -5 q 1183 18 1183 5 l 1183 375 l 932 375 l 932 220 l 1036 229 q 1016 273 1027 252 q 994 314 1005 294 l 1072 340 q 1139 207 1107 279 q 1183 83 1170 134 l 1101 53 q 1090 91 1097 71 q 1075 136 1083 112 q 840 104 956 119 q 631 79 724 90 l 606 191 q 705 198 650 193 q 819 210 759 203 l 819 375 l 574 375 l 574 -110 l 452 -110 l 452 485 l 819 485 l 819 582 l 518 582 l 518 1103 l 1249 1103 l 1249 582 l 932 582 l 932 485 l 1304 485 z "}}}
